%TF.GenerationSoftware,KiCad,Pcbnew,7.0.7*%
%TF.CreationDate,2023-09-18T20:54:05+05:30*%
%TF.ProjectId,STM32,53544d33-322e-46b6-9963-61645f706362,rev?*%
%TF.SameCoordinates,Original*%
%TF.FileFunction,Soldermask,Top*%
%TF.FilePolarity,Negative*%
%FSLAX46Y46*%
G04 Gerber Fmt 4.6, Leading zero omitted, Abs format (unit mm)*
G04 Created by KiCad (PCBNEW 7.0.7) date 2023-09-18 20:54:05*
%MOMM*%
%LPD*%
G01*
G04 APERTURE LIST*
G04 Aperture macros list*
%AMRoundRect*
0 Rectangle with rounded corners*
0 $1 Rounding radius*
0 $2 $3 $4 $5 $6 $7 $8 $9 X,Y pos of 4 corners*
0 Add a 4 corners polygon primitive as box body*
4,1,4,$2,$3,$4,$5,$6,$7,$8,$9,$2,$3,0*
0 Add four circle primitives for the rounded corners*
1,1,$1+$1,$2,$3*
1,1,$1+$1,$4,$5*
1,1,$1+$1,$6,$7*
1,1,$1+$1,$8,$9*
0 Add four rect primitives between the rounded corners*
20,1,$1+$1,$2,$3,$4,$5,0*
20,1,$1+$1,$4,$5,$6,$7,0*
20,1,$1+$1,$6,$7,$8,$9,0*
20,1,$1+$1,$8,$9,$2,$3,0*%
G04 Aperture macros list end*
%ADD10RoundRect,0.075000X-0.662500X-0.075000X0.662500X-0.075000X0.662500X0.075000X-0.662500X0.075000X0*%
%ADD11RoundRect,0.075000X-0.075000X-0.662500X0.075000X-0.662500X0.075000X0.662500X-0.075000X0.662500X0*%
%ADD12RoundRect,0.140000X0.140000X0.170000X-0.140000X0.170000X-0.140000X-0.170000X0.140000X-0.170000X0*%
%ADD13R,1.700000X1.700000*%
%ADD14O,1.700000X1.700000*%
%ADD15C,2.200000*%
%ADD16RoundRect,0.250000X0.475000X-0.250000X0.475000X0.250000X-0.475000X0.250000X-0.475000X-0.250000X0*%
%ADD17RoundRect,0.140000X-0.170000X0.140000X-0.170000X-0.140000X0.170000X-0.140000X0.170000X0.140000X0*%
%ADD18O,0.800000X0.800000*%
%ADD19R,1.300000X0.450000*%
%ADD20O,1.800000X1.150000*%
%ADD21O,2.000000X1.450000*%
%ADD22RoundRect,0.135000X0.185000X-0.135000X0.185000X0.135000X-0.185000X0.135000X-0.185000X-0.135000X0*%
%ADD23RoundRect,0.140000X0.170000X-0.140000X0.170000X0.140000X-0.170000X0.140000X-0.170000X-0.140000X0*%
%ADD24RoundRect,0.135000X-0.185000X0.135000X-0.185000X-0.135000X0.185000X-0.135000X0.185000X0.135000X0*%
%ADD25RoundRect,0.218750X-0.256250X0.218750X-0.256250X-0.218750X0.256250X-0.218750X0.256250X0.218750X0*%
%ADD26R,1.500000X2.000000*%
%ADD27R,3.800000X2.000000*%
%ADD28RoundRect,0.225000X-0.225000X-0.250000X0.225000X-0.250000X0.225000X0.250000X-0.225000X0.250000X0*%
%ADD29R,1.200000X1.400000*%
%ADD30RoundRect,0.140000X-0.140000X-0.170000X0.140000X-0.170000X0.140000X0.170000X-0.140000X0.170000X0*%
%ADD31RoundRect,0.135000X-0.135000X-0.185000X0.135000X-0.185000X0.135000X0.185000X-0.135000X0.185000X0*%
%ADD32RoundRect,0.218750X0.256250X-0.218750X0.256250X0.218750X-0.256250X0.218750X-0.256250X-0.218750X0*%
%ADD33RoundRect,0.250000X-0.250000X-0.475000X0.250000X-0.475000X0.250000X0.475000X-0.250000X0.475000X0*%
%ADD34R,0.800000X1.000000*%
%ADD35C,0.900000*%
%ADD36R,1.500000X0.700000*%
G04 APERTURE END LIST*
D10*
%TO.C,U1*%
X82010000Y-77362500D03*
X82010000Y-77862500D03*
X82010000Y-78362500D03*
X82010000Y-78862500D03*
X82010000Y-79362500D03*
X82010000Y-79862500D03*
X82010000Y-80362500D03*
X82010000Y-80862500D03*
X82010000Y-81362500D03*
X82010000Y-81862500D03*
X82010000Y-82362500D03*
X82010000Y-82862500D03*
D11*
X83422500Y-84275000D03*
X83922500Y-84275000D03*
X84422500Y-84275000D03*
X84922500Y-84275000D03*
X85422500Y-84275000D03*
X85922500Y-84275000D03*
X86422500Y-84275000D03*
X86922500Y-84275000D03*
X87422500Y-84275000D03*
X87922500Y-84275000D03*
X88422500Y-84275000D03*
X88922500Y-84275000D03*
D10*
X90335000Y-82862500D03*
X90335000Y-82362500D03*
X90335000Y-81862500D03*
X90335000Y-81362500D03*
X90335000Y-80862500D03*
X90335000Y-80362500D03*
X90335000Y-79862500D03*
X90335000Y-79362500D03*
X90335000Y-78862500D03*
X90335000Y-78362500D03*
X90335000Y-77862500D03*
X90335000Y-77362500D03*
D11*
X88922500Y-75950000D03*
X88422500Y-75950000D03*
X87922500Y-75950000D03*
X87422500Y-75950000D03*
X86922500Y-75950000D03*
X86422500Y-75950000D03*
X85922500Y-75950000D03*
X85422500Y-75950000D03*
X84922500Y-75950000D03*
X84422500Y-75950000D03*
X83922500Y-75950000D03*
X83422500Y-75950000D03*
%TD*%
D12*
%TO.C,C9*%
X79480000Y-84500000D03*
X78520000Y-84500000D03*
%TD*%
D13*
%TO.C,J3*%
X85750000Y-61000000D03*
D14*
X83210000Y-61000000D03*
X80670000Y-61000000D03*
X78130000Y-61000000D03*
%TD*%
D15*
%TO.C,H3*%
X110000000Y-62500000D03*
%TD*%
D16*
%TO.C,C2*%
X101500000Y-89400000D03*
X101500000Y-87500000D03*
%TD*%
D17*
%TO.C,C6*%
X92480000Y-77020000D03*
X92480000Y-77980000D03*
%TD*%
D18*
%TO.C,J1*%
X109945000Y-80505000D03*
X109945000Y-75505000D03*
D19*
X108845000Y-79305000D03*
X108845000Y-78655000D03*
X108845000Y-78005000D03*
X108845000Y-77355000D03*
X108845000Y-76705000D03*
D20*
X112695000Y-81880000D03*
D21*
X108895000Y-81730000D03*
X108895000Y-74280000D03*
D20*
X112695000Y-74130000D03*
%TD*%
D22*
%TO.C,R2*%
X73500000Y-70510000D03*
X73500000Y-69490000D03*
%TD*%
D23*
%TO.C,C4*%
X79750000Y-77230000D03*
X79750000Y-76270000D03*
%TD*%
D15*
%TO.C,H1*%
X70000000Y-92500000D03*
%TD*%
D24*
%TO.C,R3*%
X99250000Y-77750000D03*
X99250000Y-78770000D03*
%TD*%
D25*
%TO.C,D1*%
X105500000Y-88500000D03*
X105500000Y-90075000D03*
%TD*%
D26*
%TO.C,U2*%
X99100000Y-86000000D03*
X96800000Y-86000000D03*
D27*
X96800000Y-92300000D03*
D26*
X94500000Y-86000000D03*
%TD*%
D28*
%TO.C,C3*%
X80000000Y-68500000D03*
X81550000Y-68500000D03*
%TD*%
D13*
%TO.C,J4*%
X81000000Y-95000000D03*
D14*
X83540000Y-95000000D03*
X86080000Y-95000000D03*
X88620000Y-95000000D03*
%TD*%
D29*
%TO.C,Y1*%
X74250000Y-78000000D03*
X74250000Y-80200000D03*
X75950000Y-80200000D03*
X75950000Y-78000000D03*
%TD*%
D30*
%TO.C,C10*%
X78520000Y-86500000D03*
X79480000Y-86500000D03*
%TD*%
D12*
%TO.C,C5*%
X90250000Y-86750000D03*
X89290000Y-86750000D03*
%TD*%
D13*
%TO.C,J2*%
X101370000Y-61250000D03*
D14*
X98830000Y-61250000D03*
X96290000Y-61250000D03*
X93750000Y-61250000D03*
%TD*%
D31*
%TO.C,R1*%
X105490000Y-86750000D03*
X106510000Y-86750000D03*
%TD*%
D23*
%TO.C,C8*%
X79750000Y-82210000D03*
X79750000Y-81250000D03*
%TD*%
%TO.C,C13*%
X77600000Y-80710000D03*
X77600000Y-79750000D03*
%TD*%
D32*
%TO.C,FB1*%
X81212500Y-86287500D03*
X81212500Y-84712500D03*
%TD*%
D33*
%TO.C,C1*%
X95800000Y-83500000D03*
X97700000Y-83500000D03*
%TD*%
D31*
%TO.C,R5*%
X86500000Y-89000000D03*
X87520000Y-89000000D03*
%TD*%
D34*
%TO.C,SW1*%
X68280000Y-66350000D03*
X66070000Y-66350000D03*
D35*
X67170000Y-68500000D03*
X67170000Y-71500000D03*
D34*
X68280000Y-73650000D03*
X66070000Y-73650000D03*
D36*
X68930000Y-67750000D03*
X68930000Y-70750000D03*
X68930000Y-72250000D03*
%TD*%
D15*
%TO.C,H4*%
X70000000Y-62500000D03*
%TD*%
D23*
%TO.C,C12*%
X78500000Y-78710000D03*
X78500000Y-77750000D03*
%TD*%
D30*
%TO.C,C11*%
X83040000Y-86500000D03*
X84000000Y-86500000D03*
%TD*%
D15*
%TO.C,H2*%
X110000000Y-92500000D03*
%TD*%
D31*
%TO.C,R4*%
X83490000Y-89000000D03*
X84510000Y-89000000D03*
%TD*%
M02*
