M48
; DRILL file {KiCad 7.0.7} date Mon Sep 18 20:53:59 2023
; FORMAT={-:-/ absolute / inch / decimal}
; #@! TF.CreationDate,2023-09-18T20:53:59+05:30
; #@! TF.GenerationSoftware,Kicad,Pcbnew,7.0.7
; #@! TF.FileFunction,MixedPlating,1,2
FMAT,2
INCH
; #@! TA.AperFunction,Plated,PTH,ViaDrill
T1C0.0118
; #@! TA.AperFunction,Plated,PTH,ComponentDrill
T2C0.0217
; #@! TA.AperFunction,Plated,PTH,ComponentDrill
T3C0.0335
; #@! TA.AperFunction,Plated,PTH,ComponentDrill
T4C0.0394
; #@! TA.AperFunction,NonPlated,NPTH,ComponentDrill
T5C0.0315
; #@! TA.AperFunction,NonPlated,NPTH,ComponentDrill
T6C0.0354
; #@! TA.AperFunction,NonPlated,NPTH,ComponentDrill
T7C0.0866
%
G90
G05
T1
X2.7854Y-2.6673
X3.061Y-3.061
X3.0807Y-2.4902
X3.0906Y-3.1398
X3.0906Y-3.3563
X3.1102Y-3.2051
X3.1299Y-3.4449
X3.1791Y-3.002
X3.2087Y-2.7559
X3.2874Y-2.9232
X3.2874Y-3.5531
X3.2972Y-3.189
X3.3071Y-3.435
X3.3563Y-3.5531
X3.4181Y-3.4646
X3.4744Y-3.4646
X3.4843Y-3.2579
X3.4941Y-3.6516
X3.6811Y-2.5197
X3.878Y-3.4449
X3.8976Y-3.2677
X3.8976Y-3.3071
X3.9173Y-3.4449
X4.0453Y-3.4449
X4.2028Y-3.0217
X4.2421Y-3.4154
T4
X3.076Y-2.4016
X3.176Y-2.4016
X3.189Y-3.7402
X3.276Y-2.4016
X3.289Y-3.7402
X3.376Y-2.4016
X3.389Y-3.7402
X3.489Y-3.7402
X3.6909Y-2.4114
X3.7909Y-2.4114
X3.8909Y-2.4114
X3.9909Y-2.4114
T5
X4.3285Y-2.9726
X4.3285Y-3.1695
T6
X2.6445Y-2.6969
X2.6445Y-2.815
T7
X2.7559Y-2.4606
X2.7559Y-3.6417
X4.3307Y-2.4606
X4.3307Y-3.6417
T2
G00X4.424Y-2.9185
M15
G01X4.4496Y-2.9185
M16
G05
G00X4.424Y-3.2236
M15
G01X4.4496Y-3.2236
M16
G05
T3
G00X4.2764Y-2.9244
M15
G01X4.298Y-2.9244
M16
G05
G00X4.2764Y-3.2177
M15
G01X4.298Y-3.2177
M16
G05
T0
M30
