%TF.GenerationSoftware,KiCad,Pcbnew,7.0.7*%
%TF.CreationDate,2023-09-18T20:54:05+05:30*%
%TF.ProjectId,STM32,53544d33-322e-46b6-9963-61645f706362,rev?*%
%TF.SameCoordinates,Original*%
%TF.FileFunction,Legend,Top*%
%TF.FilePolarity,Positive*%
%FSLAX46Y46*%
G04 Gerber Fmt 4.6, Leading zero omitted, Abs format (unit mm)*
G04 Created by KiCad (PCBNEW 7.0.7) date 2023-09-18 20:54:05*
%MOMM*%
%LPD*%
G01*
G04 APERTURE LIST*
%ADD10C,0.150000*%
%ADD11C,0.125000*%
%ADD12C,0.120000*%
G04 APERTURE END LIST*
D10*
X107586779Y-71369819D02*
X107586779Y-72179342D01*
X107586779Y-72179342D02*
X107634398Y-72274580D01*
X107634398Y-72274580D02*
X107682017Y-72322200D01*
X107682017Y-72322200D02*
X107777255Y-72369819D01*
X107777255Y-72369819D02*
X107967731Y-72369819D01*
X107967731Y-72369819D02*
X108062969Y-72322200D01*
X108062969Y-72322200D02*
X108110588Y-72274580D01*
X108110588Y-72274580D02*
X108158207Y-72179342D01*
X108158207Y-72179342D02*
X108158207Y-71369819D01*
X108586779Y-72322200D02*
X108729636Y-72369819D01*
X108729636Y-72369819D02*
X108967731Y-72369819D01*
X108967731Y-72369819D02*
X109062969Y-72322200D01*
X109062969Y-72322200D02*
X109110588Y-72274580D01*
X109110588Y-72274580D02*
X109158207Y-72179342D01*
X109158207Y-72179342D02*
X109158207Y-72084104D01*
X109158207Y-72084104D02*
X109110588Y-71988866D01*
X109110588Y-71988866D02*
X109062969Y-71941247D01*
X109062969Y-71941247D02*
X108967731Y-71893628D01*
X108967731Y-71893628D02*
X108777255Y-71846009D01*
X108777255Y-71846009D02*
X108682017Y-71798390D01*
X108682017Y-71798390D02*
X108634398Y-71750771D01*
X108634398Y-71750771D02*
X108586779Y-71655533D01*
X108586779Y-71655533D02*
X108586779Y-71560295D01*
X108586779Y-71560295D02*
X108634398Y-71465057D01*
X108634398Y-71465057D02*
X108682017Y-71417438D01*
X108682017Y-71417438D02*
X108777255Y-71369819D01*
X108777255Y-71369819D02*
X109015350Y-71369819D01*
X109015350Y-71369819D02*
X109158207Y-71417438D01*
X109920112Y-71846009D02*
X110062969Y-71893628D01*
X110062969Y-71893628D02*
X110110588Y-71941247D01*
X110110588Y-71941247D02*
X110158207Y-72036485D01*
X110158207Y-72036485D02*
X110158207Y-72179342D01*
X110158207Y-72179342D02*
X110110588Y-72274580D01*
X110110588Y-72274580D02*
X110062969Y-72322200D01*
X110062969Y-72322200D02*
X109967731Y-72369819D01*
X109967731Y-72369819D02*
X109586779Y-72369819D01*
X109586779Y-72369819D02*
X109586779Y-71369819D01*
X109586779Y-71369819D02*
X109920112Y-71369819D01*
X109920112Y-71369819D02*
X110015350Y-71417438D01*
X110015350Y-71417438D02*
X110062969Y-71465057D01*
X110062969Y-71465057D02*
X110110588Y-71560295D01*
X110110588Y-71560295D02*
X110110588Y-71655533D01*
X110110588Y-71655533D02*
X110062969Y-71750771D01*
X110062969Y-71750771D02*
X110015350Y-71798390D01*
X110015350Y-71798390D02*
X109920112Y-71846009D01*
X109920112Y-71846009D02*
X109586779Y-71846009D01*
X66170112Y-75596009D02*
X66312969Y-75643628D01*
X66312969Y-75643628D02*
X66360588Y-75691247D01*
X66360588Y-75691247D02*
X66408207Y-75786485D01*
X66408207Y-75786485D02*
X66408207Y-75929342D01*
X66408207Y-75929342D02*
X66360588Y-76024580D01*
X66360588Y-76024580D02*
X66312969Y-76072200D01*
X66312969Y-76072200D02*
X66217731Y-76119819D01*
X66217731Y-76119819D02*
X65836779Y-76119819D01*
X65836779Y-76119819D02*
X65836779Y-75119819D01*
X65836779Y-75119819D02*
X66170112Y-75119819D01*
X66170112Y-75119819D02*
X66265350Y-75167438D01*
X66265350Y-75167438D02*
X66312969Y-75215057D01*
X66312969Y-75215057D02*
X66360588Y-75310295D01*
X66360588Y-75310295D02*
X66360588Y-75405533D01*
X66360588Y-75405533D02*
X66312969Y-75500771D01*
X66312969Y-75500771D02*
X66265350Y-75548390D01*
X66265350Y-75548390D02*
X66170112Y-75596009D01*
X66170112Y-75596009D02*
X65836779Y-75596009D01*
X67027255Y-75119819D02*
X67217731Y-75119819D01*
X67217731Y-75119819D02*
X67312969Y-75167438D01*
X67312969Y-75167438D02*
X67408207Y-75262676D01*
X67408207Y-75262676D02*
X67455826Y-75453152D01*
X67455826Y-75453152D02*
X67455826Y-75786485D01*
X67455826Y-75786485D02*
X67408207Y-75976961D01*
X67408207Y-75976961D02*
X67312969Y-76072200D01*
X67312969Y-76072200D02*
X67217731Y-76119819D01*
X67217731Y-76119819D02*
X67027255Y-76119819D01*
X67027255Y-76119819D02*
X66932017Y-76072200D01*
X66932017Y-76072200D02*
X66836779Y-75976961D01*
X66836779Y-75976961D02*
X66789160Y-75786485D01*
X66789160Y-75786485D02*
X66789160Y-75453152D01*
X66789160Y-75453152D02*
X66836779Y-75262676D01*
X66836779Y-75262676D02*
X66932017Y-75167438D01*
X66932017Y-75167438D02*
X67027255Y-75119819D01*
X68074874Y-75119819D02*
X68265350Y-75119819D01*
X68265350Y-75119819D02*
X68360588Y-75167438D01*
X68360588Y-75167438D02*
X68455826Y-75262676D01*
X68455826Y-75262676D02*
X68503445Y-75453152D01*
X68503445Y-75453152D02*
X68503445Y-75786485D01*
X68503445Y-75786485D02*
X68455826Y-75976961D01*
X68455826Y-75976961D02*
X68360588Y-76072200D01*
X68360588Y-76072200D02*
X68265350Y-76119819D01*
X68265350Y-76119819D02*
X68074874Y-76119819D01*
X68074874Y-76119819D02*
X67979636Y-76072200D01*
X67979636Y-76072200D02*
X67884398Y-75976961D01*
X67884398Y-75976961D02*
X67836779Y-75786485D01*
X67836779Y-75786485D02*
X67836779Y-75453152D01*
X67836779Y-75453152D02*
X67884398Y-75262676D01*
X67884398Y-75262676D02*
X67979636Y-75167438D01*
X67979636Y-75167438D02*
X68074874Y-75119819D01*
X68789160Y-75119819D02*
X69360588Y-75119819D01*
X69074874Y-76119819D02*
X69074874Y-75119819D01*
X97039160Y-63822200D02*
X97182017Y-63869819D01*
X97182017Y-63869819D02*
X97420112Y-63869819D01*
X97420112Y-63869819D02*
X97515350Y-63822200D01*
X97515350Y-63822200D02*
X97562969Y-63774580D01*
X97562969Y-63774580D02*
X97610588Y-63679342D01*
X97610588Y-63679342D02*
X97610588Y-63584104D01*
X97610588Y-63584104D02*
X97562969Y-63488866D01*
X97562969Y-63488866D02*
X97515350Y-63441247D01*
X97515350Y-63441247D02*
X97420112Y-63393628D01*
X97420112Y-63393628D02*
X97229636Y-63346009D01*
X97229636Y-63346009D02*
X97134398Y-63298390D01*
X97134398Y-63298390D02*
X97086779Y-63250771D01*
X97086779Y-63250771D02*
X97039160Y-63155533D01*
X97039160Y-63155533D02*
X97039160Y-63060295D01*
X97039160Y-63060295D02*
X97086779Y-62965057D01*
X97086779Y-62965057D02*
X97134398Y-62917438D01*
X97134398Y-62917438D02*
X97229636Y-62869819D01*
X97229636Y-62869819D02*
X97467731Y-62869819D01*
X97467731Y-62869819D02*
X97610588Y-62917438D01*
X97943922Y-62869819D02*
X98182017Y-63869819D01*
X98182017Y-63869819D02*
X98372493Y-63155533D01*
X98372493Y-63155533D02*
X98562969Y-63869819D01*
X98562969Y-63869819D02*
X98801065Y-62869819D01*
X99182017Y-63869819D02*
X99182017Y-62869819D01*
X99182017Y-62869819D02*
X99420112Y-62869819D01*
X99420112Y-62869819D02*
X99562969Y-62917438D01*
X99562969Y-62917438D02*
X99658207Y-63012676D01*
X99658207Y-63012676D02*
X99705826Y-63107914D01*
X99705826Y-63107914D02*
X99753445Y-63298390D01*
X99753445Y-63298390D02*
X99753445Y-63441247D01*
X99753445Y-63441247D02*
X99705826Y-63631723D01*
X99705826Y-63631723D02*
X99658207Y-63726961D01*
X99658207Y-63726961D02*
X99562969Y-63822200D01*
X99562969Y-63822200D02*
X99420112Y-63869819D01*
X99420112Y-63869819D02*
X99182017Y-63869819D01*
X76586779Y-63869819D02*
X76586779Y-64679342D01*
X76586779Y-64679342D02*
X76634398Y-64774580D01*
X76634398Y-64774580D02*
X76682017Y-64822200D01*
X76682017Y-64822200D02*
X76777255Y-64869819D01*
X76777255Y-64869819D02*
X76967731Y-64869819D01*
X76967731Y-64869819D02*
X77062969Y-64822200D01*
X77062969Y-64822200D02*
X77110588Y-64774580D01*
X77110588Y-64774580D02*
X77158207Y-64679342D01*
X77158207Y-64679342D02*
X77158207Y-63869819D01*
X77586779Y-64584104D02*
X78062969Y-64584104D01*
X77491541Y-64869819D02*
X77824874Y-63869819D01*
X77824874Y-63869819D02*
X78158207Y-64869819D01*
X79062969Y-64869819D02*
X78729636Y-64393628D01*
X78491541Y-64869819D02*
X78491541Y-63869819D01*
X78491541Y-63869819D02*
X78872493Y-63869819D01*
X78872493Y-63869819D02*
X78967731Y-63917438D01*
X78967731Y-63917438D02*
X79015350Y-63965057D01*
X79015350Y-63965057D02*
X79062969Y-64060295D01*
X79062969Y-64060295D02*
X79062969Y-64203152D01*
X79062969Y-64203152D02*
X79015350Y-64298390D01*
X79015350Y-64298390D02*
X78967731Y-64346009D01*
X78967731Y-64346009D02*
X78872493Y-64393628D01*
X78872493Y-64393628D02*
X78491541Y-64393628D01*
X79348684Y-63869819D02*
X79920112Y-63869819D01*
X79634398Y-64869819D02*
X79634398Y-63869819D01*
X76336779Y-96869819D02*
X76336779Y-95869819D01*
X76765350Y-95965057D02*
X76812969Y-95917438D01*
X76812969Y-95917438D02*
X76908207Y-95869819D01*
X76908207Y-95869819D02*
X77146302Y-95869819D01*
X77146302Y-95869819D02*
X77241540Y-95917438D01*
X77241540Y-95917438D02*
X77289159Y-95965057D01*
X77289159Y-95965057D02*
X77336778Y-96060295D01*
X77336778Y-96060295D02*
X77336778Y-96155533D01*
X77336778Y-96155533D02*
X77289159Y-96298390D01*
X77289159Y-96298390D02*
X76717731Y-96869819D01*
X76717731Y-96869819D02*
X77336778Y-96869819D01*
X78336778Y-96774580D02*
X78289159Y-96822200D01*
X78289159Y-96822200D02*
X78146302Y-96869819D01*
X78146302Y-96869819D02*
X78051064Y-96869819D01*
X78051064Y-96869819D02*
X77908207Y-96822200D01*
X77908207Y-96822200D02*
X77812969Y-96726961D01*
X77812969Y-96726961D02*
X77765350Y-96631723D01*
X77765350Y-96631723D02*
X77717731Y-96441247D01*
X77717731Y-96441247D02*
X77717731Y-96298390D01*
X77717731Y-96298390D02*
X77765350Y-96107914D01*
X77765350Y-96107914D02*
X77812969Y-96012676D01*
X77812969Y-96012676D02*
X77908207Y-95917438D01*
X77908207Y-95917438D02*
X78051064Y-95869819D01*
X78051064Y-95869819D02*
X78146302Y-95869819D01*
X78146302Y-95869819D02*
X78289159Y-95917438D01*
X78289159Y-95917438D02*
X78336778Y-95965057D01*
X85410595Y-73717319D02*
X85410595Y-74526842D01*
X85410595Y-74526842D02*
X85458214Y-74622080D01*
X85458214Y-74622080D02*
X85505833Y-74669700D01*
X85505833Y-74669700D02*
X85601071Y-74717319D01*
X85601071Y-74717319D02*
X85791547Y-74717319D01*
X85791547Y-74717319D02*
X85886785Y-74669700D01*
X85886785Y-74669700D02*
X85934404Y-74622080D01*
X85934404Y-74622080D02*
X85982023Y-74526842D01*
X85982023Y-74526842D02*
X85982023Y-73717319D01*
X86982023Y-74717319D02*
X86410595Y-74717319D01*
X86696309Y-74717319D02*
X86696309Y-73717319D01*
X86696309Y-73717319D02*
X86601071Y-73860176D01*
X86601071Y-73860176D02*
X86505833Y-73955414D01*
X86505833Y-73955414D02*
X86410595Y-74003033D01*
X76813333Y-84859580D02*
X76765714Y-84907200D01*
X76765714Y-84907200D02*
X76622857Y-84954819D01*
X76622857Y-84954819D02*
X76527619Y-84954819D01*
X76527619Y-84954819D02*
X76384762Y-84907200D01*
X76384762Y-84907200D02*
X76289524Y-84811961D01*
X76289524Y-84811961D02*
X76241905Y-84716723D01*
X76241905Y-84716723D02*
X76194286Y-84526247D01*
X76194286Y-84526247D02*
X76194286Y-84383390D01*
X76194286Y-84383390D02*
X76241905Y-84192914D01*
X76241905Y-84192914D02*
X76289524Y-84097676D01*
X76289524Y-84097676D02*
X76384762Y-84002438D01*
X76384762Y-84002438D02*
X76527619Y-83954819D01*
X76527619Y-83954819D02*
X76622857Y-83954819D01*
X76622857Y-83954819D02*
X76765714Y-84002438D01*
X76765714Y-84002438D02*
X76813333Y-84050057D01*
X77289524Y-84954819D02*
X77480000Y-84954819D01*
X77480000Y-84954819D02*
X77575238Y-84907200D01*
X77575238Y-84907200D02*
X77622857Y-84859580D01*
X77622857Y-84859580D02*
X77718095Y-84716723D01*
X77718095Y-84716723D02*
X77765714Y-84526247D01*
X77765714Y-84526247D02*
X77765714Y-84145295D01*
X77765714Y-84145295D02*
X77718095Y-84050057D01*
X77718095Y-84050057D02*
X77670476Y-84002438D01*
X77670476Y-84002438D02*
X77575238Y-83954819D01*
X77575238Y-83954819D02*
X77384762Y-83954819D01*
X77384762Y-83954819D02*
X77289524Y-84002438D01*
X77289524Y-84002438D02*
X77241905Y-84050057D01*
X77241905Y-84050057D02*
X77194286Y-84145295D01*
X77194286Y-84145295D02*
X77194286Y-84383390D01*
X77194286Y-84383390D02*
X77241905Y-84478628D01*
X77241905Y-84478628D02*
X77289524Y-84526247D01*
X77289524Y-84526247D02*
X77384762Y-84573866D01*
X77384762Y-84573866D02*
X77575238Y-84573866D01*
X77575238Y-84573866D02*
X77670476Y-84526247D01*
X77670476Y-84526247D02*
X77718095Y-84478628D01*
X77718095Y-84478628D02*
X77765714Y-84383390D01*
X75116666Y-60429819D02*
X75116666Y-61144104D01*
X75116666Y-61144104D02*
X75069047Y-61286961D01*
X75069047Y-61286961D02*
X74973809Y-61382200D01*
X74973809Y-61382200D02*
X74830952Y-61429819D01*
X74830952Y-61429819D02*
X74735714Y-61429819D01*
X75497619Y-60429819D02*
X76116666Y-60429819D01*
X76116666Y-60429819D02*
X75783333Y-60810771D01*
X75783333Y-60810771D02*
X75926190Y-60810771D01*
X75926190Y-60810771D02*
X76021428Y-60858390D01*
X76021428Y-60858390D02*
X76069047Y-60906009D01*
X76069047Y-60906009D02*
X76116666Y-61001247D01*
X76116666Y-61001247D02*
X76116666Y-61239342D01*
X76116666Y-61239342D02*
X76069047Y-61334580D01*
X76069047Y-61334580D02*
X76021428Y-61382200D01*
X76021428Y-61382200D02*
X75926190Y-61429819D01*
X75926190Y-61429819D02*
X75640476Y-61429819D01*
X75640476Y-61429819D02*
X75545238Y-61382200D01*
X75545238Y-61382200D02*
X75497619Y-61334580D01*
X101333333Y-86359580D02*
X101285714Y-86407200D01*
X101285714Y-86407200D02*
X101142857Y-86454819D01*
X101142857Y-86454819D02*
X101047619Y-86454819D01*
X101047619Y-86454819D02*
X100904762Y-86407200D01*
X100904762Y-86407200D02*
X100809524Y-86311961D01*
X100809524Y-86311961D02*
X100761905Y-86216723D01*
X100761905Y-86216723D02*
X100714286Y-86026247D01*
X100714286Y-86026247D02*
X100714286Y-85883390D01*
X100714286Y-85883390D02*
X100761905Y-85692914D01*
X100761905Y-85692914D02*
X100809524Y-85597676D01*
X100809524Y-85597676D02*
X100904762Y-85502438D01*
X100904762Y-85502438D02*
X101047619Y-85454819D01*
X101047619Y-85454819D02*
X101142857Y-85454819D01*
X101142857Y-85454819D02*
X101285714Y-85502438D01*
X101285714Y-85502438D02*
X101333333Y-85550057D01*
X101714286Y-85550057D02*
X101761905Y-85502438D01*
X101761905Y-85502438D02*
X101857143Y-85454819D01*
X101857143Y-85454819D02*
X102095238Y-85454819D01*
X102095238Y-85454819D02*
X102190476Y-85502438D01*
X102190476Y-85502438D02*
X102238095Y-85550057D01*
X102238095Y-85550057D02*
X102285714Y-85645295D01*
X102285714Y-85645295D02*
X102285714Y-85740533D01*
X102285714Y-85740533D02*
X102238095Y-85883390D01*
X102238095Y-85883390D02*
X101666667Y-86454819D01*
X101666667Y-86454819D02*
X102285714Y-86454819D01*
X92333333Y-76359580D02*
X92285714Y-76407200D01*
X92285714Y-76407200D02*
X92142857Y-76454819D01*
X92142857Y-76454819D02*
X92047619Y-76454819D01*
X92047619Y-76454819D02*
X91904762Y-76407200D01*
X91904762Y-76407200D02*
X91809524Y-76311961D01*
X91809524Y-76311961D02*
X91761905Y-76216723D01*
X91761905Y-76216723D02*
X91714286Y-76026247D01*
X91714286Y-76026247D02*
X91714286Y-75883390D01*
X91714286Y-75883390D02*
X91761905Y-75692914D01*
X91761905Y-75692914D02*
X91809524Y-75597676D01*
X91809524Y-75597676D02*
X91904762Y-75502438D01*
X91904762Y-75502438D02*
X92047619Y-75454819D01*
X92047619Y-75454819D02*
X92142857Y-75454819D01*
X92142857Y-75454819D02*
X92285714Y-75502438D01*
X92285714Y-75502438D02*
X92333333Y-75550057D01*
X93190476Y-75454819D02*
X93000000Y-75454819D01*
X93000000Y-75454819D02*
X92904762Y-75502438D01*
X92904762Y-75502438D02*
X92857143Y-75550057D01*
X92857143Y-75550057D02*
X92761905Y-75692914D01*
X92761905Y-75692914D02*
X92714286Y-75883390D01*
X92714286Y-75883390D02*
X92714286Y-76264342D01*
X92714286Y-76264342D02*
X92761905Y-76359580D01*
X92761905Y-76359580D02*
X92809524Y-76407200D01*
X92809524Y-76407200D02*
X92904762Y-76454819D01*
X92904762Y-76454819D02*
X93095238Y-76454819D01*
X93095238Y-76454819D02*
X93190476Y-76407200D01*
X93190476Y-76407200D02*
X93238095Y-76359580D01*
X93238095Y-76359580D02*
X93285714Y-76264342D01*
X93285714Y-76264342D02*
X93285714Y-76026247D01*
X93285714Y-76026247D02*
X93238095Y-75931009D01*
X93238095Y-75931009D02*
X93190476Y-75883390D01*
X93190476Y-75883390D02*
X93095238Y-75835771D01*
X93095238Y-75835771D02*
X92904762Y-75835771D01*
X92904762Y-75835771D02*
X92809524Y-75883390D01*
X92809524Y-75883390D02*
X92761905Y-75931009D01*
X92761905Y-75931009D02*
X92714286Y-76026247D01*
X113666666Y-71954819D02*
X113666666Y-72669104D01*
X113666666Y-72669104D02*
X113619047Y-72811961D01*
X113619047Y-72811961D02*
X113523809Y-72907200D01*
X113523809Y-72907200D02*
X113380952Y-72954819D01*
X113380952Y-72954819D02*
X113285714Y-72954819D01*
X114666666Y-72954819D02*
X114095238Y-72954819D01*
X114380952Y-72954819D02*
X114380952Y-71954819D01*
X114380952Y-71954819D02*
X114285714Y-72097676D01*
X114285714Y-72097676D02*
X114190476Y-72192914D01*
X114190476Y-72192914D02*
X114095238Y-72240533D01*
X73333333Y-68454819D02*
X73000000Y-67978628D01*
X72761905Y-68454819D02*
X72761905Y-67454819D01*
X72761905Y-67454819D02*
X73142857Y-67454819D01*
X73142857Y-67454819D02*
X73238095Y-67502438D01*
X73238095Y-67502438D02*
X73285714Y-67550057D01*
X73285714Y-67550057D02*
X73333333Y-67645295D01*
X73333333Y-67645295D02*
X73333333Y-67788152D01*
X73333333Y-67788152D02*
X73285714Y-67883390D01*
X73285714Y-67883390D02*
X73238095Y-67931009D01*
X73238095Y-67931009D02*
X73142857Y-67978628D01*
X73142857Y-67978628D02*
X72761905Y-67978628D01*
X73714286Y-67550057D02*
X73761905Y-67502438D01*
X73761905Y-67502438D02*
X73857143Y-67454819D01*
X73857143Y-67454819D02*
X74095238Y-67454819D01*
X74095238Y-67454819D02*
X74190476Y-67502438D01*
X74190476Y-67502438D02*
X74238095Y-67550057D01*
X74238095Y-67550057D02*
X74285714Y-67645295D01*
X74285714Y-67645295D02*
X74285714Y-67740533D01*
X74285714Y-67740533D02*
X74238095Y-67883390D01*
X74238095Y-67883390D02*
X73666667Y-68454819D01*
X73666667Y-68454819D02*
X74285714Y-68454819D01*
X79583333Y-75589580D02*
X79535714Y-75637200D01*
X79535714Y-75637200D02*
X79392857Y-75684819D01*
X79392857Y-75684819D02*
X79297619Y-75684819D01*
X79297619Y-75684819D02*
X79154762Y-75637200D01*
X79154762Y-75637200D02*
X79059524Y-75541961D01*
X79059524Y-75541961D02*
X79011905Y-75446723D01*
X79011905Y-75446723D02*
X78964286Y-75256247D01*
X78964286Y-75256247D02*
X78964286Y-75113390D01*
X78964286Y-75113390D02*
X79011905Y-74922914D01*
X79011905Y-74922914D02*
X79059524Y-74827676D01*
X79059524Y-74827676D02*
X79154762Y-74732438D01*
X79154762Y-74732438D02*
X79297619Y-74684819D01*
X79297619Y-74684819D02*
X79392857Y-74684819D01*
X79392857Y-74684819D02*
X79535714Y-74732438D01*
X79535714Y-74732438D02*
X79583333Y-74780057D01*
X80440476Y-75018152D02*
X80440476Y-75684819D01*
X80202381Y-74637200D02*
X79964286Y-75351485D01*
X79964286Y-75351485D02*
X80583333Y-75351485D01*
X100583333Y-78474819D02*
X100250000Y-77998628D01*
X100011905Y-78474819D02*
X100011905Y-77474819D01*
X100011905Y-77474819D02*
X100392857Y-77474819D01*
X100392857Y-77474819D02*
X100488095Y-77522438D01*
X100488095Y-77522438D02*
X100535714Y-77570057D01*
X100535714Y-77570057D02*
X100583333Y-77665295D01*
X100583333Y-77665295D02*
X100583333Y-77808152D01*
X100583333Y-77808152D02*
X100535714Y-77903390D01*
X100535714Y-77903390D02*
X100488095Y-77951009D01*
X100488095Y-77951009D02*
X100392857Y-77998628D01*
X100392857Y-77998628D02*
X100011905Y-77998628D01*
X100916667Y-77474819D02*
X101535714Y-77474819D01*
X101535714Y-77474819D02*
X101202381Y-77855771D01*
X101202381Y-77855771D02*
X101345238Y-77855771D01*
X101345238Y-77855771D02*
X101440476Y-77903390D01*
X101440476Y-77903390D02*
X101488095Y-77951009D01*
X101488095Y-77951009D02*
X101535714Y-78046247D01*
X101535714Y-78046247D02*
X101535714Y-78284342D01*
X101535714Y-78284342D02*
X101488095Y-78379580D01*
X101488095Y-78379580D02*
X101440476Y-78427200D01*
X101440476Y-78427200D02*
X101345238Y-78474819D01*
X101345238Y-78474819D02*
X101059524Y-78474819D01*
X101059524Y-78474819D02*
X100964286Y-78427200D01*
X100964286Y-78427200D02*
X100916667Y-78379580D01*
X107384819Y-90025594D02*
X106384819Y-90025594D01*
X106384819Y-90025594D02*
X106384819Y-89787499D01*
X106384819Y-89787499D02*
X106432438Y-89644642D01*
X106432438Y-89644642D02*
X106527676Y-89549404D01*
X106527676Y-89549404D02*
X106622914Y-89501785D01*
X106622914Y-89501785D02*
X106813390Y-89454166D01*
X106813390Y-89454166D02*
X106956247Y-89454166D01*
X106956247Y-89454166D02*
X107146723Y-89501785D01*
X107146723Y-89501785D02*
X107241961Y-89549404D01*
X107241961Y-89549404D02*
X107337200Y-89644642D01*
X107337200Y-89644642D02*
X107384819Y-89787499D01*
X107384819Y-89787499D02*
X107384819Y-90025594D01*
X107384819Y-88501785D02*
X107384819Y-89073213D01*
X107384819Y-88787499D02*
X106384819Y-88787499D01*
X106384819Y-88787499D02*
X106527676Y-88882737D01*
X106527676Y-88882737D02*
X106622914Y-88977975D01*
X106622914Y-88977975D02*
X106670533Y-89073213D01*
X91554819Y-92761904D02*
X92364342Y-92761904D01*
X92364342Y-92761904D02*
X92459580Y-92714285D01*
X92459580Y-92714285D02*
X92507200Y-92666666D01*
X92507200Y-92666666D02*
X92554819Y-92571428D01*
X92554819Y-92571428D02*
X92554819Y-92380952D01*
X92554819Y-92380952D02*
X92507200Y-92285714D01*
X92507200Y-92285714D02*
X92459580Y-92238095D01*
X92459580Y-92238095D02*
X92364342Y-92190476D01*
X92364342Y-92190476D02*
X91554819Y-92190476D01*
X91650057Y-91761904D02*
X91602438Y-91714285D01*
X91602438Y-91714285D02*
X91554819Y-91619047D01*
X91554819Y-91619047D02*
X91554819Y-91380952D01*
X91554819Y-91380952D02*
X91602438Y-91285714D01*
X91602438Y-91285714D02*
X91650057Y-91238095D01*
X91650057Y-91238095D02*
X91745295Y-91190476D01*
X91745295Y-91190476D02*
X91840533Y-91190476D01*
X91840533Y-91190476D02*
X91983390Y-91238095D01*
X91983390Y-91238095D02*
X92554819Y-91809523D01*
X92554819Y-91809523D02*
X92554819Y-91190476D01*
X77833333Y-68859580D02*
X77785714Y-68907200D01*
X77785714Y-68907200D02*
X77642857Y-68954819D01*
X77642857Y-68954819D02*
X77547619Y-68954819D01*
X77547619Y-68954819D02*
X77404762Y-68907200D01*
X77404762Y-68907200D02*
X77309524Y-68811961D01*
X77309524Y-68811961D02*
X77261905Y-68716723D01*
X77261905Y-68716723D02*
X77214286Y-68526247D01*
X77214286Y-68526247D02*
X77214286Y-68383390D01*
X77214286Y-68383390D02*
X77261905Y-68192914D01*
X77261905Y-68192914D02*
X77309524Y-68097676D01*
X77309524Y-68097676D02*
X77404762Y-68002438D01*
X77404762Y-68002438D02*
X77547619Y-67954819D01*
X77547619Y-67954819D02*
X77642857Y-67954819D01*
X77642857Y-67954819D02*
X77785714Y-68002438D01*
X77785714Y-68002438D02*
X77833333Y-68050057D01*
X78166667Y-67954819D02*
X78785714Y-67954819D01*
X78785714Y-67954819D02*
X78452381Y-68335771D01*
X78452381Y-68335771D02*
X78595238Y-68335771D01*
X78595238Y-68335771D02*
X78690476Y-68383390D01*
X78690476Y-68383390D02*
X78738095Y-68431009D01*
X78738095Y-68431009D02*
X78785714Y-68526247D01*
X78785714Y-68526247D02*
X78785714Y-68764342D01*
X78785714Y-68764342D02*
X78738095Y-68859580D01*
X78738095Y-68859580D02*
X78690476Y-68907200D01*
X78690476Y-68907200D02*
X78595238Y-68954819D01*
X78595238Y-68954819D02*
X78309524Y-68954819D01*
X78309524Y-68954819D02*
X78214286Y-68907200D01*
X78214286Y-68907200D02*
X78166667Y-68859580D01*
X90666666Y-95204819D02*
X90666666Y-95919104D01*
X90666666Y-95919104D02*
X90619047Y-96061961D01*
X90619047Y-96061961D02*
X90523809Y-96157200D01*
X90523809Y-96157200D02*
X90380952Y-96204819D01*
X90380952Y-96204819D02*
X90285714Y-96204819D01*
X91571428Y-95538152D02*
X91571428Y-96204819D01*
X91333333Y-95157200D02*
X91095238Y-95871485D01*
X91095238Y-95871485D02*
X91714285Y-95871485D01*
X71773809Y-78728628D02*
X71773809Y-79204819D01*
X71440476Y-78204819D02*
X71773809Y-78728628D01*
X71773809Y-78728628D02*
X72107142Y-78204819D01*
X72964285Y-79204819D02*
X72392857Y-79204819D01*
X72678571Y-79204819D02*
X72678571Y-78204819D01*
X72678571Y-78204819D02*
X72583333Y-78347676D01*
X72583333Y-78347676D02*
X72488095Y-78442914D01*
X72488095Y-78442914D02*
X72392857Y-78490533D01*
X75857142Y-86859580D02*
X75809523Y-86907200D01*
X75809523Y-86907200D02*
X75666666Y-86954819D01*
X75666666Y-86954819D02*
X75571428Y-86954819D01*
X75571428Y-86954819D02*
X75428571Y-86907200D01*
X75428571Y-86907200D02*
X75333333Y-86811961D01*
X75333333Y-86811961D02*
X75285714Y-86716723D01*
X75285714Y-86716723D02*
X75238095Y-86526247D01*
X75238095Y-86526247D02*
X75238095Y-86383390D01*
X75238095Y-86383390D02*
X75285714Y-86192914D01*
X75285714Y-86192914D02*
X75333333Y-86097676D01*
X75333333Y-86097676D02*
X75428571Y-86002438D01*
X75428571Y-86002438D02*
X75571428Y-85954819D01*
X75571428Y-85954819D02*
X75666666Y-85954819D01*
X75666666Y-85954819D02*
X75809523Y-86002438D01*
X75809523Y-86002438D02*
X75857142Y-86050057D01*
X76809523Y-86954819D02*
X76238095Y-86954819D01*
X76523809Y-86954819D02*
X76523809Y-85954819D01*
X76523809Y-85954819D02*
X76428571Y-86097676D01*
X76428571Y-86097676D02*
X76333333Y-86192914D01*
X76333333Y-86192914D02*
X76238095Y-86240533D01*
X77428571Y-85954819D02*
X77523809Y-85954819D01*
X77523809Y-85954819D02*
X77619047Y-86002438D01*
X77619047Y-86002438D02*
X77666666Y-86050057D01*
X77666666Y-86050057D02*
X77714285Y-86145295D01*
X77714285Y-86145295D02*
X77761904Y-86335771D01*
X77761904Y-86335771D02*
X77761904Y-86573866D01*
X77761904Y-86573866D02*
X77714285Y-86764342D01*
X77714285Y-86764342D02*
X77666666Y-86859580D01*
X77666666Y-86859580D02*
X77619047Y-86907200D01*
X77619047Y-86907200D02*
X77523809Y-86954819D01*
X77523809Y-86954819D02*
X77428571Y-86954819D01*
X77428571Y-86954819D02*
X77333333Y-86907200D01*
X77333333Y-86907200D02*
X77285714Y-86859580D01*
X77285714Y-86859580D02*
X77238095Y-86764342D01*
X77238095Y-86764342D02*
X77190476Y-86573866D01*
X77190476Y-86573866D02*
X77190476Y-86335771D01*
X77190476Y-86335771D02*
X77238095Y-86145295D01*
X77238095Y-86145295D02*
X77285714Y-86050057D01*
X77285714Y-86050057D02*
X77333333Y-86002438D01*
X77333333Y-86002438D02*
X77428571Y-85954819D01*
X91623333Y-87109580D02*
X91575714Y-87157200D01*
X91575714Y-87157200D02*
X91432857Y-87204819D01*
X91432857Y-87204819D02*
X91337619Y-87204819D01*
X91337619Y-87204819D02*
X91194762Y-87157200D01*
X91194762Y-87157200D02*
X91099524Y-87061961D01*
X91099524Y-87061961D02*
X91051905Y-86966723D01*
X91051905Y-86966723D02*
X91004286Y-86776247D01*
X91004286Y-86776247D02*
X91004286Y-86633390D01*
X91004286Y-86633390D02*
X91051905Y-86442914D01*
X91051905Y-86442914D02*
X91099524Y-86347676D01*
X91099524Y-86347676D02*
X91194762Y-86252438D01*
X91194762Y-86252438D02*
X91337619Y-86204819D01*
X91337619Y-86204819D02*
X91432857Y-86204819D01*
X91432857Y-86204819D02*
X91575714Y-86252438D01*
X91575714Y-86252438D02*
X91623333Y-86300057D01*
X92528095Y-86204819D02*
X92051905Y-86204819D01*
X92051905Y-86204819D02*
X92004286Y-86681009D01*
X92004286Y-86681009D02*
X92051905Y-86633390D01*
X92051905Y-86633390D02*
X92147143Y-86585771D01*
X92147143Y-86585771D02*
X92385238Y-86585771D01*
X92385238Y-86585771D02*
X92480476Y-86633390D01*
X92480476Y-86633390D02*
X92528095Y-86681009D01*
X92528095Y-86681009D02*
X92575714Y-86776247D01*
X92575714Y-86776247D02*
X92575714Y-87014342D01*
X92575714Y-87014342D02*
X92528095Y-87109580D01*
X92528095Y-87109580D02*
X92480476Y-87157200D01*
X92480476Y-87157200D02*
X92385238Y-87204819D01*
X92385238Y-87204819D02*
X92147143Y-87204819D01*
X92147143Y-87204819D02*
X92051905Y-87157200D01*
X92051905Y-87157200D02*
X92004286Y-87109580D01*
X103594819Y-61583333D02*
X104309104Y-61583333D01*
X104309104Y-61583333D02*
X104451961Y-61630952D01*
X104451961Y-61630952D02*
X104547200Y-61726190D01*
X104547200Y-61726190D02*
X104594819Y-61869047D01*
X104594819Y-61869047D02*
X104594819Y-61964285D01*
X103690057Y-61154761D02*
X103642438Y-61107142D01*
X103642438Y-61107142D02*
X103594819Y-61011904D01*
X103594819Y-61011904D02*
X103594819Y-60773809D01*
X103594819Y-60773809D02*
X103642438Y-60678571D01*
X103642438Y-60678571D02*
X103690057Y-60630952D01*
X103690057Y-60630952D02*
X103785295Y-60583333D01*
X103785295Y-60583333D02*
X103880533Y-60583333D01*
X103880533Y-60583333D02*
X104023390Y-60630952D01*
X104023390Y-60630952D02*
X104594819Y-61202380D01*
X104594819Y-61202380D02*
X104594819Y-60583333D01*
X105833333Y-86034819D02*
X105500000Y-85558628D01*
X105261905Y-86034819D02*
X105261905Y-85034819D01*
X105261905Y-85034819D02*
X105642857Y-85034819D01*
X105642857Y-85034819D02*
X105738095Y-85082438D01*
X105738095Y-85082438D02*
X105785714Y-85130057D01*
X105785714Y-85130057D02*
X105833333Y-85225295D01*
X105833333Y-85225295D02*
X105833333Y-85368152D01*
X105833333Y-85368152D02*
X105785714Y-85463390D01*
X105785714Y-85463390D02*
X105738095Y-85511009D01*
X105738095Y-85511009D02*
X105642857Y-85558628D01*
X105642857Y-85558628D02*
X105261905Y-85558628D01*
X106785714Y-86034819D02*
X106214286Y-86034819D01*
X106500000Y-86034819D02*
X106500000Y-85034819D01*
X106500000Y-85034819D02*
X106404762Y-85177676D01*
X106404762Y-85177676D02*
X106309524Y-85272914D01*
X106309524Y-85272914D02*
X106214286Y-85320533D01*
D11*
X78416666Y-82677190D02*
X78392857Y-82701000D01*
X78392857Y-82701000D02*
X78321428Y-82724809D01*
X78321428Y-82724809D02*
X78273809Y-82724809D01*
X78273809Y-82724809D02*
X78202381Y-82701000D01*
X78202381Y-82701000D02*
X78154762Y-82653380D01*
X78154762Y-82653380D02*
X78130952Y-82605761D01*
X78130952Y-82605761D02*
X78107143Y-82510523D01*
X78107143Y-82510523D02*
X78107143Y-82439095D01*
X78107143Y-82439095D02*
X78130952Y-82343857D01*
X78130952Y-82343857D02*
X78154762Y-82296238D01*
X78154762Y-82296238D02*
X78202381Y-82248619D01*
X78202381Y-82248619D02*
X78273809Y-82224809D01*
X78273809Y-82224809D02*
X78321428Y-82224809D01*
X78321428Y-82224809D02*
X78392857Y-82248619D01*
X78392857Y-82248619D02*
X78416666Y-82272428D01*
X78702381Y-82439095D02*
X78654762Y-82415285D01*
X78654762Y-82415285D02*
X78630952Y-82391476D01*
X78630952Y-82391476D02*
X78607143Y-82343857D01*
X78607143Y-82343857D02*
X78607143Y-82320047D01*
X78607143Y-82320047D02*
X78630952Y-82272428D01*
X78630952Y-82272428D02*
X78654762Y-82248619D01*
X78654762Y-82248619D02*
X78702381Y-82224809D01*
X78702381Y-82224809D02*
X78797619Y-82224809D01*
X78797619Y-82224809D02*
X78845238Y-82248619D01*
X78845238Y-82248619D02*
X78869047Y-82272428D01*
X78869047Y-82272428D02*
X78892857Y-82320047D01*
X78892857Y-82320047D02*
X78892857Y-82343857D01*
X78892857Y-82343857D02*
X78869047Y-82391476D01*
X78869047Y-82391476D02*
X78845238Y-82415285D01*
X78845238Y-82415285D02*
X78797619Y-82439095D01*
X78797619Y-82439095D02*
X78702381Y-82439095D01*
X78702381Y-82439095D02*
X78654762Y-82462904D01*
X78654762Y-82462904D02*
X78630952Y-82486714D01*
X78630952Y-82486714D02*
X78607143Y-82534333D01*
X78607143Y-82534333D02*
X78607143Y-82629571D01*
X78607143Y-82629571D02*
X78630952Y-82677190D01*
X78630952Y-82677190D02*
X78654762Y-82701000D01*
X78654762Y-82701000D02*
X78702381Y-82724809D01*
X78702381Y-82724809D02*
X78797619Y-82724809D01*
X78797619Y-82724809D02*
X78845238Y-82701000D01*
X78845238Y-82701000D02*
X78869047Y-82677190D01*
X78869047Y-82677190D02*
X78892857Y-82629571D01*
X78892857Y-82629571D02*
X78892857Y-82534333D01*
X78892857Y-82534333D02*
X78869047Y-82486714D01*
X78869047Y-82486714D02*
X78845238Y-82462904D01*
X78845238Y-82462904D02*
X78797619Y-82439095D01*
D10*
X75957142Y-82589580D02*
X75909523Y-82637200D01*
X75909523Y-82637200D02*
X75766666Y-82684819D01*
X75766666Y-82684819D02*
X75671428Y-82684819D01*
X75671428Y-82684819D02*
X75528571Y-82637200D01*
X75528571Y-82637200D02*
X75433333Y-82541961D01*
X75433333Y-82541961D02*
X75385714Y-82446723D01*
X75385714Y-82446723D02*
X75338095Y-82256247D01*
X75338095Y-82256247D02*
X75338095Y-82113390D01*
X75338095Y-82113390D02*
X75385714Y-81922914D01*
X75385714Y-81922914D02*
X75433333Y-81827676D01*
X75433333Y-81827676D02*
X75528571Y-81732438D01*
X75528571Y-81732438D02*
X75671428Y-81684819D01*
X75671428Y-81684819D02*
X75766666Y-81684819D01*
X75766666Y-81684819D02*
X75909523Y-81732438D01*
X75909523Y-81732438D02*
X75957142Y-81780057D01*
X76909523Y-82684819D02*
X76338095Y-82684819D01*
X76623809Y-82684819D02*
X76623809Y-81684819D01*
X76623809Y-81684819D02*
X76528571Y-81827676D01*
X76528571Y-81827676D02*
X76433333Y-81922914D01*
X76433333Y-81922914D02*
X76338095Y-81970533D01*
X77242857Y-81684819D02*
X77861904Y-81684819D01*
X77861904Y-81684819D02*
X77528571Y-82065771D01*
X77528571Y-82065771D02*
X77671428Y-82065771D01*
X77671428Y-82065771D02*
X77766666Y-82113390D01*
X77766666Y-82113390D02*
X77814285Y-82161009D01*
X77814285Y-82161009D02*
X77861904Y-82256247D01*
X77861904Y-82256247D02*
X77861904Y-82494342D01*
X77861904Y-82494342D02*
X77814285Y-82589580D01*
X77814285Y-82589580D02*
X77766666Y-82637200D01*
X77766666Y-82637200D02*
X77671428Y-82684819D01*
X77671428Y-82684819D02*
X77385714Y-82684819D01*
X77385714Y-82684819D02*
X77290476Y-82637200D01*
X77290476Y-82637200D02*
X77242857Y-82589580D01*
X80666666Y-87931009D02*
X80333333Y-87931009D01*
X80333333Y-88454819D02*
X80333333Y-87454819D01*
X80333333Y-87454819D02*
X80809523Y-87454819D01*
X81523809Y-87931009D02*
X81666666Y-87978628D01*
X81666666Y-87978628D02*
X81714285Y-88026247D01*
X81714285Y-88026247D02*
X81761904Y-88121485D01*
X81761904Y-88121485D02*
X81761904Y-88264342D01*
X81761904Y-88264342D02*
X81714285Y-88359580D01*
X81714285Y-88359580D02*
X81666666Y-88407200D01*
X81666666Y-88407200D02*
X81571428Y-88454819D01*
X81571428Y-88454819D02*
X81190476Y-88454819D01*
X81190476Y-88454819D02*
X81190476Y-87454819D01*
X81190476Y-87454819D02*
X81523809Y-87454819D01*
X81523809Y-87454819D02*
X81619047Y-87502438D01*
X81619047Y-87502438D02*
X81666666Y-87550057D01*
X81666666Y-87550057D02*
X81714285Y-87645295D01*
X81714285Y-87645295D02*
X81714285Y-87740533D01*
X81714285Y-87740533D02*
X81666666Y-87835771D01*
X81666666Y-87835771D02*
X81619047Y-87883390D01*
X81619047Y-87883390D02*
X81523809Y-87931009D01*
X81523809Y-87931009D02*
X81190476Y-87931009D01*
X82714285Y-88454819D02*
X82142857Y-88454819D01*
X82428571Y-88454819D02*
X82428571Y-87454819D01*
X82428571Y-87454819D02*
X82333333Y-87597676D01*
X82333333Y-87597676D02*
X82238095Y-87692914D01*
X82238095Y-87692914D02*
X82142857Y-87740533D01*
X96583333Y-82179580D02*
X96535714Y-82227200D01*
X96535714Y-82227200D02*
X96392857Y-82274819D01*
X96392857Y-82274819D02*
X96297619Y-82274819D01*
X96297619Y-82274819D02*
X96154762Y-82227200D01*
X96154762Y-82227200D02*
X96059524Y-82131961D01*
X96059524Y-82131961D02*
X96011905Y-82036723D01*
X96011905Y-82036723D02*
X95964286Y-81846247D01*
X95964286Y-81846247D02*
X95964286Y-81703390D01*
X95964286Y-81703390D02*
X96011905Y-81512914D01*
X96011905Y-81512914D02*
X96059524Y-81417676D01*
X96059524Y-81417676D02*
X96154762Y-81322438D01*
X96154762Y-81322438D02*
X96297619Y-81274819D01*
X96297619Y-81274819D02*
X96392857Y-81274819D01*
X96392857Y-81274819D02*
X96535714Y-81322438D01*
X96535714Y-81322438D02*
X96583333Y-81370057D01*
X97535714Y-82274819D02*
X96964286Y-82274819D01*
X97250000Y-82274819D02*
X97250000Y-81274819D01*
X97250000Y-81274819D02*
X97154762Y-81417676D01*
X97154762Y-81417676D02*
X97059524Y-81512914D01*
X97059524Y-81512914D02*
X96964286Y-81560533D01*
X88833333Y-89454819D02*
X88500000Y-88978628D01*
X88261905Y-89454819D02*
X88261905Y-88454819D01*
X88261905Y-88454819D02*
X88642857Y-88454819D01*
X88642857Y-88454819D02*
X88738095Y-88502438D01*
X88738095Y-88502438D02*
X88785714Y-88550057D01*
X88785714Y-88550057D02*
X88833333Y-88645295D01*
X88833333Y-88645295D02*
X88833333Y-88788152D01*
X88833333Y-88788152D02*
X88785714Y-88883390D01*
X88785714Y-88883390D02*
X88738095Y-88931009D01*
X88738095Y-88931009D02*
X88642857Y-88978628D01*
X88642857Y-88978628D02*
X88261905Y-88978628D01*
X89738095Y-88454819D02*
X89261905Y-88454819D01*
X89261905Y-88454819D02*
X89214286Y-88931009D01*
X89214286Y-88931009D02*
X89261905Y-88883390D01*
X89261905Y-88883390D02*
X89357143Y-88835771D01*
X89357143Y-88835771D02*
X89595238Y-88835771D01*
X89595238Y-88835771D02*
X89690476Y-88883390D01*
X89690476Y-88883390D02*
X89738095Y-88931009D01*
X89738095Y-88931009D02*
X89785714Y-89026247D01*
X89785714Y-89026247D02*
X89785714Y-89264342D01*
X89785714Y-89264342D02*
X89738095Y-89359580D01*
X89738095Y-89359580D02*
X89690476Y-89407200D01*
X89690476Y-89407200D02*
X89595238Y-89454819D01*
X89595238Y-89454819D02*
X89357143Y-89454819D01*
X89357143Y-89454819D02*
X89261905Y-89407200D01*
X89261905Y-89407200D02*
X89214286Y-89359580D01*
X71107200Y-71333332D02*
X71154819Y-71190475D01*
X71154819Y-71190475D02*
X71154819Y-70952380D01*
X71154819Y-70952380D02*
X71107200Y-70857142D01*
X71107200Y-70857142D02*
X71059580Y-70809523D01*
X71059580Y-70809523D02*
X70964342Y-70761904D01*
X70964342Y-70761904D02*
X70869104Y-70761904D01*
X70869104Y-70761904D02*
X70773866Y-70809523D01*
X70773866Y-70809523D02*
X70726247Y-70857142D01*
X70726247Y-70857142D02*
X70678628Y-70952380D01*
X70678628Y-70952380D02*
X70631009Y-71142856D01*
X70631009Y-71142856D02*
X70583390Y-71238094D01*
X70583390Y-71238094D02*
X70535771Y-71285713D01*
X70535771Y-71285713D02*
X70440533Y-71333332D01*
X70440533Y-71333332D02*
X70345295Y-71333332D01*
X70345295Y-71333332D02*
X70250057Y-71285713D01*
X70250057Y-71285713D02*
X70202438Y-71238094D01*
X70202438Y-71238094D02*
X70154819Y-71142856D01*
X70154819Y-71142856D02*
X70154819Y-70904761D01*
X70154819Y-70904761D02*
X70202438Y-70761904D01*
X70154819Y-70428570D02*
X71154819Y-70190475D01*
X71154819Y-70190475D02*
X70440533Y-69999999D01*
X70440533Y-69999999D02*
X71154819Y-69809523D01*
X71154819Y-69809523D02*
X70154819Y-69571428D01*
X71154819Y-68666666D02*
X71154819Y-69238094D01*
X71154819Y-68952380D02*
X70154819Y-68952380D01*
X70154819Y-68952380D02*
X70297676Y-69047618D01*
X70297676Y-69047618D02*
X70392914Y-69142856D01*
X70392914Y-69142856D02*
X70440533Y-69238094D01*
X77107142Y-76859580D02*
X77059523Y-76907200D01*
X77059523Y-76907200D02*
X76916666Y-76954819D01*
X76916666Y-76954819D02*
X76821428Y-76954819D01*
X76821428Y-76954819D02*
X76678571Y-76907200D01*
X76678571Y-76907200D02*
X76583333Y-76811961D01*
X76583333Y-76811961D02*
X76535714Y-76716723D01*
X76535714Y-76716723D02*
X76488095Y-76526247D01*
X76488095Y-76526247D02*
X76488095Y-76383390D01*
X76488095Y-76383390D02*
X76535714Y-76192914D01*
X76535714Y-76192914D02*
X76583333Y-76097676D01*
X76583333Y-76097676D02*
X76678571Y-76002438D01*
X76678571Y-76002438D02*
X76821428Y-75954819D01*
X76821428Y-75954819D02*
X76916666Y-75954819D01*
X76916666Y-75954819D02*
X77059523Y-76002438D01*
X77059523Y-76002438D02*
X77107142Y-76050057D01*
X78059523Y-76954819D02*
X77488095Y-76954819D01*
X77773809Y-76954819D02*
X77773809Y-75954819D01*
X77773809Y-75954819D02*
X77678571Y-76097676D01*
X77678571Y-76097676D02*
X77583333Y-76192914D01*
X77583333Y-76192914D02*
X77488095Y-76240533D01*
X78440476Y-76050057D02*
X78488095Y-76002438D01*
X78488095Y-76002438D02*
X78583333Y-75954819D01*
X78583333Y-75954819D02*
X78821428Y-75954819D01*
X78821428Y-75954819D02*
X78916666Y-76002438D01*
X78916666Y-76002438D02*
X78964285Y-76050057D01*
X78964285Y-76050057D02*
X79011904Y-76145295D01*
X79011904Y-76145295D02*
X79011904Y-76240533D01*
X79011904Y-76240533D02*
X78964285Y-76383390D01*
X78964285Y-76383390D02*
X78392857Y-76954819D01*
X78392857Y-76954819D02*
X79011904Y-76954819D01*
X85357142Y-86859580D02*
X85309523Y-86907200D01*
X85309523Y-86907200D02*
X85166666Y-86954819D01*
X85166666Y-86954819D02*
X85071428Y-86954819D01*
X85071428Y-86954819D02*
X84928571Y-86907200D01*
X84928571Y-86907200D02*
X84833333Y-86811961D01*
X84833333Y-86811961D02*
X84785714Y-86716723D01*
X84785714Y-86716723D02*
X84738095Y-86526247D01*
X84738095Y-86526247D02*
X84738095Y-86383390D01*
X84738095Y-86383390D02*
X84785714Y-86192914D01*
X84785714Y-86192914D02*
X84833333Y-86097676D01*
X84833333Y-86097676D02*
X84928571Y-86002438D01*
X84928571Y-86002438D02*
X85071428Y-85954819D01*
X85071428Y-85954819D02*
X85166666Y-85954819D01*
X85166666Y-85954819D02*
X85309523Y-86002438D01*
X85309523Y-86002438D02*
X85357142Y-86050057D01*
X86309523Y-86954819D02*
X85738095Y-86954819D01*
X86023809Y-86954819D02*
X86023809Y-85954819D01*
X86023809Y-85954819D02*
X85928571Y-86097676D01*
X85928571Y-86097676D02*
X85833333Y-86192914D01*
X85833333Y-86192914D02*
X85738095Y-86240533D01*
X87261904Y-86954819D02*
X86690476Y-86954819D01*
X86976190Y-86954819D02*
X86976190Y-85954819D01*
X86976190Y-85954819D02*
X86880952Y-86097676D01*
X86880952Y-86097676D02*
X86785714Y-86192914D01*
X86785714Y-86192914D02*
X86690476Y-86240533D01*
X81833333Y-89954819D02*
X81500000Y-89478628D01*
X81261905Y-89954819D02*
X81261905Y-88954819D01*
X81261905Y-88954819D02*
X81642857Y-88954819D01*
X81642857Y-88954819D02*
X81738095Y-89002438D01*
X81738095Y-89002438D02*
X81785714Y-89050057D01*
X81785714Y-89050057D02*
X81833333Y-89145295D01*
X81833333Y-89145295D02*
X81833333Y-89288152D01*
X81833333Y-89288152D02*
X81785714Y-89383390D01*
X81785714Y-89383390D02*
X81738095Y-89431009D01*
X81738095Y-89431009D02*
X81642857Y-89478628D01*
X81642857Y-89478628D02*
X81261905Y-89478628D01*
X82690476Y-89288152D02*
X82690476Y-89954819D01*
X82452381Y-88907200D02*
X82214286Y-89621485D01*
X82214286Y-89621485D02*
X82833333Y-89621485D01*
D12*
%TO.C,U1*%
X82562500Y-76502500D02*
X82562500Y-76952500D01*
X82562500Y-76952500D02*
X81272500Y-76952500D01*
X82562500Y-83722500D02*
X82562500Y-83272500D01*
X83012500Y-76502500D02*
X82562500Y-76502500D01*
X83012500Y-83722500D02*
X82562500Y-83722500D01*
X89332500Y-76502500D02*
X89782500Y-76502500D01*
X89332500Y-83722500D02*
X89782500Y-83722500D01*
X89782500Y-76502500D02*
X89782500Y-76952500D01*
X89782500Y-83722500D02*
X89782500Y-83272500D01*
%TO.C,C9*%
X79107836Y-84860000D02*
X78892164Y-84860000D01*
X79107836Y-84140000D02*
X78892164Y-84140000D01*
%TO.C,J3*%
X84480000Y-59670000D02*
X76800000Y-59670000D01*
X84480000Y-59670000D02*
X84480000Y-62330000D01*
X76800000Y-59670000D02*
X76800000Y-62330000D01*
X87080000Y-61000000D02*
X87080000Y-62330000D01*
X87080000Y-62330000D02*
X85750000Y-62330000D01*
X84480000Y-62330000D02*
X76800000Y-62330000D01*
%TO.C,C2*%
X100765000Y-88711252D02*
X100765000Y-88188748D01*
X102235000Y-88711252D02*
X102235000Y-88188748D01*
%TO.C,C6*%
X92840000Y-77392164D02*
X92840000Y-77607836D01*
X92120000Y-77392164D02*
X92120000Y-77607836D01*
D10*
%TO.C,J1*%
X110095000Y-82155000D02*
X111495000Y-82155000D01*
X113895000Y-82155000D02*
X114045000Y-82155000D01*
X114045000Y-82155000D02*
X114045000Y-81855000D01*
X114045000Y-81855000D02*
X114495000Y-81855000D01*
X107920000Y-79805000D02*
X108345000Y-79805000D01*
X108345000Y-79805000D02*
X108345000Y-80805000D01*
X107920000Y-79080000D02*
X107920000Y-79805000D01*
X108345000Y-76205000D02*
X108345000Y-75205000D01*
X114045000Y-74155000D02*
X114045000Y-73855000D01*
X114495000Y-74155000D02*
X114045000Y-74155000D01*
X111495000Y-73855000D02*
X110095000Y-73855000D01*
X114045000Y-73855000D02*
X113895000Y-73855000D01*
D12*
%TO.C,R2*%
X73120000Y-70153641D02*
X73120000Y-69846359D01*
X73880000Y-70153641D02*
X73880000Y-69846359D01*
%TO.C,C4*%
X79390000Y-76857836D02*
X79390000Y-76642164D01*
X80110000Y-76857836D02*
X80110000Y-76642164D01*
%TO.C,R3*%
X99630000Y-78106359D02*
X99630000Y-78413641D01*
X98870000Y-78106359D02*
X98870000Y-78413641D01*
%TO.C,D1*%
X106235000Y-87802500D02*
X104765000Y-87802500D01*
X104765000Y-87802500D02*
X104765000Y-90087500D01*
X106235000Y-90087500D02*
X106235000Y-87802500D01*
%TO.C,U2*%
X100210000Y-85050000D02*
X100210000Y-91060000D01*
X93390000Y-87300000D02*
X93390000Y-91060000D01*
X100210000Y-91060000D02*
X98950000Y-91060000D01*
X93390000Y-91060000D02*
X94650000Y-91060000D01*
%TO.C,C3*%
X80634420Y-67990000D02*
X80915580Y-67990000D01*
X80634420Y-69010000D02*
X80915580Y-69010000D01*
%TO.C,J4*%
X82270000Y-96330000D02*
X89950000Y-96330000D01*
X82270000Y-96330000D02*
X82270000Y-93670000D01*
X89950000Y-96330000D02*
X89950000Y-93670000D01*
X79670000Y-95000000D02*
X79670000Y-93670000D01*
X79670000Y-93670000D02*
X81000000Y-93670000D01*
X82270000Y-93670000D02*
X89950000Y-93670000D01*
%TO.C,Y1*%
X76750000Y-77100000D02*
X73450000Y-77100000D01*
X73450000Y-77100000D02*
X73450000Y-81100000D01*
%TO.C,C10*%
X78892164Y-86140000D02*
X79107836Y-86140000D01*
X78892164Y-86860000D02*
X79107836Y-86860000D01*
%TO.C,C5*%
X89877836Y-87110000D02*
X89662164Y-87110000D01*
X89877836Y-86390000D02*
X89662164Y-86390000D01*
%TO.C,J2*%
X100100000Y-59920000D02*
X92420000Y-59920000D01*
X100100000Y-59920000D02*
X100100000Y-62580000D01*
X92420000Y-59920000D02*
X92420000Y-62580000D01*
X102700000Y-61250000D02*
X102700000Y-62580000D01*
X102700000Y-62580000D02*
X101370000Y-62580000D01*
X100100000Y-62580000D02*
X92420000Y-62580000D01*
%TO.C,R1*%
X105846359Y-86370000D02*
X106153641Y-86370000D01*
X105846359Y-87130000D02*
X106153641Y-87130000D01*
%TO.C,C8*%
X79390000Y-81837836D02*
X79390000Y-81622164D01*
X80110000Y-81837836D02*
X80110000Y-81622164D01*
%TO.C,C13*%
X77240000Y-80337836D02*
X77240000Y-80122164D01*
X77960000Y-80337836D02*
X77960000Y-80122164D01*
%TO.C,FB1*%
X80702500Y-85662779D02*
X80702500Y-85337221D01*
X81722500Y-85662779D02*
X81722500Y-85337221D01*
%TO.C,C1*%
X96488748Y-82765000D02*
X97011252Y-82765000D01*
X96488748Y-84235000D02*
X97011252Y-84235000D01*
%TO.C,R5*%
X86856359Y-88620000D02*
X87163641Y-88620000D01*
X86856359Y-89380000D02*
X87163641Y-89380000D01*
%TO.C,SW1*%
X67570000Y-66550000D02*
X66780000Y-66550000D01*
X65770000Y-67150000D02*
X65770000Y-72850000D01*
X68620000Y-68400000D02*
X68620000Y-70100000D01*
X68620000Y-71400000D02*
X68620000Y-71600000D01*
X66780000Y-73450000D02*
X67570000Y-73450000D01*
%TO.C,C12*%
X78140000Y-78337836D02*
X78140000Y-78122164D01*
X78860000Y-78337836D02*
X78860000Y-78122164D01*
%TO.C,C11*%
X83412164Y-86140000D02*
X83627836Y-86140000D01*
X83412164Y-86860000D02*
X83627836Y-86860000D01*
%TO.C,R4*%
X83846359Y-88620000D02*
X84153641Y-88620000D01*
X83846359Y-89380000D02*
X84153641Y-89380000D01*
%TD*%
M02*
