%TF.GenerationSoftware,KiCad,Pcbnew,7.0.7*%
%TF.CreationDate,2023-09-18T20:54:04+05:30*%
%TF.ProjectId,STM32,53544d33-322e-46b6-9963-61645f706362,rev?*%
%TF.SameCoordinates,Original*%
%TF.FileFunction,Copper,L2,Bot*%
%TF.FilePolarity,Positive*%
%FSLAX46Y46*%
G04 Gerber Fmt 4.6, Leading zero omitted, Abs format (unit mm)*
G04 Created by KiCad (PCBNEW 7.0.7) date 2023-09-18 20:54:04*
%MOMM*%
%LPD*%
G01*
G04 APERTURE LIST*
%TA.AperFunction,ComponentPad*%
%ADD10R,1.700000X1.700000*%
%TD*%
%TA.AperFunction,ComponentPad*%
%ADD11O,1.700000X1.700000*%
%TD*%
%TA.AperFunction,ComponentPad*%
%ADD12O,1.800000X1.150000*%
%TD*%
%TA.AperFunction,ComponentPad*%
%ADD13O,2.000000X1.450000*%
%TD*%
%TA.AperFunction,ViaPad*%
%ADD14C,0.700000*%
%TD*%
%TA.AperFunction,Conductor*%
%ADD15C,0.300000*%
%TD*%
%TA.AperFunction,Conductor*%
%ADD16C,0.500000*%
%TD*%
G04 APERTURE END LIST*
D10*
%TO.P,J3,1,Pin_1*%
%TO.N,+3.3V*%
X85750000Y-61000000D03*
D11*
%TO.P,J3,2,Pin_2*%
%TO.N,/USART1_TX*%
X83210000Y-61000000D03*
%TO.P,J3,3,Pin_3*%
%TO.N,/USART1_RX*%
X80670000Y-61000000D03*
%TO.P,J3,4,Pin_4*%
%TO.N,GND*%
X78130000Y-61000000D03*
%TD*%
D12*
%TO.P,J1,6,Shield*%
%TO.N,unconnected-(J1-Shield-Pad6)*%
X112695000Y-81880000D03*
D13*
X108895000Y-81730000D03*
X108895000Y-74280000D03*
D12*
X112695000Y-74130000D03*
%TD*%
D10*
%TO.P,J4,1,Pin_1*%
%TO.N,+3.3V*%
X81000000Y-95000000D03*
D11*
%TO.P,J4,2,Pin_2*%
%TO.N,/I2C2_SCL*%
X83540000Y-95000000D03*
%TO.P,J4,3,Pin_3*%
%TO.N,/I2C2_SDA*%
X86080000Y-95000000D03*
%TO.P,J4,4,Pin_4*%
%TO.N,GND*%
X88620000Y-95000000D03*
%TD*%
D10*
%TO.P,J2,1,Pin_1*%
%TO.N,+3.3V*%
X101370000Y-61250000D03*
D11*
%TO.P,J2,2,Pin_2*%
%TO.N,/SWDIO*%
X98830000Y-61250000D03*
%TO.P,J2,3,Pin_3*%
%TO.N,/SWCLK*%
X96290000Y-61250000D03*
%TO.P,J2,4,Pin_4*%
%TO.N,GND*%
X93750000Y-61250000D03*
%TD*%
D14*
%TO.N,+3.3V*%
X83500000Y-90250000D03*
X85250000Y-90250000D03*
X88250000Y-88000000D03*
X86820500Y-88000000D03*
%TO.N,GND*%
X78500000Y-79750000D03*
X78250000Y-63250000D03*
X77750000Y-77750000D03*
X98500000Y-87500000D03*
X79500000Y-87500000D03*
X99000000Y-84000000D03*
X93500000Y-64000000D03*
X78500000Y-85250000D03*
X88500000Y-82750000D03*
X99500000Y-87500000D03*
X107750000Y-86750000D03*
X81500000Y-70000000D03*
X83750000Y-81000000D03*
X80750000Y-76250000D03*
X83500000Y-74250000D03*
X84000000Y-87250000D03*
X106750000Y-76750000D03*
X99000000Y-83000000D03*
X88750000Y-92750000D03*
X70750000Y-67750000D03*
X79000000Y-81409500D03*
X102750000Y-87500000D03*
%TD*%
D15*
%TO.N,+3.3V*%
X85250000Y-90250000D02*
X83500000Y-90250000D01*
X88250000Y-88000000D02*
X86820500Y-88000000D01*
D16*
%TO.N,GND*%
X78130000Y-63130000D02*
X78250000Y-63250000D01*
X78130000Y-61000000D02*
X78130000Y-63130000D01*
X93750000Y-63750000D02*
X93500000Y-64000000D01*
X93750000Y-61250000D02*
X93750000Y-63750000D01*
%TD*%
%TA.AperFunction,Conductor*%
%TO.N,GND*%
G36*
X110217318Y-57509488D02*
G01*
X110415934Y-57518160D01*
X110420865Y-57518574D01*
X110636792Y-57545489D01*
X110832940Y-57571313D01*
X110837265Y-57571883D01*
X110841894Y-57572671D01*
X111054183Y-57617183D01*
X111252534Y-57661157D01*
X111256778Y-57662257D01*
X111464544Y-57724112D01*
X111658658Y-57785317D01*
X111662530Y-57786680D01*
X111864457Y-57865472D01*
X112052817Y-57943494D01*
X112056252Y-57945045D01*
X112131343Y-57981755D01*
X112250992Y-58040249D01*
X112388629Y-58111897D01*
X112432009Y-58134479D01*
X112435107Y-58136207D01*
X112621382Y-58247202D01*
X112793662Y-58356957D01*
X112796377Y-58358789D01*
X112972918Y-58484837D01*
X113135098Y-58609282D01*
X113137426Y-58611159D01*
X113303055Y-58751439D01*
X113454895Y-58890574D01*
X113609424Y-59045103D01*
X113748555Y-59196938D01*
X113763008Y-59214003D01*
X113888839Y-59362572D01*
X113890716Y-59364900D01*
X114015162Y-59527081D01*
X114141209Y-59703621D01*
X114143040Y-59706335D01*
X114252797Y-59878617D01*
X114363791Y-60064891D01*
X114365525Y-60068000D01*
X114459750Y-60249007D01*
X114523262Y-60378920D01*
X114554953Y-60443744D01*
X114556524Y-60447229D01*
X114634536Y-60635566D01*
X114713309Y-60837445D01*
X114714681Y-60841340D01*
X114775899Y-61035496D01*
X114837735Y-61243200D01*
X114838843Y-61247472D01*
X114882818Y-61445826D01*
X114927326Y-61658101D01*
X114928115Y-61662733D01*
X114954524Y-61863319D01*
X114981422Y-62079114D01*
X114981839Y-62084080D01*
X114990513Y-62282728D01*
X114999500Y-62500000D01*
X114999500Y-92500000D01*
X114990513Y-92717271D01*
X114981839Y-92915918D01*
X114981422Y-92920884D01*
X114954524Y-93136680D01*
X114928115Y-93337265D01*
X114927326Y-93341897D01*
X114882818Y-93554173D01*
X114838843Y-93752526D01*
X114837735Y-93756798D01*
X114775899Y-93964503D01*
X114714681Y-94158658D01*
X114713309Y-94162552D01*
X114634536Y-94364433D01*
X114556524Y-94552769D01*
X114554944Y-94556274D01*
X114459750Y-94750992D01*
X114365525Y-94931998D01*
X114363791Y-94935107D01*
X114252797Y-95121382D01*
X114143040Y-95293663D01*
X114141209Y-95296377D01*
X114015162Y-95472918D01*
X113890716Y-95635099D01*
X113888839Y-95637426D01*
X113748557Y-95803059D01*
X113609426Y-95954895D01*
X113454895Y-96109426D01*
X113303059Y-96248557D01*
X113137426Y-96388839D01*
X113135099Y-96390716D01*
X112972918Y-96515162D01*
X112796377Y-96641209D01*
X112793663Y-96643040D01*
X112621382Y-96752797D01*
X112435107Y-96863791D01*
X112431998Y-96865525D01*
X112250992Y-96959750D01*
X112056274Y-97054944D01*
X112052769Y-97056524D01*
X111864433Y-97134536D01*
X111662552Y-97213309D01*
X111658658Y-97214681D01*
X111464503Y-97275899D01*
X111256798Y-97337735D01*
X111252526Y-97338843D01*
X111054173Y-97382818D01*
X110841897Y-97427326D01*
X110837265Y-97428115D01*
X110636680Y-97454524D01*
X110420884Y-97481422D01*
X110415918Y-97481839D01*
X110217271Y-97490513D01*
X110000000Y-97499500D01*
X70000000Y-97499500D01*
X69782728Y-97490513D01*
X69584080Y-97481839D01*
X69579114Y-97481422D01*
X69363319Y-97454524D01*
X69162733Y-97428115D01*
X69158101Y-97427326D01*
X68945826Y-97382818D01*
X68747472Y-97338843D01*
X68743200Y-97337735D01*
X68535496Y-97275899D01*
X68341340Y-97214681D01*
X68337445Y-97213309D01*
X68135566Y-97134536D01*
X67947229Y-97056524D01*
X67943744Y-97054953D01*
X67884503Y-97025992D01*
X67749007Y-96959750D01*
X67568000Y-96865525D01*
X67564891Y-96863791D01*
X67378617Y-96752797D01*
X67206335Y-96643040D01*
X67203621Y-96641209D01*
X67027081Y-96515162D01*
X66864900Y-96390716D01*
X66862572Y-96388839D01*
X66696940Y-96248557D01*
X66545103Y-96109424D01*
X66390574Y-95954895D01*
X66335559Y-95894856D01*
X79849500Y-95894856D01*
X79849502Y-95894882D01*
X79852413Y-95919987D01*
X79852415Y-95919991D01*
X79897793Y-96022764D01*
X79897794Y-96022765D01*
X79977235Y-96102206D01*
X80080009Y-96147585D01*
X80105135Y-96150500D01*
X81894864Y-96150499D01*
X81894879Y-96150497D01*
X81894882Y-96150497D01*
X81919987Y-96147586D01*
X81919988Y-96147585D01*
X81919991Y-96147585D01*
X82022765Y-96102206D01*
X82102206Y-96022765D01*
X82147585Y-95919991D01*
X82150500Y-95894865D01*
X82150499Y-95156046D01*
X82170183Y-95089009D01*
X82222987Y-95043254D01*
X82292146Y-95033310D01*
X82355702Y-95062335D01*
X82393476Y-95121113D01*
X82397970Y-95144606D01*
X82404244Y-95212310D01*
X82462596Y-95417392D01*
X82462596Y-95417394D01*
X82557632Y-95608253D01*
X82686127Y-95778406D01*
X82686128Y-95778407D01*
X82843698Y-95922052D01*
X83024981Y-96034298D01*
X83223802Y-96111321D01*
X83433390Y-96150500D01*
X83433392Y-96150500D01*
X83646608Y-96150500D01*
X83646610Y-96150500D01*
X83856198Y-96111321D01*
X84055019Y-96034298D01*
X84236302Y-95922052D01*
X84393872Y-95778407D01*
X84522366Y-95608255D01*
X84541038Y-95570756D01*
X84617403Y-95417394D01*
X84617403Y-95417393D01*
X84617405Y-95417389D01*
X84675756Y-95212310D01*
X84686529Y-95096047D01*
X84712315Y-95031111D01*
X84754622Y-95000804D01*
X84863130Y-95000804D01*
X84899503Y-95021668D01*
X84931693Y-95083681D01*
X84933471Y-95096048D01*
X84944244Y-95212310D01*
X85002596Y-95417392D01*
X85002596Y-95417394D01*
X85097632Y-95608253D01*
X85226127Y-95778406D01*
X85226128Y-95778407D01*
X85383698Y-95922052D01*
X85564981Y-96034298D01*
X85763802Y-96111321D01*
X85973390Y-96150500D01*
X85973392Y-96150500D01*
X86186608Y-96150500D01*
X86186610Y-96150500D01*
X86396198Y-96111321D01*
X86595019Y-96034298D01*
X86776302Y-95922052D01*
X86933872Y-95778407D01*
X87062366Y-95608255D01*
X87129325Y-95473781D01*
X87176825Y-95422548D01*
X87244488Y-95405126D01*
X87310828Y-95427051D01*
X87352705Y-95476651D01*
X87446399Y-95677578D01*
X87581894Y-95871082D01*
X87748917Y-96038105D01*
X87942421Y-96173600D01*
X88156507Y-96273429D01*
X88156516Y-96273433D01*
X88370000Y-96330634D01*
X88370000Y-95612301D01*
X88389685Y-95545262D01*
X88442489Y-95499507D01*
X88511647Y-95489563D01*
X88584237Y-95500000D01*
X88584238Y-95500000D01*
X88655762Y-95500000D01*
X88655763Y-95500000D01*
X88728353Y-95489563D01*
X88797512Y-95499507D01*
X88850315Y-95545262D01*
X88870000Y-95612301D01*
X88870000Y-96330633D01*
X89083483Y-96273433D01*
X89083492Y-96273429D01*
X89297578Y-96173600D01*
X89491082Y-96038105D01*
X89658105Y-95871082D01*
X89793600Y-95677578D01*
X89893429Y-95463492D01*
X89893432Y-95463486D01*
X89950636Y-95250000D01*
X89233347Y-95250000D01*
X89166308Y-95230315D01*
X89120553Y-95177511D01*
X89110609Y-95108353D01*
X89114369Y-95091067D01*
X89120000Y-95071888D01*
X89120000Y-94928111D01*
X89114369Y-94908933D01*
X89114370Y-94839064D01*
X89152145Y-94780286D01*
X89215701Y-94751262D01*
X89233347Y-94750000D01*
X89950636Y-94750000D01*
X89950635Y-94749999D01*
X89893432Y-94536513D01*
X89893429Y-94536507D01*
X89793600Y-94322422D01*
X89793599Y-94322420D01*
X89658113Y-94128926D01*
X89658108Y-94128920D01*
X89491082Y-93961894D01*
X89297578Y-93826399D01*
X89083492Y-93726570D01*
X89083486Y-93726567D01*
X88870000Y-93669364D01*
X88870000Y-94387698D01*
X88850315Y-94454737D01*
X88797511Y-94500492D01*
X88728355Y-94510436D01*
X88655766Y-94500000D01*
X88655763Y-94500000D01*
X88584237Y-94500000D01*
X88584233Y-94500000D01*
X88511645Y-94510436D01*
X88442487Y-94500492D01*
X88389684Y-94454736D01*
X88370000Y-94387698D01*
X88370000Y-93669364D01*
X88369999Y-93669364D01*
X88156513Y-93726567D01*
X88156507Y-93726570D01*
X87942422Y-93826399D01*
X87942420Y-93826400D01*
X87748926Y-93961886D01*
X87748920Y-93961891D01*
X87581891Y-94128920D01*
X87581886Y-94128926D01*
X87446400Y-94322420D01*
X87446399Y-94322422D01*
X87352705Y-94523348D01*
X87306532Y-94575787D01*
X87239339Y-94594939D01*
X87172457Y-94574723D01*
X87129324Y-94526216D01*
X87062366Y-94391745D01*
X87041726Y-94364414D01*
X86933872Y-94221593D01*
X86776302Y-94077948D01*
X86595019Y-93965702D01*
X86595017Y-93965701D01*
X86495608Y-93927190D01*
X86396198Y-93888679D01*
X86186610Y-93849500D01*
X85973390Y-93849500D01*
X85763802Y-93888679D01*
X85763799Y-93888679D01*
X85763799Y-93888680D01*
X85564982Y-93965701D01*
X85564980Y-93965702D01*
X85383699Y-94077947D01*
X85226127Y-94221593D01*
X85097632Y-94391746D01*
X85002596Y-94582605D01*
X85002596Y-94582607D01*
X84944244Y-94787689D01*
X84933471Y-94903951D01*
X84907685Y-94968888D01*
X84863130Y-95000804D01*
X84754622Y-95000804D01*
X84756869Y-94999194D01*
X84720497Y-94978331D01*
X84688307Y-94916318D01*
X84686529Y-94903951D01*
X84683175Y-94867759D01*
X84675756Y-94787690D01*
X84617405Y-94582611D01*
X84617403Y-94582606D01*
X84617403Y-94582605D01*
X84522367Y-94391746D01*
X84393872Y-94221593D01*
X84236302Y-94077948D01*
X84055019Y-93965702D01*
X84055017Y-93965701D01*
X83955608Y-93927190D01*
X83856198Y-93888679D01*
X83646610Y-93849500D01*
X83433390Y-93849500D01*
X83223802Y-93888679D01*
X83223799Y-93888679D01*
X83223799Y-93888680D01*
X83024982Y-93965701D01*
X83024980Y-93965702D01*
X82843699Y-94077947D01*
X82686127Y-94221593D01*
X82557632Y-94391746D01*
X82462596Y-94582605D01*
X82462596Y-94582607D01*
X82404244Y-94787689D01*
X82397970Y-94855394D01*
X82372183Y-94920331D01*
X82315383Y-94961018D01*
X82245602Y-94964538D01*
X82184995Y-94929772D01*
X82152806Y-94867759D01*
X82150499Y-94843952D01*
X82150499Y-94105143D01*
X82150499Y-94105136D01*
X82150497Y-94105117D01*
X82147586Y-94080012D01*
X82147585Y-94080010D01*
X82147585Y-94080009D01*
X82102206Y-93977235D01*
X82022765Y-93897794D01*
X82002124Y-93888680D01*
X81919992Y-93852415D01*
X81894865Y-93849500D01*
X80105143Y-93849500D01*
X80105117Y-93849502D01*
X80080012Y-93852413D01*
X80080008Y-93852415D01*
X79977235Y-93897793D01*
X79897794Y-93977234D01*
X79852415Y-94080006D01*
X79852415Y-94080008D01*
X79849500Y-94105131D01*
X79849500Y-95894856D01*
X66335559Y-95894856D01*
X66251439Y-95803055D01*
X66111159Y-95637426D01*
X66109282Y-95635098D01*
X65984837Y-95472918D01*
X65858789Y-95296377D01*
X65856957Y-95293662D01*
X65747202Y-95121382D01*
X65636207Y-94935107D01*
X65634473Y-94931998D01*
X65633314Y-94929772D01*
X65588640Y-94843952D01*
X65540249Y-94750992D01*
X65454595Y-94575787D01*
X65445045Y-94556252D01*
X65443494Y-94552817D01*
X65365463Y-94364433D01*
X65286680Y-94162530D01*
X65285317Y-94158658D01*
X65259869Y-94077947D01*
X65224100Y-93964503D01*
X65162257Y-93756778D01*
X65161155Y-93752526D01*
X65142718Y-93669364D01*
X65117175Y-93554145D01*
X65113893Y-93538494D01*
X65072671Y-93341894D01*
X65071883Y-93337265D01*
X65071313Y-93332940D01*
X65045489Y-93136792D01*
X65018574Y-92920865D01*
X65018160Y-92915934D01*
X65009486Y-92717271D01*
X65000500Y-92500000D01*
X68644341Y-92500000D01*
X68664936Y-92735403D01*
X68664938Y-92735413D01*
X68726094Y-92963655D01*
X68726096Y-92963659D01*
X68726097Y-92963663D01*
X68776031Y-93070746D01*
X68825964Y-93177828D01*
X68825965Y-93177830D01*
X68961505Y-93371402D01*
X69128597Y-93538494D01*
X69322169Y-93674034D01*
X69322171Y-93674035D01*
X69536337Y-93773903D01*
X69764592Y-93835063D01*
X69941034Y-93850500D01*
X70058966Y-93850500D01*
X70235408Y-93835063D01*
X70463663Y-93773903D01*
X70677829Y-93674035D01*
X70871401Y-93538495D01*
X71038495Y-93371401D01*
X71174035Y-93177830D01*
X71273903Y-92963663D01*
X71335063Y-92735408D01*
X71355659Y-92500000D01*
X108644341Y-92500000D01*
X108664936Y-92735403D01*
X108664938Y-92735413D01*
X108726094Y-92963655D01*
X108726096Y-92963659D01*
X108726097Y-92963663D01*
X108776031Y-93070745D01*
X108825964Y-93177828D01*
X108825965Y-93177830D01*
X108961505Y-93371402D01*
X109128597Y-93538494D01*
X109322169Y-93674034D01*
X109322171Y-93674035D01*
X109536337Y-93773903D01*
X109764592Y-93835063D01*
X109941034Y-93850500D01*
X110058966Y-93850500D01*
X110235408Y-93835063D01*
X110463663Y-93773903D01*
X110677829Y-93674035D01*
X110871401Y-93538495D01*
X111038495Y-93371401D01*
X111174035Y-93177830D01*
X111273903Y-92963663D01*
X111335063Y-92735408D01*
X111355659Y-92500000D01*
X111335063Y-92264592D01*
X111273903Y-92036337D01*
X111174035Y-91822171D01*
X111174034Y-91822169D01*
X111038494Y-91628597D01*
X110871402Y-91461505D01*
X110677830Y-91325965D01*
X110677828Y-91325964D01*
X110570746Y-91276030D01*
X110463663Y-91226097D01*
X110463659Y-91226096D01*
X110463655Y-91226094D01*
X110235413Y-91164938D01*
X110235403Y-91164936D01*
X110058966Y-91149500D01*
X109941034Y-91149500D01*
X109764596Y-91164936D01*
X109764586Y-91164938D01*
X109536344Y-91226094D01*
X109536335Y-91226098D01*
X109322171Y-91325964D01*
X109322169Y-91325965D01*
X109128597Y-91461505D01*
X108961506Y-91628597D01*
X108961501Y-91628604D01*
X108825967Y-91822165D01*
X108825965Y-91822169D01*
X108726098Y-92036335D01*
X108726094Y-92036344D01*
X108664938Y-92264586D01*
X108664936Y-92264596D01*
X108644341Y-92499999D01*
X108644341Y-92500000D01*
X71355659Y-92500000D01*
X71335063Y-92264592D01*
X71273903Y-92036337D01*
X71174035Y-91822171D01*
X71174034Y-91822169D01*
X71038494Y-91628597D01*
X70871402Y-91461505D01*
X70677830Y-91325965D01*
X70677828Y-91325964D01*
X70570745Y-91276030D01*
X70463663Y-91226097D01*
X70463659Y-91226096D01*
X70463655Y-91226094D01*
X70235413Y-91164938D01*
X70235403Y-91164936D01*
X70058966Y-91149500D01*
X69941034Y-91149500D01*
X69764596Y-91164936D01*
X69764586Y-91164938D01*
X69536344Y-91226094D01*
X69536335Y-91226098D01*
X69322171Y-91325964D01*
X69322169Y-91325965D01*
X69128597Y-91461505D01*
X68961506Y-91628597D01*
X68961501Y-91628604D01*
X68825967Y-91822165D01*
X68825965Y-91822169D01*
X68726098Y-92036335D01*
X68726094Y-92036344D01*
X68664938Y-92264586D01*
X68664936Y-92264596D01*
X68644341Y-92499999D01*
X68644341Y-92500000D01*
X65000500Y-92500000D01*
X65000500Y-92499500D01*
X65000500Y-90250000D01*
X82844722Y-90250000D01*
X82863762Y-90406818D01*
X82919779Y-90554523D01*
X82919780Y-90554523D01*
X83009517Y-90684530D01*
X83127760Y-90789283D01*
X83127762Y-90789284D01*
X83267634Y-90862696D01*
X83421014Y-90900500D01*
X83421015Y-90900500D01*
X83578985Y-90900500D01*
X83732365Y-90862696D01*
X83732364Y-90862696D01*
X83872240Y-90789283D01*
X83937256Y-90731683D01*
X84000490Y-90701963D01*
X84019483Y-90700500D01*
X84730517Y-90700500D01*
X84797556Y-90720185D01*
X84812741Y-90731682D01*
X84877760Y-90789283D01*
X84877762Y-90789284D01*
X85017634Y-90862696D01*
X85171014Y-90900500D01*
X85171015Y-90900500D01*
X85328985Y-90900500D01*
X85482365Y-90862696D01*
X85482364Y-90862695D01*
X85622240Y-90789283D01*
X85740483Y-90684530D01*
X85830220Y-90554523D01*
X85886237Y-90406818D01*
X85905278Y-90250000D01*
X85886237Y-90093182D01*
X85830220Y-89945477D01*
X85740483Y-89815470D01*
X85622240Y-89710717D01*
X85622238Y-89710716D01*
X85622237Y-89710715D01*
X85482365Y-89637303D01*
X85328986Y-89599500D01*
X85328985Y-89599500D01*
X85171015Y-89599500D01*
X85171014Y-89599500D01*
X85017634Y-89637303D01*
X84877762Y-89710715D01*
X84812744Y-89768316D01*
X84749510Y-89798037D01*
X84730517Y-89799500D01*
X84019483Y-89799500D01*
X83952444Y-89779815D01*
X83937256Y-89768316D01*
X83872240Y-89710717D01*
X83872238Y-89710716D01*
X83872237Y-89710715D01*
X83732365Y-89637303D01*
X83578986Y-89599500D01*
X83578985Y-89599500D01*
X83421015Y-89599500D01*
X83421014Y-89599500D01*
X83267634Y-89637303D01*
X83127762Y-89710715D01*
X83009516Y-89815471D01*
X82919781Y-89945475D01*
X82919780Y-89945476D01*
X82863762Y-90093181D01*
X82844722Y-90249999D01*
X82844722Y-90250000D01*
X65000500Y-90250000D01*
X65000500Y-88000000D01*
X86165222Y-88000000D01*
X86184262Y-88156818D01*
X86240279Y-88304522D01*
X86240280Y-88304523D01*
X86330017Y-88434530D01*
X86448260Y-88539283D01*
X86448262Y-88539284D01*
X86588134Y-88612696D01*
X86741514Y-88650500D01*
X86741515Y-88650500D01*
X86899485Y-88650500D01*
X87052865Y-88612696D01*
X87052865Y-88612695D01*
X87192740Y-88539283D01*
X87257756Y-88481683D01*
X87320990Y-88451963D01*
X87339983Y-88450500D01*
X87730517Y-88450500D01*
X87797556Y-88470185D01*
X87812741Y-88481682D01*
X87877760Y-88539283D01*
X87877762Y-88539284D01*
X88017634Y-88612696D01*
X88171014Y-88650500D01*
X88171015Y-88650500D01*
X88328985Y-88650500D01*
X88482365Y-88612696D01*
X88482364Y-88612695D01*
X88622240Y-88539283D01*
X88740483Y-88434530D01*
X88830220Y-88304523D01*
X88886237Y-88156818D01*
X88905278Y-88000000D01*
X88886237Y-87843182D01*
X88830220Y-87695477D01*
X88740483Y-87565470D01*
X88622240Y-87460717D01*
X88622238Y-87460716D01*
X88622237Y-87460715D01*
X88482365Y-87387303D01*
X88328986Y-87349500D01*
X88328985Y-87349500D01*
X88171015Y-87349500D01*
X88171014Y-87349500D01*
X88017634Y-87387303D01*
X87877762Y-87460715D01*
X87812744Y-87518316D01*
X87749510Y-87548037D01*
X87730517Y-87549500D01*
X87339983Y-87549500D01*
X87272944Y-87529815D01*
X87257756Y-87518316D01*
X87192740Y-87460717D01*
X87192738Y-87460716D01*
X87192737Y-87460715D01*
X87052865Y-87387303D01*
X86899486Y-87349500D01*
X86899485Y-87349500D01*
X86741515Y-87349500D01*
X86741514Y-87349500D01*
X86588134Y-87387303D01*
X86448262Y-87460715D01*
X86330016Y-87565471D01*
X86240281Y-87695475D01*
X86240280Y-87695476D01*
X86184262Y-87843181D01*
X86165222Y-87999999D01*
X86165222Y-88000000D01*
X65000500Y-88000000D01*
X65000500Y-81730000D01*
X107589538Y-81730000D01*
X107609337Y-81931031D01*
X107667978Y-82124345D01*
X107763198Y-82302488D01*
X107763203Y-82302495D01*
X107891352Y-82458647D01*
X108000016Y-82547824D01*
X108047506Y-82586798D01*
X108047509Y-82586799D01*
X108047511Y-82586801D01*
X108225654Y-82682021D01*
X108225656Y-82682021D01*
X108225659Y-82682023D01*
X108418967Y-82740662D01*
X108569620Y-82755500D01*
X108569623Y-82755500D01*
X109220377Y-82755500D01*
X109220380Y-82755500D01*
X109371033Y-82740662D01*
X109564341Y-82682023D01*
X109742494Y-82586798D01*
X109898647Y-82458647D01*
X110026798Y-82302494D01*
X110122023Y-82124341D01*
X110180662Y-81931033D01*
X110190384Y-81832324D01*
X111490630Y-81832324D01*
X111500939Y-82022475D01*
X111529223Y-82124345D01*
X111551887Y-82205969D01*
X111551888Y-82205972D01*
X111641087Y-82374217D01*
X111641088Y-82374220D01*
X111764368Y-82519356D01*
X111764369Y-82519357D01*
X111915971Y-82634602D01*
X111915972Y-82634602D01*
X111915973Y-82634603D01*
X111915974Y-82634604D01*
X112018466Y-82682021D01*
X112088803Y-82714562D01*
X112088804Y-82714562D01*
X112088806Y-82714563D01*
X112145227Y-82726982D01*
X112274784Y-82755500D01*
X112274785Y-82755500D01*
X113067459Y-82755500D01*
X113067465Y-82755500D01*
X113209316Y-82740073D01*
X113389780Y-82679267D01*
X113552954Y-82581089D01*
X113691207Y-82450129D01*
X113798075Y-82292510D01*
X113798077Y-82292506D01*
X113868561Y-82115606D01*
X113868562Y-82115602D01*
X113899370Y-81927678D01*
X113889061Y-81737525D01*
X113838114Y-81554033D01*
X113748914Y-81385784D01*
X113748911Y-81385781D01*
X113748911Y-81385779D01*
X113625631Y-81240643D01*
X113565962Y-81195284D01*
X113474029Y-81125398D01*
X113474028Y-81125397D01*
X113474026Y-81125396D01*
X113474025Y-81125395D01*
X113301193Y-81045436D01*
X113115216Y-81004500D01*
X112322535Y-81004500D01*
X112322533Y-81004500D01*
X112180683Y-81019927D01*
X112000217Y-81080734D01*
X111837048Y-81178909D01*
X111698791Y-81309872D01*
X111591922Y-81467493D01*
X111521438Y-81644393D01*
X111490630Y-81832324D01*
X110190384Y-81832324D01*
X110200462Y-81730000D01*
X110180662Y-81528967D01*
X110122023Y-81335659D01*
X110122022Y-81335657D01*
X110119700Y-81330051D01*
X110112234Y-81260581D01*
X110143511Y-81198103D01*
X110190300Y-81166657D01*
X110195218Y-81164791D01*
X110195225Y-81164790D01*
X110229707Y-81146691D01*
X110236507Y-81143630D01*
X110272930Y-81129818D01*
X110304981Y-81107693D01*
X110311379Y-81103825D01*
X110345852Y-81085734D01*
X110375002Y-81059908D01*
X110380871Y-81055310D01*
X110412929Y-81033183D01*
X110438748Y-81004037D01*
X110444037Y-80998748D01*
X110473183Y-80972929D01*
X110495310Y-80940871D01*
X110499908Y-80935002D01*
X110525734Y-80905852D01*
X110543825Y-80871379D01*
X110547693Y-80864981D01*
X110569818Y-80832930D01*
X110583630Y-80796507D01*
X110586691Y-80789707D01*
X110604790Y-80755225D01*
X110614106Y-80717427D01*
X110616335Y-80710271D01*
X110630140Y-80673872D01*
X110634834Y-80635206D01*
X110636177Y-80627875D01*
X110645500Y-80590056D01*
X110645500Y-80551126D01*
X110645952Y-80543646D01*
X110650645Y-80505000D01*
X110645951Y-80466347D01*
X110645500Y-80458872D01*
X110645500Y-80419943D01*
X110636183Y-80382147D01*
X110634832Y-80374773D01*
X110630140Y-80336130D01*
X110630140Y-80336128D01*
X110616329Y-80299712D01*
X110614110Y-80292590D01*
X110604790Y-80254775D01*
X110586687Y-80220283D01*
X110583627Y-80213484D01*
X110569818Y-80177070D01*
X110547694Y-80145018D01*
X110543823Y-80138614D01*
X110525736Y-80104151D01*
X110525732Y-80104145D01*
X110511150Y-80087685D01*
X110499916Y-80075005D01*
X110495299Y-80069111D01*
X110473185Y-80037073D01*
X110473183Y-80037071D01*
X110444037Y-80011250D01*
X110438743Y-80005955D01*
X110412933Y-79976821D01*
X110412930Y-79976819D01*
X110412929Y-79976817D01*
X110412925Y-79976814D01*
X110380882Y-79954695D01*
X110374986Y-79950075D01*
X110345851Y-79924265D01*
X110345848Y-79924263D01*
X110311387Y-79906177D01*
X110304974Y-79902300D01*
X110272933Y-79880183D01*
X110272931Y-79880182D01*
X110236524Y-79866374D01*
X110229693Y-79863299D01*
X110195226Y-79845210D01*
X110195221Y-79845209D01*
X110193601Y-79844809D01*
X110157424Y-79835892D01*
X110150276Y-79833665D01*
X110113876Y-79819861D01*
X110113869Y-79819859D01*
X110075223Y-79815166D01*
X110067855Y-79813816D01*
X110030058Y-79804500D01*
X110030056Y-79804500D01*
X109859944Y-79804500D01*
X109849363Y-79807107D01*
X109822143Y-79813816D01*
X109814776Y-79815166D01*
X109776126Y-79819860D01*
X109739725Y-79833664D01*
X109732576Y-79835891D01*
X109694775Y-79845210D01*
X109694770Y-79845212D01*
X109660296Y-79863303D01*
X109653467Y-79866377D01*
X109617071Y-79880180D01*
X109617069Y-79880181D01*
X109585027Y-79902299D01*
X109578617Y-79906174D01*
X109544149Y-79924265D01*
X109515005Y-79950082D01*
X109509110Y-79954700D01*
X109477072Y-79976815D01*
X109477071Y-79976816D01*
X109451253Y-80005957D01*
X109445957Y-80011253D01*
X109416816Y-80037071D01*
X109416815Y-80037072D01*
X109394700Y-80069110D01*
X109390082Y-80075005D01*
X109364265Y-80104149D01*
X109346174Y-80138617D01*
X109342299Y-80145027D01*
X109320181Y-80177069D01*
X109320180Y-80177071D01*
X109306377Y-80213467D01*
X109303303Y-80220296D01*
X109285212Y-80254770D01*
X109285210Y-80254775D01*
X109275891Y-80292576D01*
X109273664Y-80299725D01*
X109259860Y-80336126D01*
X109255166Y-80374776D01*
X109253816Y-80382143D01*
X109244500Y-80419945D01*
X109244500Y-80458872D01*
X109244048Y-80466352D01*
X109239355Y-80504999D01*
X109244048Y-80543646D01*
X109244500Y-80551126D01*
X109244500Y-80580500D01*
X109224815Y-80647539D01*
X109172011Y-80693294D01*
X109120500Y-80704500D01*
X108569620Y-80704500D01*
X108532433Y-80708162D01*
X108418968Y-80719337D01*
X108225654Y-80777978D01*
X108047511Y-80873198D01*
X108047504Y-80873203D01*
X107891352Y-81001352D01*
X107763203Y-81157504D01*
X107763198Y-81157511D01*
X107667978Y-81335654D01*
X107609337Y-81528968D01*
X107589538Y-81730000D01*
X65000500Y-81730000D01*
X65000500Y-74280000D01*
X107589538Y-74280000D01*
X107609337Y-74481031D01*
X107667978Y-74674345D01*
X107763198Y-74852488D01*
X107763201Y-74852492D01*
X107763202Y-74852494D01*
X107773502Y-74865045D01*
X107891352Y-75008647D01*
X107925990Y-75037073D01*
X108047506Y-75136798D01*
X108047509Y-75136799D01*
X108047511Y-75136801D01*
X108225654Y-75232021D01*
X108225656Y-75232021D01*
X108225659Y-75232023D01*
X108418967Y-75290662D01*
X108569620Y-75305500D01*
X108569623Y-75305500D01*
X109120500Y-75305500D01*
X109187539Y-75325185D01*
X109233294Y-75377989D01*
X109244500Y-75429500D01*
X109244500Y-75458872D01*
X109244048Y-75466352D01*
X109239355Y-75504999D01*
X109244048Y-75543646D01*
X109244500Y-75551126D01*
X109244500Y-75590058D01*
X109253816Y-75627855D01*
X109255166Y-75635223D01*
X109259859Y-75673869D01*
X109259861Y-75673876D01*
X109273665Y-75710276D01*
X109275894Y-75717429D01*
X109285209Y-75755221D01*
X109285210Y-75755226D01*
X109303299Y-75789693D01*
X109306374Y-75796524D01*
X109320182Y-75832931D01*
X109320183Y-75832933D01*
X109342300Y-75864974D01*
X109346177Y-75871387D01*
X109364263Y-75905848D01*
X109364265Y-75905851D01*
X109390075Y-75934986D01*
X109394695Y-75940882D01*
X109394701Y-75940890D01*
X109416816Y-75972928D01*
X109416821Y-75972933D01*
X109445955Y-75998743D01*
X109451250Y-76004037D01*
X109477069Y-76033181D01*
X109477073Y-76033185D01*
X109509111Y-76055299D01*
X109515005Y-76059916D01*
X109527685Y-76071150D01*
X109544145Y-76085732D01*
X109544151Y-76085736D01*
X109578614Y-76103823D01*
X109585018Y-76107694D01*
X109617070Y-76129818D01*
X109653484Y-76143627D01*
X109660283Y-76146687D01*
X109694775Y-76164790D01*
X109694777Y-76164790D01*
X109694778Y-76164791D01*
X109701914Y-76166549D01*
X109732590Y-76174110D01*
X109739712Y-76176329D01*
X109776128Y-76190140D01*
X109795572Y-76192500D01*
X109814773Y-76194832D01*
X109822140Y-76196181D01*
X109846369Y-76202153D01*
X109859943Y-76205500D01*
X109859944Y-76205500D01*
X110030058Y-76205500D01*
X110039590Y-76203149D01*
X110067875Y-76196177D01*
X110075206Y-76194834D01*
X110113872Y-76190140D01*
X110150277Y-76176333D01*
X110157427Y-76174106D01*
X110168744Y-76171316D01*
X110195225Y-76164790D01*
X110229707Y-76146691D01*
X110236507Y-76143630D01*
X110272930Y-76129818D01*
X110304981Y-76107693D01*
X110311379Y-76103825D01*
X110345852Y-76085734D01*
X110375002Y-76059908D01*
X110380871Y-76055310D01*
X110412929Y-76033183D01*
X110438748Y-76004037D01*
X110444037Y-75998748D01*
X110473183Y-75972929D01*
X110495310Y-75940871D01*
X110499908Y-75935002D01*
X110525734Y-75905852D01*
X110543825Y-75871379D01*
X110547693Y-75864981D01*
X110569818Y-75832930D01*
X110583630Y-75796507D01*
X110586691Y-75789707D01*
X110604790Y-75755225D01*
X110611316Y-75728744D01*
X110614106Y-75717427D01*
X110616333Y-75710277D01*
X110630140Y-75673872D01*
X110634834Y-75635206D01*
X110636177Y-75627875D01*
X110645500Y-75590056D01*
X110645500Y-75551126D01*
X110645952Y-75543646D01*
X110650645Y-75505000D01*
X110645951Y-75466347D01*
X110645500Y-75458872D01*
X110645500Y-75419943D01*
X110636183Y-75382147D01*
X110634832Y-75374773D01*
X110630140Y-75336130D01*
X110630140Y-75336128D01*
X110616329Y-75299712D01*
X110614110Y-75292590D01*
X110604790Y-75254775D01*
X110586687Y-75220283D01*
X110583627Y-75213484D01*
X110569818Y-75177070D01*
X110547694Y-75145018D01*
X110543823Y-75138614D01*
X110525736Y-75104151D01*
X110525732Y-75104145D01*
X110511150Y-75087685D01*
X110499916Y-75075005D01*
X110495299Y-75069111D01*
X110473185Y-75037073D01*
X110473183Y-75037071D01*
X110444037Y-75011250D01*
X110438743Y-75005955D01*
X110412933Y-74976821D01*
X110412930Y-74976819D01*
X110412929Y-74976817D01*
X110395177Y-74964563D01*
X110380882Y-74954695D01*
X110374986Y-74950075D01*
X110345851Y-74924265D01*
X110345848Y-74924263D01*
X110311387Y-74906177D01*
X110304974Y-74902300D01*
X110272933Y-74880183D01*
X110272931Y-74880182D01*
X110236524Y-74866374D01*
X110229693Y-74863299D01*
X110195220Y-74845207D01*
X110190288Y-74843337D01*
X110134587Y-74801158D01*
X110110532Y-74735559D01*
X110119702Y-74679945D01*
X110122020Y-74674347D01*
X110122021Y-74674345D01*
X110122023Y-74674341D01*
X110180662Y-74481033D01*
X110200462Y-74280000D01*
X110180993Y-74082324D01*
X111490630Y-74082324D01*
X111500939Y-74272476D01*
X111551887Y-74455969D01*
X111551888Y-74455972D01*
X111641087Y-74624217D01*
X111641088Y-74624220D01*
X111764368Y-74769356D01*
X111764369Y-74769357D01*
X111915971Y-74884602D01*
X111915972Y-74884602D01*
X111915973Y-74884603D01*
X111915974Y-74884604D01*
X112021758Y-74933543D01*
X112088803Y-74964562D01*
X112088804Y-74964562D01*
X112088806Y-74964563D01*
X112144464Y-74976814D01*
X112274784Y-75005500D01*
X112274785Y-75005500D01*
X113067459Y-75005500D01*
X113067465Y-75005500D01*
X113209316Y-74990073D01*
X113389780Y-74929267D01*
X113552954Y-74831089D01*
X113691207Y-74700129D01*
X113798075Y-74542510D01*
X113822571Y-74481031D01*
X113868561Y-74365606D01*
X113882595Y-74280000D01*
X113899370Y-74177678D01*
X113889061Y-73987525D01*
X113838114Y-73804033D01*
X113748914Y-73635784D01*
X113748911Y-73635781D01*
X113748911Y-73635779D01*
X113625631Y-73490643D01*
X113474026Y-73375396D01*
X113474025Y-73375395D01*
X113301193Y-73295436D01*
X113115216Y-73254500D01*
X112322535Y-73254500D01*
X112322533Y-73254500D01*
X112180683Y-73269927D01*
X112000217Y-73330734D01*
X111837048Y-73428909D01*
X111698791Y-73559872D01*
X111591922Y-73717493D01*
X111521438Y-73894393D01*
X111490630Y-74082324D01*
X110180993Y-74082324D01*
X110180662Y-74078967D01*
X110122023Y-73885659D01*
X110122021Y-73885656D01*
X110122021Y-73885654D01*
X110026801Y-73707511D01*
X110026799Y-73707509D01*
X110026798Y-73707506D01*
X109987824Y-73660016D01*
X109898647Y-73551352D01*
X109742495Y-73423203D01*
X109742488Y-73423198D01*
X109564345Y-73327978D01*
X109371031Y-73269337D01*
X109260900Y-73258490D01*
X109220380Y-73254500D01*
X108569620Y-73254500D01*
X108532433Y-73258162D01*
X108418968Y-73269337D01*
X108225654Y-73327978D01*
X108047511Y-73423198D01*
X108047504Y-73423203D01*
X107891352Y-73551352D01*
X107763203Y-73707504D01*
X107763198Y-73707511D01*
X107667978Y-73885654D01*
X107609337Y-74078968D01*
X107589538Y-74280000D01*
X65000500Y-74280000D01*
X65000500Y-71585055D01*
X66469499Y-71585055D01*
X66510210Y-71750226D01*
X66589263Y-71900849D01*
X66589266Y-71900852D01*
X66702071Y-72028183D01*
X66792318Y-72090476D01*
X66842068Y-72124817D01*
X66842069Y-72124817D01*
X66842070Y-72124818D01*
X67001128Y-72185140D01*
X67077028Y-72194356D01*
X67127626Y-72200500D01*
X67127628Y-72200500D01*
X67212374Y-72200500D01*
X67254538Y-72195380D01*
X67338872Y-72185140D01*
X67497930Y-72124818D01*
X67637929Y-72028183D01*
X67750734Y-71900852D01*
X67829790Y-71750225D01*
X67870500Y-71585056D01*
X67870500Y-71414944D01*
X67829790Y-71249775D01*
X67829789Y-71249773D01*
X67750736Y-71099150D01*
X67731560Y-71077505D01*
X67637929Y-70971817D01*
X67588177Y-70937475D01*
X67497931Y-70875182D01*
X67338874Y-70814860D01*
X67338868Y-70814859D01*
X67212374Y-70799500D01*
X67212372Y-70799500D01*
X67127628Y-70799500D01*
X67127626Y-70799500D01*
X67001131Y-70814859D01*
X67001125Y-70814860D01*
X66842068Y-70875182D01*
X66702072Y-70971816D01*
X66589263Y-71099150D01*
X66510210Y-71249773D01*
X66469499Y-71414944D01*
X66469499Y-71585055D01*
X65000500Y-71585055D01*
X65000500Y-68585055D01*
X66469499Y-68585055D01*
X66510210Y-68750226D01*
X66589263Y-68900849D01*
X66589266Y-68900852D01*
X66702071Y-69028183D01*
X66792318Y-69090476D01*
X66842068Y-69124817D01*
X66842069Y-69124817D01*
X66842070Y-69124818D01*
X67001128Y-69185140D01*
X67077028Y-69194356D01*
X67127626Y-69200500D01*
X67127628Y-69200500D01*
X67212374Y-69200500D01*
X67254538Y-69195380D01*
X67338872Y-69185140D01*
X67497930Y-69124818D01*
X67637929Y-69028183D01*
X67750734Y-68900852D01*
X67829790Y-68750225D01*
X67870500Y-68585056D01*
X67870500Y-68414944D01*
X67829790Y-68249775D01*
X67829789Y-68249773D01*
X67750736Y-68099150D01*
X67731560Y-68077505D01*
X67637929Y-67971817D01*
X67588177Y-67937475D01*
X67497931Y-67875182D01*
X67338874Y-67814860D01*
X67338868Y-67814859D01*
X67212374Y-67799500D01*
X67212372Y-67799500D01*
X67127628Y-67799500D01*
X67127626Y-67799500D01*
X67001131Y-67814859D01*
X67001125Y-67814860D01*
X66842068Y-67875182D01*
X66702072Y-67971816D01*
X66589263Y-68099150D01*
X66510210Y-68249773D01*
X66469499Y-68414944D01*
X66469499Y-68585055D01*
X65000500Y-68585055D01*
X65000500Y-62500000D01*
X68644341Y-62500000D01*
X68664936Y-62735403D01*
X68664938Y-62735413D01*
X68726094Y-62963655D01*
X68726096Y-62963659D01*
X68726097Y-62963663D01*
X68776030Y-63070746D01*
X68825964Y-63177828D01*
X68825965Y-63177830D01*
X68961505Y-63371402D01*
X69128597Y-63538494D01*
X69322169Y-63674034D01*
X69322171Y-63674035D01*
X69536337Y-63773903D01*
X69764592Y-63835063D01*
X69941034Y-63850500D01*
X70058966Y-63850500D01*
X70235408Y-63835063D01*
X70463663Y-63773903D01*
X70677829Y-63674035D01*
X70871401Y-63538495D01*
X71038495Y-63371401D01*
X71174035Y-63177830D01*
X71273903Y-62963663D01*
X71335063Y-62735408D01*
X71355659Y-62500000D01*
X71335063Y-62264592D01*
X71273903Y-62036337D01*
X71174035Y-61822171D01*
X71174034Y-61822169D01*
X71038494Y-61628597D01*
X70871402Y-61461505D01*
X70677830Y-61325965D01*
X70677828Y-61325964D01*
X70563592Y-61272695D01*
X70514923Y-61250000D01*
X76799364Y-61250000D01*
X76856567Y-61463486D01*
X76856570Y-61463492D01*
X76956399Y-61677578D01*
X77091894Y-61871082D01*
X77258917Y-62038105D01*
X77452421Y-62173600D01*
X77666507Y-62273429D01*
X77666516Y-62273433D01*
X77880000Y-62330634D01*
X77880000Y-61612301D01*
X77899685Y-61545262D01*
X77952489Y-61499507D01*
X78021647Y-61489563D01*
X78094237Y-61500000D01*
X78094238Y-61500000D01*
X78165762Y-61500000D01*
X78165763Y-61500000D01*
X78238353Y-61489563D01*
X78307512Y-61499507D01*
X78360315Y-61545262D01*
X78380000Y-61612301D01*
X78380000Y-62330633D01*
X78593483Y-62273433D01*
X78593492Y-62273429D01*
X78807578Y-62173600D01*
X79001082Y-62038105D01*
X79168105Y-61871082D01*
X79303600Y-61677578D01*
X79397294Y-61476651D01*
X79443466Y-61424212D01*
X79510660Y-61405060D01*
X79577541Y-61425276D01*
X79620676Y-61473785D01*
X79687632Y-61608253D01*
X79794675Y-61749999D01*
X79816128Y-61778407D01*
X79973698Y-61922052D01*
X80154981Y-62034298D01*
X80353802Y-62111321D01*
X80563390Y-62150500D01*
X80563392Y-62150500D01*
X80776608Y-62150500D01*
X80776610Y-62150500D01*
X80986198Y-62111321D01*
X81185019Y-62034298D01*
X81366302Y-61922052D01*
X81523872Y-61778407D01*
X81652366Y-61608255D01*
X81666038Y-61580798D01*
X81747403Y-61417394D01*
X81747403Y-61417393D01*
X81747405Y-61417389D01*
X81805756Y-61212310D01*
X81816529Y-61096047D01*
X81842315Y-61031111D01*
X81884622Y-61000804D01*
X81993130Y-61000804D01*
X82029503Y-61021668D01*
X82061693Y-61083681D01*
X82063470Y-61096047D01*
X82074244Y-61212310D01*
X82105422Y-61321889D01*
X82132596Y-61417392D01*
X82132596Y-61417394D01*
X82227632Y-61608253D01*
X82334675Y-61749999D01*
X82356128Y-61778407D01*
X82513698Y-61922052D01*
X82694981Y-62034298D01*
X82893802Y-62111321D01*
X83103390Y-62150500D01*
X83103392Y-62150500D01*
X83316608Y-62150500D01*
X83316610Y-62150500D01*
X83526198Y-62111321D01*
X83725019Y-62034298D01*
X83906302Y-61922052D01*
X84063872Y-61778407D01*
X84192366Y-61608255D01*
X84206038Y-61580798D01*
X84287403Y-61417394D01*
X84287403Y-61417393D01*
X84287405Y-61417389D01*
X84345756Y-61212310D01*
X84352029Y-61144605D01*
X84377814Y-61079669D01*
X84434614Y-61038981D01*
X84504395Y-61035461D01*
X84565002Y-61070225D01*
X84597193Y-61132238D01*
X84599500Y-61156047D01*
X84599500Y-61894856D01*
X84599502Y-61894882D01*
X84602413Y-61919987D01*
X84602415Y-61919991D01*
X84647793Y-62022764D01*
X84647794Y-62022765D01*
X84727235Y-62102206D01*
X84830009Y-62147585D01*
X84855135Y-62150500D01*
X86644864Y-62150499D01*
X86644879Y-62150497D01*
X86644882Y-62150497D01*
X86669987Y-62147586D01*
X86669988Y-62147585D01*
X86669991Y-62147585D01*
X86772765Y-62102206D01*
X86852206Y-62022765D01*
X86897585Y-61919991D01*
X86900500Y-61894865D01*
X86900500Y-61500000D01*
X92419364Y-61500000D01*
X92476567Y-61713486D01*
X92476570Y-61713492D01*
X92576399Y-61927578D01*
X92711894Y-62121082D01*
X92878917Y-62288105D01*
X93072421Y-62423600D01*
X93286507Y-62523429D01*
X93286516Y-62523433D01*
X93500000Y-62580634D01*
X93500000Y-61862301D01*
X93519685Y-61795262D01*
X93572489Y-61749507D01*
X93641647Y-61739563D01*
X93714237Y-61750000D01*
X93714238Y-61750000D01*
X93785762Y-61750000D01*
X93785763Y-61750000D01*
X93858353Y-61739563D01*
X93927512Y-61749507D01*
X93980315Y-61795262D01*
X94000000Y-61862301D01*
X94000000Y-62580633D01*
X94213483Y-62523433D01*
X94213492Y-62523429D01*
X94263736Y-62500000D01*
X108644341Y-62500000D01*
X108664936Y-62735403D01*
X108664938Y-62735413D01*
X108726094Y-62963655D01*
X108726096Y-62963659D01*
X108726097Y-62963663D01*
X108776031Y-63070745D01*
X108825964Y-63177828D01*
X108825965Y-63177830D01*
X108961505Y-63371402D01*
X109128597Y-63538494D01*
X109322169Y-63674034D01*
X109322171Y-63674035D01*
X109536337Y-63773903D01*
X109764592Y-63835063D01*
X109941034Y-63850500D01*
X110058966Y-63850500D01*
X110235408Y-63835063D01*
X110463663Y-63773903D01*
X110677829Y-63674035D01*
X110871401Y-63538495D01*
X111038495Y-63371401D01*
X111174035Y-63177830D01*
X111273903Y-62963663D01*
X111335063Y-62735408D01*
X111355659Y-62500000D01*
X111335063Y-62264592D01*
X111273903Y-62036337D01*
X111174035Y-61822171D01*
X111174034Y-61822169D01*
X111038494Y-61628597D01*
X110871402Y-61461505D01*
X110677830Y-61325965D01*
X110677828Y-61325964D01*
X110563592Y-61272695D01*
X110463663Y-61226097D01*
X110463659Y-61226096D01*
X110463655Y-61226094D01*
X110235413Y-61164938D01*
X110235403Y-61164936D01*
X110058966Y-61149500D01*
X109941034Y-61149500D01*
X109764596Y-61164936D01*
X109764586Y-61164938D01*
X109536344Y-61226094D01*
X109536335Y-61226098D01*
X109322171Y-61325964D01*
X109322169Y-61325965D01*
X109128597Y-61461505D01*
X108961506Y-61628597D01*
X108961501Y-61628604D01*
X108825967Y-61822165D01*
X108825965Y-61822169D01*
X108726098Y-62036335D01*
X108726094Y-62036344D01*
X108664938Y-62264586D01*
X108664936Y-62264596D01*
X108644341Y-62499999D01*
X108644341Y-62500000D01*
X94263736Y-62500000D01*
X94427578Y-62423600D01*
X94621082Y-62288105D01*
X94788105Y-62121082D01*
X94923600Y-61927578D01*
X95017294Y-61726651D01*
X95063466Y-61674212D01*
X95130660Y-61655060D01*
X95197541Y-61675276D01*
X95240676Y-61723785D01*
X95307632Y-61858253D01*
X95431867Y-62022765D01*
X95436128Y-62028407D01*
X95593698Y-62172052D01*
X95774981Y-62284298D01*
X95973802Y-62361321D01*
X96183390Y-62400500D01*
X96183392Y-62400500D01*
X96396608Y-62400500D01*
X96396610Y-62400500D01*
X96606198Y-62361321D01*
X96805019Y-62284298D01*
X96986302Y-62172052D01*
X97143872Y-62028407D01*
X97272366Y-61858255D01*
X97290337Y-61822165D01*
X97367403Y-61667394D01*
X97367403Y-61667393D01*
X97367405Y-61667389D01*
X97425756Y-61462310D01*
X97436529Y-61346047D01*
X97462315Y-61281111D01*
X97504622Y-61250804D01*
X97613130Y-61250804D01*
X97649503Y-61271668D01*
X97681693Y-61333681D01*
X97683471Y-61346048D01*
X97694244Y-61462310D01*
X97752596Y-61667392D01*
X97752596Y-61667394D01*
X97847632Y-61858253D01*
X97971867Y-62022765D01*
X97976128Y-62028407D01*
X98133698Y-62172052D01*
X98314981Y-62284298D01*
X98513802Y-62361321D01*
X98723390Y-62400500D01*
X98723392Y-62400500D01*
X98936608Y-62400500D01*
X98936610Y-62400500D01*
X99146198Y-62361321D01*
X99345019Y-62284298D01*
X99526302Y-62172052D01*
X99683872Y-62028407D01*
X99812366Y-61858255D01*
X99830337Y-61822165D01*
X99907403Y-61667394D01*
X99907403Y-61667393D01*
X99907405Y-61667389D01*
X99965756Y-61462310D01*
X99972029Y-61394605D01*
X99997814Y-61329669D01*
X100054614Y-61288981D01*
X100124395Y-61285461D01*
X100185002Y-61320225D01*
X100217193Y-61382238D01*
X100219500Y-61406047D01*
X100219500Y-62144856D01*
X100219502Y-62144882D01*
X100222413Y-62169987D01*
X100222415Y-62169991D01*
X100267793Y-62272764D01*
X100267794Y-62272765D01*
X100347235Y-62352206D01*
X100450009Y-62397585D01*
X100475135Y-62400500D01*
X102264864Y-62400499D01*
X102264879Y-62400497D01*
X102264882Y-62400497D01*
X102289987Y-62397586D01*
X102289988Y-62397585D01*
X102289991Y-62397585D01*
X102392765Y-62352206D01*
X102472206Y-62272765D01*
X102517585Y-62169991D01*
X102520500Y-62144865D01*
X102520499Y-60355136D01*
X102520497Y-60355117D01*
X102517586Y-60330012D01*
X102517585Y-60330010D01*
X102517585Y-60330009D01*
X102472206Y-60227235D01*
X102392765Y-60147794D01*
X102372124Y-60138680D01*
X102289992Y-60102415D01*
X102264865Y-60099500D01*
X100475143Y-60099500D01*
X100475117Y-60099502D01*
X100450012Y-60102413D01*
X100450008Y-60102415D01*
X100347235Y-60147793D01*
X100267794Y-60227234D01*
X100222415Y-60330006D01*
X100222415Y-60330008D01*
X100219500Y-60355131D01*
X100219500Y-61093951D01*
X100199815Y-61160990D01*
X100147011Y-61206745D01*
X100077853Y-61216689D01*
X100014297Y-61187664D01*
X99976523Y-61128886D01*
X99972029Y-61105391D01*
X99971163Y-61096048D01*
X99965756Y-61037690D01*
X99907405Y-60832611D01*
X99907403Y-60832606D01*
X99907403Y-60832605D01*
X99812367Y-60641746D01*
X99683872Y-60471593D01*
X99653301Y-60443724D01*
X99526302Y-60327948D01*
X99345019Y-60215702D01*
X99345017Y-60215701D01*
X99245608Y-60177190D01*
X99146198Y-60138679D01*
X98936610Y-60099500D01*
X98723390Y-60099500D01*
X98513802Y-60138679D01*
X98513799Y-60138679D01*
X98513799Y-60138680D01*
X98314982Y-60215701D01*
X98314980Y-60215702D01*
X98133699Y-60327947D01*
X97976127Y-60471593D01*
X97847632Y-60641746D01*
X97752596Y-60832605D01*
X97752596Y-60832607D01*
X97694244Y-61037689D01*
X97683471Y-61153951D01*
X97657685Y-61218888D01*
X97613130Y-61250804D01*
X97504622Y-61250804D01*
X97506869Y-61249194D01*
X97470497Y-61228331D01*
X97438307Y-61166318D01*
X97436529Y-61153951D01*
X97432029Y-61105391D01*
X97425756Y-61037690D01*
X97367405Y-60832611D01*
X97367403Y-60832606D01*
X97367403Y-60832605D01*
X97272367Y-60641746D01*
X97143872Y-60471593D01*
X97113301Y-60443724D01*
X96986302Y-60327948D01*
X96805019Y-60215702D01*
X96805017Y-60215701D01*
X96705608Y-60177190D01*
X96606198Y-60138679D01*
X96396610Y-60099500D01*
X96183390Y-60099500D01*
X95973802Y-60138679D01*
X95973799Y-60138679D01*
X95973799Y-60138680D01*
X95774982Y-60215701D01*
X95774980Y-60215702D01*
X95593699Y-60327947D01*
X95436127Y-60471593D01*
X95307634Y-60641744D01*
X95240676Y-60776215D01*
X95193173Y-60827452D01*
X95125510Y-60844873D01*
X95059170Y-60822947D01*
X95017294Y-60773348D01*
X94923600Y-60572422D01*
X94923599Y-60572420D01*
X94788113Y-60378926D01*
X94788108Y-60378920D01*
X94621082Y-60211894D01*
X94427578Y-60076399D01*
X94213492Y-59976570D01*
X94213486Y-59976567D01*
X94000000Y-59919364D01*
X94000000Y-60637698D01*
X93980315Y-60704737D01*
X93927511Y-60750492D01*
X93858355Y-60760436D01*
X93785766Y-60750000D01*
X93785763Y-60750000D01*
X93714237Y-60750000D01*
X93714233Y-60750000D01*
X93641645Y-60760436D01*
X93572487Y-60750492D01*
X93519684Y-60704736D01*
X93500000Y-60637698D01*
X93500000Y-59919364D01*
X93499999Y-59919364D01*
X93286513Y-59976567D01*
X93286507Y-59976570D01*
X93072422Y-60076399D01*
X93072420Y-60076400D01*
X92878926Y-60211886D01*
X92878920Y-60211891D01*
X92711891Y-60378920D01*
X92711886Y-60378926D01*
X92576400Y-60572420D01*
X92576399Y-60572422D01*
X92476570Y-60786507D01*
X92476567Y-60786513D01*
X92419364Y-60999999D01*
X92419364Y-61000000D01*
X93136653Y-61000000D01*
X93203692Y-61019685D01*
X93249447Y-61072489D01*
X93259391Y-61141647D01*
X93255631Y-61158933D01*
X93253868Y-61164937D01*
X93250000Y-61178111D01*
X93250000Y-61321889D01*
X93252616Y-61330798D01*
X93255631Y-61341067D01*
X93255630Y-61410936D01*
X93217855Y-61469714D01*
X93154299Y-61498738D01*
X93136653Y-61500000D01*
X92419364Y-61500000D01*
X86900500Y-61500000D01*
X86900499Y-60105136D01*
X86900497Y-60105117D01*
X86897586Y-60080012D01*
X86897585Y-60080010D01*
X86897585Y-60080009D01*
X86852206Y-59977235D01*
X86772765Y-59897794D01*
X86752124Y-59888680D01*
X86669992Y-59852415D01*
X86644865Y-59849500D01*
X84855143Y-59849500D01*
X84855117Y-59849502D01*
X84830012Y-59852413D01*
X84830008Y-59852415D01*
X84727235Y-59897793D01*
X84647794Y-59977234D01*
X84602415Y-60080006D01*
X84602415Y-60080008D01*
X84599500Y-60105131D01*
X84599500Y-60843951D01*
X84579815Y-60910990D01*
X84527011Y-60956745D01*
X84457853Y-60966689D01*
X84394297Y-60937664D01*
X84356523Y-60878886D01*
X84352029Y-60855391D01*
X84351054Y-60844873D01*
X84345756Y-60787690D01*
X84345419Y-60786507D01*
X84315321Y-60680724D01*
X84287405Y-60582611D01*
X84287403Y-60582606D01*
X84287403Y-60582605D01*
X84192367Y-60391746D01*
X84063872Y-60221593D01*
X84053224Y-60211886D01*
X83906302Y-60077948D01*
X83725019Y-59965702D01*
X83725017Y-59965701D01*
X83605406Y-59919364D01*
X83526198Y-59888679D01*
X83316610Y-59849500D01*
X83103390Y-59849500D01*
X82893802Y-59888679D01*
X82893799Y-59888679D01*
X82893799Y-59888680D01*
X82694982Y-59965701D01*
X82694980Y-59965702D01*
X82513699Y-60077947D01*
X82356127Y-60221593D01*
X82227632Y-60391746D01*
X82132596Y-60582605D01*
X82132596Y-60582607D01*
X82074244Y-60787689D01*
X82063471Y-60903951D01*
X82037685Y-60968888D01*
X81993130Y-61000804D01*
X81884622Y-61000804D01*
X81886869Y-60999194D01*
X81850497Y-60978331D01*
X81818307Y-60916318D01*
X81816529Y-60903951D01*
X81814206Y-60878886D01*
X81805756Y-60787690D01*
X81747405Y-60582611D01*
X81747403Y-60582606D01*
X81747403Y-60582605D01*
X81652367Y-60391746D01*
X81523872Y-60221593D01*
X81513224Y-60211886D01*
X81366302Y-60077948D01*
X81185019Y-59965702D01*
X81185017Y-59965701D01*
X81065406Y-59919364D01*
X80986198Y-59888679D01*
X80776610Y-59849500D01*
X80563390Y-59849500D01*
X80353802Y-59888679D01*
X80353799Y-59888679D01*
X80353799Y-59888680D01*
X80154982Y-59965701D01*
X80154980Y-59965702D01*
X79973699Y-60077947D01*
X79816127Y-60221593D01*
X79687634Y-60391744D01*
X79620676Y-60526215D01*
X79573173Y-60577452D01*
X79505510Y-60594873D01*
X79439170Y-60572947D01*
X79397294Y-60523348D01*
X79303600Y-60322422D01*
X79303599Y-60322420D01*
X79168113Y-60128926D01*
X79168108Y-60128920D01*
X79001082Y-59961894D01*
X78807578Y-59826399D01*
X78593492Y-59726570D01*
X78593486Y-59726567D01*
X78380000Y-59669364D01*
X78380000Y-60387698D01*
X78360315Y-60454737D01*
X78307511Y-60500492D01*
X78238355Y-60510436D01*
X78165766Y-60500000D01*
X78165763Y-60500000D01*
X78094237Y-60500000D01*
X78094233Y-60500000D01*
X78021645Y-60510436D01*
X77952487Y-60500492D01*
X77899684Y-60454736D01*
X77880000Y-60387698D01*
X77880000Y-59669364D01*
X77879999Y-59669364D01*
X77666513Y-59726567D01*
X77666507Y-59726570D01*
X77452422Y-59826399D01*
X77452420Y-59826400D01*
X77258926Y-59961886D01*
X77258920Y-59961891D01*
X77091891Y-60128920D01*
X77091886Y-60128926D01*
X76956400Y-60322420D01*
X76956399Y-60322422D01*
X76856570Y-60536507D01*
X76856567Y-60536513D01*
X76799364Y-60749999D01*
X76799364Y-60750000D01*
X77516653Y-60750000D01*
X77583692Y-60769685D01*
X77629447Y-60822489D01*
X77639391Y-60891647D01*
X77635631Y-60908933D01*
X77630000Y-60928111D01*
X77630000Y-61071889D01*
X77633462Y-61083681D01*
X77635631Y-61091067D01*
X77635630Y-61160936D01*
X77597855Y-61219714D01*
X77534299Y-61248738D01*
X77516653Y-61250000D01*
X76799364Y-61250000D01*
X70514923Y-61250000D01*
X70463663Y-61226097D01*
X70463659Y-61226096D01*
X70463655Y-61226094D01*
X70235413Y-61164938D01*
X70235403Y-61164936D01*
X70058966Y-61149500D01*
X69941034Y-61149500D01*
X69764596Y-61164936D01*
X69764586Y-61164938D01*
X69536344Y-61226094D01*
X69536335Y-61226098D01*
X69322171Y-61325964D01*
X69322169Y-61325965D01*
X69128597Y-61461505D01*
X68961506Y-61628597D01*
X68961501Y-61628604D01*
X68825967Y-61822165D01*
X68825965Y-61822169D01*
X68726098Y-62036335D01*
X68726094Y-62036344D01*
X68664938Y-62264586D01*
X68664936Y-62264596D01*
X68644341Y-62499999D01*
X68644341Y-62500000D01*
X65000500Y-62500000D01*
X65009493Y-62282569D01*
X65018160Y-62084061D01*
X65018574Y-62079138D01*
X65045487Y-61863223D01*
X65071884Y-61662726D01*
X65072669Y-61658114D01*
X65117191Y-61445778D01*
X65161160Y-61247451D01*
X65162253Y-61243235D01*
X65224112Y-61035457D01*
X65285324Y-60841320D01*
X65286673Y-60837488D01*
X65365469Y-60635551D01*
X65443499Y-60447170D01*
X65445033Y-60443771D01*
X65514381Y-60301920D01*
X65540249Y-60249007D01*
X65592936Y-60147794D01*
X65634494Y-60067960D01*
X65636207Y-60064891D01*
X65747211Y-59878601D01*
X65856972Y-59706313D01*
X65858765Y-59703656D01*
X65984856Y-59527054D01*
X66109313Y-59364861D01*
X66111135Y-59362601D01*
X66251448Y-59196933D01*
X66390563Y-59045115D01*
X66545115Y-58890563D01*
X66696933Y-58751448D01*
X66862601Y-58611135D01*
X66864861Y-58609313D01*
X67027054Y-58484856D01*
X67203656Y-58358765D01*
X67206313Y-58356972D01*
X67378601Y-58247211D01*
X67564900Y-58136201D01*
X67567960Y-58134494D01*
X67685284Y-58073419D01*
X67749007Y-58040249D01*
X67823655Y-58003755D01*
X67943771Y-57945033D01*
X67947170Y-57943499D01*
X68135551Y-57865469D01*
X68337488Y-57786673D01*
X68341320Y-57785324D01*
X68535457Y-57724112D01*
X68743235Y-57662253D01*
X68747451Y-57661160D01*
X68945778Y-57617191D01*
X69158114Y-57572669D01*
X69162726Y-57571884D01*
X69363223Y-57545487D01*
X69579138Y-57518574D01*
X69584061Y-57518160D01*
X69782569Y-57509493D01*
X70000000Y-57500500D01*
X70000500Y-57500500D01*
X109999500Y-57500500D01*
X110000000Y-57500500D01*
X110217318Y-57509488D01*
G37*
%TD.AperFunction*%
%TD*%
M02*
