%TF.GenerationSoftware,KiCad,Pcbnew,7.0.7*%
%TF.CreationDate,2023-09-18T20:54:04+05:30*%
%TF.ProjectId,STM32,53544d33-322e-46b6-9963-61645f706362,rev?*%
%TF.SameCoordinates,Original*%
%TF.FileFunction,Copper,L1,Top*%
%TF.FilePolarity,Positive*%
%FSLAX46Y46*%
G04 Gerber Fmt 4.6, Leading zero omitted, Abs format (unit mm)*
G04 Created by KiCad (PCBNEW 7.0.7) date 2023-09-18 20:54:04*
%MOMM*%
%LPD*%
G01*
G04 APERTURE LIST*
G04 Aperture macros list*
%AMRoundRect*
0 Rectangle with rounded corners*
0 $1 Rounding radius*
0 $2 $3 $4 $5 $6 $7 $8 $9 X,Y pos of 4 corners*
0 Add a 4 corners polygon primitive as box body*
4,1,4,$2,$3,$4,$5,$6,$7,$8,$9,$2,$3,0*
0 Add four circle primitives for the rounded corners*
1,1,$1+$1,$2,$3*
1,1,$1+$1,$4,$5*
1,1,$1+$1,$6,$7*
1,1,$1+$1,$8,$9*
0 Add four rect primitives between the rounded corners*
20,1,$1+$1,$2,$3,$4,$5,0*
20,1,$1+$1,$4,$5,$6,$7,0*
20,1,$1+$1,$6,$7,$8,$9,0*
20,1,$1+$1,$8,$9,$2,$3,0*%
G04 Aperture macros list end*
%ADD10C,0.125000*%
%TA.AperFunction,NonConductor*%
%ADD11C,0.125000*%
%TD*%
%TA.AperFunction,SMDPad,CuDef*%
%ADD12RoundRect,0.075000X-0.662500X-0.075000X0.662500X-0.075000X0.662500X0.075000X-0.662500X0.075000X0*%
%TD*%
%TA.AperFunction,SMDPad,CuDef*%
%ADD13RoundRect,0.075000X-0.075000X-0.662500X0.075000X-0.662500X0.075000X0.662500X-0.075000X0.662500X0*%
%TD*%
%TA.AperFunction,SMDPad,CuDef*%
%ADD14RoundRect,0.140000X0.140000X0.170000X-0.140000X0.170000X-0.140000X-0.170000X0.140000X-0.170000X0*%
%TD*%
%TA.AperFunction,ComponentPad*%
%ADD15R,1.700000X1.700000*%
%TD*%
%TA.AperFunction,ComponentPad*%
%ADD16O,1.700000X1.700000*%
%TD*%
%TA.AperFunction,SMDPad,CuDef*%
%ADD17RoundRect,0.250000X0.475000X-0.250000X0.475000X0.250000X-0.475000X0.250000X-0.475000X-0.250000X0*%
%TD*%
%TA.AperFunction,SMDPad,CuDef*%
%ADD18RoundRect,0.140000X-0.170000X0.140000X-0.170000X-0.140000X0.170000X-0.140000X0.170000X0.140000X0*%
%TD*%
%TA.AperFunction,SMDPad,CuDef*%
%ADD19R,1.300000X0.450000*%
%TD*%
%TA.AperFunction,ComponentPad*%
%ADD20O,1.800000X1.150000*%
%TD*%
%TA.AperFunction,ComponentPad*%
%ADD21O,2.000000X1.450000*%
%TD*%
%TA.AperFunction,SMDPad,CuDef*%
%ADD22RoundRect,0.135000X0.185000X-0.135000X0.185000X0.135000X-0.185000X0.135000X-0.185000X-0.135000X0*%
%TD*%
%TA.AperFunction,SMDPad,CuDef*%
%ADD23RoundRect,0.140000X0.170000X-0.140000X0.170000X0.140000X-0.170000X0.140000X-0.170000X-0.140000X0*%
%TD*%
%TA.AperFunction,SMDPad,CuDef*%
%ADD24RoundRect,0.135000X-0.185000X0.135000X-0.185000X-0.135000X0.185000X-0.135000X0.185000X0.135000X0*%
%TD*%
%TA.AperFunction,SMDPad,CuDef*%
%ADD25RoundRect,0.218750X-0.256250X0.218750X-0.256250X-0.218750X0.256250X-0.218750X0.256250X0.218750X0*%
%TD*%
%TA.AperFunction,SMDPad,CuDef*%
%ADD26R,1.500000X2.000000*%
%TD*%
%TA.AperFunction,SMDPad,CuDef*%
%ADD27R,3.800000X2.000000*%
%TD*%
%TA.AperFunction,SMDPad,CuDef*%
%ADD28RoundRect,0.225000X-0.225000X-0.250000X0.225000X-0.250000X0.225000X0.250000X-0.225000X0.250000X0*%
%TD*%
%TA.AperFunction,SMDPad,CuDef*%
%ADD29R,1.200000X1.400000*%
%TD*%
%TA.AperFunction,SMDPad,CuDef*%
%ADD30RoundRect,0.140000X-0.140000X-0.170000X0.140000X-0.170000X0.140000X0.170000X-0.140000X0.170000X0*%
%TD*%
%TA.AperFunction,SMDPad,CuDef*%
%ADD31RoundRect,0.135000X-0.135000X-0.185000X0.135000X-0.185000X0.135000X0.185000X-0.135000X0.185000X0*%
%TD*%
%TA.AperFunction,SMDPad,CuDef*%
%ADD32RoundRect,0.218750X0.256250X-0.218750X0.256250X0.218750X-0.256250X0.218750X-0.256250X-0.218750X0*%
%TD*%
%TA.AperFunction,SMDPad,CuDef*%
%ADD33RoundRect,0.250000X-0.250000X-0.475000X0.250000X-0.475000X0.250000X0.475000X-0.250000X0.475000X0*%
%TD*%
%TA.AperFunction,SMDPad,CuDef*%
%ADD34R,0.800000X1.000000*%
%TD*%
%TA.AperFunction,SMDPad,CuDef*%
%ADD35R,1.500000X0.700000*%
%TD*%
%TA.AperFunction,ViaPad*%
%ADD36C,0.700000*%
%TD*%
%TA.AperFunction,Conductor*%
%ADD37C,0.300000*%
%TD*%
%TA.AperFunction,Conductor*%
%ADD38C,0.500000*%
%TD*%
%TA.AperFunction,Conductor*%
%ADD39C,0.200000*%
%TD*%
G04 APERTURE END LIST*
D10*
D11*
G36*
X65911182Y-86227316D02*
G01*
X65906049Y-86227316D01*
X65900583Y-86227316D01*
X65895543Y-86227316D01*
X65891521Y-86227316D01*
X65885937Y-86227316D01*
X65880832Y-86227316D01*
X65875584Y-86227316D01*
X65870429Y-86227316D01*
X65869905Y-86227316D01*
X65843161Y-86227316D01*
X65842864Y-86232352D01*
X65842823Y-86237879D01*
X65842803Y-86243593D01*
X65842796Y-86248633D01*
X65842794Y-86252351D01*
X65842760Y-86267956D01*
X65842659Y-86283294D01*
X65842490Y-86298365D01*
X65842252Y-86313170D01*
X65841948Y-86327707D01*
X65841575Y-86341977D01*
X65841135Y-86355981D01*
X65840627Y-86369718D01*
X65840051Y-86383187D01*
X65839407Y-86396390D01*
X65838696Y-86409326D01*
X65837917Y-86421995D01*
X65837070Y-86434397D01*
X65836156Y-86446532D01*
X65835174Y-86458401D01*
X65834124Y-86470002D01*
X65833006Y-86481337D01*
X65831821Y-86492404D01*
X65830567Y-86503205D01*
X65829246Y-86513739D01*
X65827858Y-86524006D01*
X65826401Y-86534006D01*
X65824877Y-86543739D01*
X65823285Y-86553205D01*
X65821626Y-86562404D01*
X65819898Y-86571337D01*
X65818103Y-86580002D01*
X65816241Y-86588401D01*
X65814310Y-86596532D01*
X65812312Y-86604397D01*
X65810246Y-86611995D01*
X65808112Y-86619326D01*
X65806484Y-86624540D01*
X65804774Y-86629589D01*
X65802983Y-86634472D01*
X65801111Y-86639190D01*
X65799157Y-86643742D01*
X65795006Y-86652350D01*
X65790530Y-86660295D01*
X65785728Y-86667579D01*
X65780601Y-86674200D01*
X65775148Y-86680159D01*
X65769370Y-86685456D01*
X65763267Y-86690091D01*
X65756838Y-86694064D01*
X65750084Y-86697374D01*
X65743005Y-86700023D01*
X65735601Y-86702009D01*
X65727871Y-86703333D01*
X65719816Y-86703996D01*
X65715666Y-86704078D01*
X65707687Y-86703908D01*
X65699720Y-86703397D01*
X65691762Y-86702546D01*
X65683815Y-86701354D01*
X65675879Y-86699821D01*
X65667953Y-86697947D01*
X65660037Y-86695734D01*
X65652132Y-86693179D01*
X65644238Y-86690284D01*
X65636354Y-86687048D01*
X65628480Y-86683472D01*
X65620617Y-86679555D01*
X65612765Y-86675297D01*
X65604923Y-86670699D01*
X65597091Y-86665760D01*
X65589270Y-86660481D01*
X65584920Y-86657427D01*
X65580708Y-86654339D01*
X65576634Y-86651217D01*
X65572698Y-86648063D01*
X65568900Y-86644875D01*
X65561719Y-86638398D01*
X65555090Y-86631789D01*
X65549013Y-86625045D01*
X65543489Y-86618168D01*
X65538518Y-86611158D01*
X65534098Y-86604014D01*
X65530232Y-86596736D01*
X65526917Y-86589325D01*
X65524155Y-86581780D01*
X65521945Y-86574102D01*
X65520288Y-86566290D01*
X65519183Y-86558344D01*
X65518631Y-86550265D01*
X65518562Y-86546175D01*
X65518751Y-86539743D01*
X65519319Y-86533725D01*
X65520266Y-86528122D01*
X65521592Y-86522934D01*
X65523297Y-86518161D01*
X65526563Y-86511780D01*
X65530683Y-86506333D01*
X65535654Y-86501820D01*
X65541477Y-86498240D01*
X65548153Y-86495595D01*
X65553077Y-86494349D01*
X65558380Y-86493519D01*
X65564061Y-86493104D01*
X65567044Y-86493053D01*
X65572900Y-86493255D01*
X65578379Y-86493863D01*
X65583479Y-86494877D01*
X65588202Y-86496296D01*
X65594577Y-86499185D01*
X65600103Y-86502987D01*
X65604778Y-86507701D01*
X65608604Y-86513327D01*
X65611579Y-86519865D01*
X65613090Y-86524731D01*
X65614224Y-86530002D01*
X65614979Y-86535679D01*
X65615357Y-86541761D01*
X65615404Y-86544954D01*
X65615948Y-86549974D01*
X65617580Y-86555083D01*
X65620299Y-86560278D01*
X65624105Y-86565562D01*
X65627674Y-86569582D01*
X65631855Y-86573652D01*
X65636647Y-86577771D01*
X65642052Y-86581940D01*
X65648068Y-86586158D01*
X65650209Y-86587575D01*
X65654558Y-86590325D01*
X65658874Y-86592898D01*
X65663156Y-86595294D01*
X65669517Y-86598555D01*
X65675803Y-86601416D01*
X65682013Y-86603878D01*
X65688149Y-86605941D01*
X65694209Y-86607605D01*
X65700195Y-86608869D01*
X65706105Y-86609735D01*
X65711940Y-86610200D01*
X65715788Y-86610289D01*
X65720857Y-86608028D01*
X65724077Y-86603643D01*
X65726413Y-86598474D01*
X65728024Y-86593628D01*
X65729515Y-86587951D01*
X65730886Y-86581443D01*
X65732137Y-86574105D01*
X65732904Y-86568751D01*
X65733618Y-86563028D01*
X65734154Y-86557332D01*
X65734587Y-86551854D01*
X65735104Y-86544830D01*
X65735495Y-86539289D01*
X65735924Y-86533061D01*
X65736389Y-86526146D01*
X65736892Y-86518543D01*
X65737432Y-86510254D01*
X65738009Y-86501279D01*
X65738624Y-86491616D01*
X65738945Y-86486527D01*
X65739275Y-86481266D01*
X65739615Y-86475833D01*
X65739964Y-86470229D01*
X65740323Y-86464453D01*
X65740690Y-86458506D01*
X65741067Y-86452386D01*
X65741390Y-86447279D01*
X65741703Y-86442095D01*
X65742006Y-86436832D01*
X65742298Y-86431492D01*
X65742580Y-86426074D01*
X65742852Y-86420578D01*
X65743113Y-86415005D01*
X65743365Y-86409354D01*
X65743606Y-86403625D01*
X65743836Y-86397818D01*
X65744057Y-86391933D01*
X65744267Y-86385971D01*
X65744467Y-86379931D01*
X65744657Y-86373813D01*
X65744836Y-86367618D01*
X65745006Y-86361345D01*
X65745165Y-86354994D01*
X65745313Y-86348565D01*
X65745452Y-86342058D01*
X65745580Y-86335474D01*
X65745698Y-86328812D01*
X65745806Y-86322072D01*
X65745903Y-86315254D01*
X65745990Y-86308359D01*
X65746067Y-86301386D01*
X65746134Y-86294335D01*
X65746190Y-86287207D01*
X65746236Y-86280000D01*
X65746272Y-86272716D01*
X65746298Y-86265354D01*
X65746313Y-86257915D01*
X65746318Y-86250397D01*
X65746189Y-86245466D01*
X65745931Y-86239904D01*
X65745648Y-86234640D01*
X65745352Y-86229539D01*
X65745219Y-86227316D01*
X65737281Y-86227683D01*
X65732334Y-86227867D01*
X65726880Y-86227962D01*
X65720918Y-86227967D01*
X65715785Y-86227907D01*
X65710326Y-86227790D01*
X65704544Y-86227615D01*
X65698437Y-86227383D01*
X65696859Y-86227316D01*
X65691294Y-86227076D01*
X65686094Y-86226860D01*
X65679729Y-86226608D01*
X65674012Y-86226398D01*
X65668944Y-86226230D01*
X65663521Y-86226079D01*
X65658352Y-86225985D01*
X65656315Y-86225973D01*
X65651344Y-86225782D01*
X65645404Y-86225007D01*
X65639769Y-86223636D01*
X65634437Y-86221668D01*
X65629410Y-86219104D01*
X65624687Y-86215943D01*
X65621999Y-86213761D01*
X65618450Y-86210341D01*
X65614679Y-86205724D01*
X65611647Y-86200724D01*
X65609355Y-86195343D01*
X65607802Y-86189581D01*
X65607092Y-86184696D01*
X65606856Y-86179567D01*
X65607096Y-86173992D01*
X65607816Y-86168776D01*
X65609015Y-86163921D01*
X65611715Y-86157311D01*
X65615494Y-86151511D01*
X65620353Y-86146521D01*
X65626292Y-86142339D01*
X65630851Y-86140001D01*
X65635890Y-86138023D01*
X65641408Y-86136405D01*
X65647407Y-86135146D01*
X65653886Y-86134246D01*
X65660844Y-86133707D01*
X65668283Y-86133527D01*
X65673950Y-86133568D01*
X65679663Y-86133668D01*
X65685027Y-86133798D01*
X65690940Y-86133969D01*
X65696065Y-86134136D01*
X65701541Y-86134329D01*
X65702965Y-86134382D01*
X65708552Y-86134582D01*
X65713773Y-86134756D01*
X65719784Y-86134935D01*
X65725222Y-86135073D01*
X65730992Y-86135183D01*
X65735938Y-86135233D01*
X65737404Y-86135237D01*
X65743143Y-86135223D01*
X65749555Y-86135183D01*
X65754804Y-86135136D01*
X65760431Y-86135073D01*
X65766436Y-86134996D01*
X65772819Y-86134903D01*
X65779579Y-86134795D01*
X65786718Y-86134672D01*
X65791687Y-86134582D01*
X65796823Y-86134485D01*
X65802128Y-86134382D01*
X65807433Y-86134278D01*
X65812569Y-86134182D01*
X65817538Y-86134091D01*
X65824676Y-86133969D01*
X65831437Y-86133861D01*
X65837820Y-86133768D01*
X65843825Y-86133691D01*
X65849452Y-86133628D01*
X65854701Y-86133580D01*
X65861113Y-86133540D01*
X65866852Y-86133527D01*
X65872517Y-86133575D01*
X65878003Y-86133717D01*
X65883308Y-86133955D01*
X65888433Y-86134288D01*
X65893379Y-86134717D01*
X65902731Y-86135859D01*
X65911363Y-86137381D01*
X65919276Y-86139285D01*
X65926470Y-86141569D01*
X65932945Y-86144234D01*
X65938699Y-86147279D01*
X65943735Y-86150705D01*
X65948051Y-86154512D01*
X65951648Y-86158699D01*
X65954526Y-86163267D01*
X65956684Y-86168216D01*
X65958123Y-86173546D01*
X65958842Y-86179256D01*
X65958932Y-86182254D01*
X65958631Y-86187472D01*
X65957727Y-86192517D01*
X65956222Y-86197389D01*
X65954114Y-86202089D01*
X65951404Y-86206615D01*
X65948091Y-86210969D01*
X65946598Y-86212662D01*
X65942945Y-86216096D01*
X65939072Y-86219073D01*
X65933919Y-86222150D01*
X65928420Y-86224511D01*
X65922575Y-86226157D01*
X65917650Y-86226959D01*
X65912503Y-86227302D01*
X65911182Y-86227316D01*
G37*
G36*
X66175618Y-86305693D02*
G01*
X66183868Y-86306348D01*
X66191898Y-86307440D01*
X66199709Y-86308970D01*
X66207301Y-86310936D01*
X66214673Y-86313339D01*
X66221826Y-86316180D01*
X66228759Y-86319457D01*
X66235473Y-86323171D01*
X66241967Y-86327322D01*
X66248242Y-86331910D01*
X66254298Y-86336936D01*
X66260134Y-86342398D01*
X66265750Y-86348297D01*
X66271148Y-86354633D01*
X66276325Y-86361406D01*
X66280732Y-86367789D01*
X66284855Y-86374360D01*
X66288693Y-86381119D01*
X66292247Y-86388066D01*
X66295517Y-86395201D01*
X66298502Y-86402524D01*
X66301203Y-86410035D01*
X66303620Y-86417734D01*
X66305752Y-86425621D01*
X66307600Y-86433696D01*
X66309164Y-86441959D01*
X66310443Y-86450409D01*
X66311438Y-86459048D01*
X66312149Y-86467875D01*
X66312575Y-86476889D01*
X66312718Y-86486092D01*
X66312676Y-86491136D01*
X66312551Y-86496135D01*
X66312343Y-86501086D01*
X66312052Y-86505992D01*
X66311219Y-86515663D01*
X66310054Y-86525148D01*
X66308555Y-86534446D01*
X66306724Y-86543559D01*
X66304560Y-86552486D01*
X66302062Y-86561227D01*
X66299232Y-86569782D01*
X66296069Y-86578150D01*
X66292573Y-86586333D01*
X66288744Y-86594329D01*
X66284581Y-86602140D01*
X66280086Y-86609764D01*
X66275258Y-86617203D01*
X66270097Y-86624455D01*
X66267081Y-86628392D01*
X66264001Y-86632204D01*
X66257650Y-86639453D01*
X66251045Y-86646202D01*
X66244185Y-86652452D01*
X66237070Y-86658201D01*
X66229700Y-86663450D01*
X66222075Y-86668199D01*
X66214196Y-86672449D01*
X66206062Y-86676198D01*
X66197673Y-86679448D01*
X66189030Y-86682198D01*
X66180132Y-86684447D01*
X66170979Y-86686197D01*
X66161571Y-86687447D01*
X66151909Y-86688197D01*
X66146982Y-86688384D01*
X66141992Y-86688447D01*
X66134124Y-86688274D01*
X66126395Y-86687754D01*
X66118805Y-86686888D01*
X66111355Y-86685676D01*
X66104044Y-86684118D01*
X66096872Y-86682213D01*
X66089839Y-86679962D01*
X66082946Y-86677364D01*
X66076192Y-86674420D01*
X66069578Y-86671130D01*
X66063102Y-86667494D01*
X66056766Y-86663511D01*
X66050570Y-86659182D01*
X66044512Y-86654507D01*
X66038594Y-86649485D01*
X66032815Y-86644117D01*
X66026743Y-86637914D01*
X66021042Y-86631458D01*
X66015714Y-86624748D01*
X66010757Y-86617784D01*
X66006173Y-86610567D01*
X66001961Y-86603095D01*
X65998120Y-86595370D01*
X65994652Y-86587391D01*
X65991556Y-86579159D01*
X65988832Y-86570672D01*
X65986481Y-86561932D01*
X65984501Y-86552938D01*
X65982893Y-86543690D01*
X65981658Y-86534188D01*
X65980794Y-86524433D01*
X65980502Y-86519460D01*
X65980303Y-86514424D01*
X65980297Y-86513935D01*
X66075436Y-86513935D01*
X66075527Y-86519020D01*
X66075800Y-86523953D01*
X66076552Y-86531071D01*
X66077713Y-86537849D01*
X66079285Y-86544288D01*
X66081267Y-86550389D01*
X66083659Y-86556149D01*
X66086460Y-86561571D01*
X66089672Y-86566654D01*
X66093294Y-86571397D01*
X66097326Y-86575801D01*
X66098761Y-86577194D01*
X66103499Y-86581287D01*
X66108431Y-86584834D01*
X66113559Y-86587836D01*
X66118880Y-86590292D01*
X66124397Y-86592202D01*
X66130108Y-86593566D01*
X66136014Y-86594385D01*
X66142114Y-86594658D01*
X66147654Y-86594479D01*
X66153055Y-86593945D01*
X66158316Y-86593054D01*
X66163437Y-86591807D01*
X66168420Y-86590203D01*
X66173262Y-86588243D01*
X66177965Y-86585927D01*
X66182529Y-86583254D01*
X66186952Y-86580226D01*
X66191237Y-86576840D01*
X66194016Y-86574385D01*
X66198505Y-86569795D01*
X66202584Y-86564909D01*
X66206253Y-86559726D01*
X66209512Y-86554247D01*
X66212361Y-86548472D01*
X66214800Y-86542400D01*
X66216829Y-86536032D01*
X66218447Y-86529368D01*
X66219656Y-86522408D01*
X66220455Y-86515152D01*
X66220760Y-86510150D01*
X66220970Y-86503350D01*
X66221049Y-86496765D01*
X66220997Y-86490395D01*
X66220815Y-86484241D01*
X66220503Y-86478301D01*
X66220060Y-86472577D01*
X66219487Y-86467068D01*
X66218783Y-86461774D01*
X66217949Y-86456695D01*
X66216984Y-86451832D01*
X66214664Y-86442750D01*
X66211821Y-86434529D01*
X66208456Y-86427168D01*
X66204570Y-86420668D01*
X66200162Y-86415028D01*
X66195232Y-86410249D01*
X66189779Y-86406331D01*
X66183806Y-86403273D01*
X66177310Y-86401076D01*
X66170292Y-86399739D01*
X66162752Y-86399263D01*
X66157540Y-86399371D01*
X66152468Y-86399784D01*
X66147534Y-86400504D01*
X66142740Y-86401530D01*
X66135810Y-86403644D01*
X66129193Y-86406446D01*
X66122890Y-86409938D01*
X66116900Y-86414118D01*
X66113081Y-86417288D01*
X66109401Y-86420764D01*
X66105860Y-86424547D01*
X66102459Y-86428635D01*
X66099197Y-86433030D01*
X66096074Y-86437732D01*
X66092386Y-86443942D01*
X66089060Y-86450345D01*
X66086098Y-86456942D01*
X66083498Y-86463732D01*
X66081260Y-86470715D01*
X66079970Y-86475478D01*
X66078842Y-86480326D01*
X66077874Y-86485261D01*
X66077068Y-86490281D01*
X66076423Y-86495387D01*
X66075940Y-86500579D01*
X66075617Y-86505857D01*
X66075456Y-86511221D01*
X66075436Y-86513935D01*
X65980297Y-86513935D01*
X65980179Y-86504842D01*
X65980418Y-86495390D01*
X65981019Y-86486069D01*
X65981982Y-86476879D01*
X65983308Y-86467820D01*
X65984997Y-86458891D01*
X65987048Y-86450093D01*
X65989462Y-86441426D01*
X65992239Y-86432889D01*
X65995377Y-86424483D01*
X65998879Y-86416208D01*
X66002743Y-86408064D01*
X66006969Y-86400050D01*
X66011559Y-86392167D01*
X66016510Y-86384415D01*
X66021824Y-86376793D01*
X66025131Y-86372405D01*
X66028517Y-86368157D01*
X66031983Y-86364047D01*
X66035529Y-86360078D01*
X66039154Y-86356247D01*
X66042859Y-86352556D01*
X66046643Y-86349004D01*
X66050508Y-86345591D01*
X66054452Y-86342317D01*
X66058475Y-86339183D01*
X66062578Y-86336189D01*
X66066761Y-86333333D01*
X66071024Y-86330617D01*
X66075366Y-86328040D01*
X66079788Y-86325602D01*
X66084289Y-86323304D01*
X66088871Y-86321145D01*
X66093532Y-86319125D01*
X66098272Y-86317244D01*
X66103092Y-86315503D01*
X66107992Y-86313901D01*
X66112972Y-86312439D01*
X66118031Y-86311115D01*
X66123170Y-86309931D01*
X66128388Y-86308887D01*
X66133687Y-86307981D01*
X66139064Y-86307215D01*
X66144522Y-86306588D01*
X66150059Y-86306101D01*
X66155676Y-86305753D01*
X66161373Y-86305544D01*
X66167149Y-86305474D01*
X66175618Y-86305693D01*
G37*
G36*
X66610205Y-86422711D02*
G01*
X66604056Y-86422521D01*
X66598386Y-86421951D01*
X66593194Y-86421001D01*
X66588481Y-86419671D01*
X66582942Y-86417307D01*
X66578253Y-86414267D01*
X66574416Y-86410552D01*
X66571430Y-86406161D01*
X66569295Y-86401095D01*
X66564136Y-86400473D01*
X66558916Y-86399979D01*
X66553637Y-86399614D01*
X66548297Y-86399378D01*
X66542898Y-86399270D01*
X66541085Y-86399263D01*
X66535998Y-86399283D01*
X66531073Y-86399343D01*
X66521707Y-86399582D01*
X66512988Y-86399980D01*
X66504914Y-86400538D01*
X66497486Y-86401255D01*
X66490704Y-86402131D01*
X66484568Y-86403167D01*
X66479077Y-86404362D01*
X66474233Y-86405716D01*
X66468178Y-86408046D01*
X66463576Y-86410735D01*
X66459700Y-86414878D01*
X66458408Y-86419658D01*
X66460160Y-86424420D01*
X66464296Y-86428809D01*
X66469356Y-86432595D01*
X66474174Y-86435594D01*
X66479867Y-86438731D01*
X66486435Y-86442006D01*
X66491301Y-86444265D01*
X66496556Y-86446585D01*
X66502200Y-86448967D01*
X66508234Y-86451409D01*
X66516550Y-86454752D01*
X66524524Y-86458002D01*
X66532155Y-86461159D01*
X66539444Y-86464224D01*
X66546390Y-86467197D01*
X66552993Y-86470077D01*
X66559254Y-86472864D01*
X66565173Y-86475559D01*
X66570749Y-86478161D01*
X66575983Y-86480671D01*
X66580874Y-86483088D01*
X66585422Y-86485412D01*
X66591603Y-86488726D01*
X66597013Y-86491831D01*
X66600191Y-86493785D01*
X66606225Y-86497767D01*
X66611869Y-86501866D01*
X66617124Y-86506083D01*
X66621990Y-86510417D01*
X66626467Y-86514868D01*
X66630554Y-86519436D01*
X66634252Y-86524122D01*
X66637561Y-86528926D01*
X66640480Y-86533846D01*
X66643010Y-86538884D01*
X66645151Y-86544040D01*
X66646903Y-86549312D01*
X66648265Y-86554702D01*
X66649238Y-86560210D01*
X66649822Y-86565835D01*
X66650017Y-86571577D01*
X66649802Y-86579034D01*
X66649158Y-86586262D01*
X66648085Y-86593261D01*
X66646582Y-86600031D01*
X66644650Y-86606572D01*
X66642289Y-86612884D01*
X66639498Y-86618967D01*
X66636278Y-86624822D01*
X66632629Y-86630447D01*
X66628550Y-86635843D01*
X66624042Y-86641010D01*
X66619105Y-86645949D01*
X66613738Y-86650658D01*
X66607942Y-86655138D01*
X66601717Y-86659390D01*
X66595062Y-86663412D01*
X66589442Y-86666443D01*
X66583663Y-86669279D01*
X66577726Y-86671920D01*
X66571630Y-86674365D01*
X66565376Y-86676614D01*
X66558964Y-86678668D01*
X66552393Y-86680526D01*
X66545664Y-86682188D01*
X66538777Y-86683655D01*
X66531731Y-86684926D01*
X66524527Y-86686002D01*
X66517164Y-86686882D01*
X66509643Y-86687567D01*
X66501964Y-86688056D01*
X66494126Y-86688349D01*
X66486130Y-86688447D01*
X66480452Y-86688385D01*
X66474836Y-86688201D01*
X66469282Y-86687893D01*
X66463789Y-86687462D01*
X66458359Y-86686908D01*
X66452991Y-86686231D01*
X66447685Y-86685431D01*
X66442441Y-86684508D01*
X66437259Y-86683462D01*
X66432139Y-86682293D01*
X66427081Y-86681001D01*
X66422085Y-86679585D01*
X66417151Y-86678047D01*
X66412279Y-86676385D01*
X66407469Y-86674601D01*
X66402721Y-86672693D01*
X66396480Y-86669942D01*
X66390642Y-86667032D01*
X66385207Y-86663962D01*
X66380174Y-86660733D01*
X66375544Y-86657344D01*
X66371317Y-86653797D01*
X66367492Y-86650090D01*
X66364070Y-86646223D01*
X66361050Y-86642198D01*
X66358433Y-86638013D01*
X66355262Y-86631436D01*
X66352998Y-86624501D01*
X66351991Y-86619679D01*
X66351387Y-86614697D01*
X66351186Y-86609556D01*
X66351545Y-86602704D01*
X66352624Y-86596525D01*
X66354422Y-86591020D01*
X66356939Y-86586189D01*
X66360175Y-86582033D01*
X66364130Y-86578550D01*
X66368805Y-86575741D01*
X66374198Y-86573607D01*
X66380311Y-86572146D01*
X66387142Y-86571360D01*
X66392096Y-86571210D01*
X66397365Y-86571496D01*
X66403326Y-86572355D01*
X66408592Y-86573454D01*
X66414302Y-86574920D01*
X66420453Y-86576752D01*
X66425358Y-86578366D01*
X66430511Y-86580186D01*
X66435914Y-86582213D01*
X66437770Y-86582934D01*
X66443259Y-86585029D01*
X66448505Y-86586918D01*
X66453508Y-86588601D01*
X66458269Y-86590078D01*
X66464240Y-86591727D01*
X66469779Y-86593009D01*
X66474887Y-86593925D01*
X66480666Y-86594555D01*
X66483810Y-86594658D01*
X66492255Y-86594559D01*
X66500159Y-86594263D01*
X66507520Y-86593769D01*
X66514340Y-86593078D01*
X66520618Y-86592189D01*
X66526354Y-86591103D01*
X66531548Y-86589819D01*
X66538323Y-86587523D01*
X66543878Y-86584783D01*
X66548214Y-86581598D01*
X66552099Y-86576661D01*
X66553817Y-86570934D01*
X66553907Y-86569378D01*
X66552724Y-86564393D01*
X66549173Y-86559282D01*
X66544628Y-86555103D01*
X66540224Y-86551916D01*
X66534969Y-86548685D01*
X66528861Y-86545408D01*
X66524316Y-86543198D01*
X66519392Y-86540968D01*
X66514089Y-86538719D01*
X66508408Y-86536449D01*
X66505425Y-86535307D01*
X66496785Y-86532007D01*
X66488542Y-86528825D01*
X66480696Y-86525760D01*
X66473246Y-86522812D01*
X66466194Y-86519982D01*
X66459538Y-86517269D01*
X66453279Y-86514673D01*
X66447418Y-86512195D01*
X66441953Y-86509834D01*
X66436885Y-86507591D01*
X66432213Y-86505465D01*
X66425951Y-86502495D01*
X66420581Y-86499790D01*
X66416105Y-86497349D01*
X66414811Y-86496594D01*
X66408940Y-86492862D01*
X66403448Y-86488961D01*
X66398335Y-86484893D01*
X66393600Y-86480657D01*
X66389244Y-86476253D01*
X66385267Y-86471681D01*
X66381669Y-86466941D01*
X66378449Y-86462034D01*
X66375609Y-86456958D01*
X66373147Y-86451714D01*
X66371063Y-86446303D01*
X66369359Y-86440724D01*
X66368033Y-86434976D01*
X66367086Y-86429061D01*
X66366518Y-86422978D01*
X66366329Y-86416727D01*
X66366615Y-86407949D01*
X66367472Y-86399536D01*
X66368901Y-86391489D01*
X66370901Y-86383807D01*
X66373473Y-86376491D01*
X66376616Y-86369540D01*
X66380330Y-86362955D01*
X66384617Y-86356734D01*
X66389474Y-86350880D01*
X66394903Y-86345391D01*
X66400904Y-86340267D01*
X66407476Y-86335508D01*
X66414620Y-86331115D01*
X66422335Y-86327088D01*
X66430622Y-86323425D01*
X66439480Y-86320129D01*
X66445027Y-86318354D01*
X66450923Y-86316694D01*
X66457167Y-86315148D01*
X66463759Y-86313717D01*
X66470699Y-86312401D01*
X66477988Y-86311198D01*
X66485625Y-86310111D01*
X66493610Y-86309138D01*
X66501943Y-86308279D01*
X66510625Y-86307535D01*
X66519655Y-86306905D01*
X66529033Y-86306390D01*
X66538759Y-86305989D01*
X66543753Y-86305832D01*
X66548834Y-86305703D01*
X66554001Y-86305603D01*
X66559256Y-86305531D01*
X66564598Y-86305488D01*
X66570027Y-86305474D01*
X66576305Y-86305555D01*
X66582269Y-86305796D01*
X66587920Y-86306199D01*
X66593257Y-86306762D01*
X66598281Y-86307487D01*
X66604492Y-86308703D01*
X66610146Y-86310206D01*
X66615243Y-86311995D01*
X66619782Y-86314070D01*
X66620830Y-86314633D01*
X66626154Y-86318009D01*
X66630768Y-86322029D01*
X66634672Y-86326695D01*
X66637866Y-86332005D01*
X66640350Y-86337960D01*
X66641748Y-86342850D01*
X66642746Y-86348103D01*
X66643345Y-86353718D01*
X66643545Y-86359696D01*
X66643414Y-86367327D01*
X66643024Y-86374465D01*
X66642372Y-86381111D01*
X66641461Y-86387265D01*
X66640289Y-86392926D01*
X66638856Y-86398095D01*
X66637163Y-86402772D01*
X66634135Y-86408865D01*
X66630521Y-86413849D01*
X66626321Y-86417726D01*
X66621535Y-86420495D01*
X66616163Y-86422157D01*
X66610205Y-86422711D01*
G37*
G36*
X66810851Y-86354689D02*
G01*
X66815577Y-86350151D01*
X66820368Y-86345835D01*
X66825223Y-86341739D01*
X66830142Y-86337865D01*
X66835126Y-86334212D01*
X66840174Y-86330779D01*
X66845287Y-86327568D01*
X66850464Y-86324578D01*
X66855705Y-86321810D01*
X66861011Y-86319262D01*
X66864584Y-86317686D01*
X66870001Y-86315504D01*
X66875488Y-86313536D01*
X66881046Y-86311783D01*
X66886675Y-86310244D01*
X66892375Y-86308921D01*
X66898145Y-86307812D01*
X66903987Y-86306917D01*
X66909899Y-86306237D01*
X66915882Y-86305772D01*
X66921936Y-86305522D01*
X66926011Y-86305474D01*
X66933225Y-86305602D01*
X66940181Y-86305987D01*
X66946880Y-86306629D01*
X66953321Y-86307527D01*
X66959504Y-86308682D01*
X66965430Y-86310094D01*
X66971098Y-86311762D01*
X66976509Y-86313687D01*
X66981662Y-86315868D01*
X66986557Y-86318306D01*
X66991195Y-86321001D01*
X66995575Y-86323953D01*
X66999697Y-86327161D01*
X67003562Y-86330625D01*
X67007170Y-86334347D01*
X67010519Y-86338325D01*
X67013982Y-86343160D01*
X67017181Y-86348461D01*
X67020116Y-86354228D01*
X67022787Y-86360461D01*
X67025194Y-86367160D01*
X67026651Y-86371884D01*
X67027992Y-86376816D01*
X67029215Y-86381955D01*
X67030321Y-86387300D01*
X67031309Y-86392853D01*
X67032180Y-86398613D01*
X67032934Y-86404579D01*
X67033570Y-86410753D01*
X67033845Y-86413918D01*
X67034060Y-86419171D01*
X67034278Y-86424426D01*
X67034499Y-86429684D01*
X67034722Y-86434946D01*
X67034949Y-86440210D01*
X67035178Y-86445477D01*
X67035411Y-86450747D01*
X67035646Y-86456019D01*
X67035884Y-86461295D01*
X67036125Y-86466573D01*
X67036369Y-86471854D01*
X67036615Y-86477139D01*
X67036865Y-86482426D01*
X67037117Y-86487715D01*
X67037372Y-86493008D01*
X67037630Y-86498304D01*
X67038301Y-86505020D01*
X67038939Y-86511399D01*
X67039545Y-86517442D01*
X67040119Y-86523148D01*
X67040660Y-86528517D01*
X67041168Y-86533549D01*
X67041870Y-86540466D01*
X67042499Y-86546625D01*
X67043055Y-86552027D01*
X67043683Y-86558050D01*
X67044285Y-86563684D01*
X67044469Y-86565348D01*
X67045380Y-86572385D01*
X67046328Y-86579252D01*
X67047312Y-86585949D01*
X67048333Y-86592477D01*
X67049390Y-86598835D01*
X67050484Y-86605023D01*
X67051614Y-86611042D01*
X67052781Y-86616891D01*
X67053984Y-86622571D01*
X67055224Y-86628081D01*
X67056071Y-86631660D01*
X67057113Y-86636824D01*
X67057699Y-86641875D01*
X67057780Y-86644361D01*
X67057423Y-86650189D01*
X67056349Y-86655688D01*
X67054560Y-86660860D01*
X67052056Y-86665704D01*
X67048836Y-86670219D01*
X67044900Y-86674407D01*
X67043126Y-86675990D01*
X67038462Y-86679579D01*
X67033554Y-86682559D01*
X67028401Y-86684931D01*
X67023004Y-86686695D01*
X67017363Y-86687851D01*
X67011477Y-86688398D01*
X67009054Y-86688447D01*
X67002766Y-86688148D01*
X66996907Y-86687253D01*
X66991477Y-86685761D01*
X66986477Y-86683673D01*
X66981906Y-86680987D01*
X66977764Y-86677705D01*
X66974052Y-86673826D01*
X66970769Y-86669350D01*
X66967915Y-86664278D01*
X66965491Y-86658608D01*
X66964113Y-86654497D01*
X66962569Y-86649148D01*
X66961051Y-86643403D01*
X66959558Y-86637264D01*
X66958091Y-86630729D01*
X66956650Y-86623800D01*
X66955704Y-86618961D01*
X66954769Y-86613946D01*
X66953845Y-86608756D01*
X66952933Y-86603390D01*
X66952032Y-86597849D01*
X66951143Y-86592132D01*
X66950265Y-86586240D01*
X66949399Y-86580172D01*
X66948970Y-86577072D01*
X66948216Y-86571155D01*
X66947510Y-86565371D01*
X66946854Y-86559721D01*
X66946245Y-86554205D01*
X66945686Y-86548822D01*
X66945175Y-86543573D01*
X66944713Y-86538457D01*
X66944299Y-86533475D01*
X66943770Y-86526252D01*
X66943350Y-86519330D01*
X66943040Y-86512708D01*
X66942839Y-86506387D01*
X66942748Y-86500366D01*
X66942742Y-86498426D01*
X66942810Y-86492941D01*
X66942956Y-86487740D01*
X66943146Y-86482631D01*
X66943396Y-86476921D01*
X66943597Y-86472780D01*
X66943878Y-86467614D01*
X66944153Y-86461981D01*
X66944359Y-86456967D01*
X66944513Y-86451898D01*
X66944574Y-86447135D01*
X66944562Y-86441176D01*
X66944528Y-86435877D01*
X66944453Y-86430182D01*
X66944316Y-86424709D01*
X66944052Y-86419723D01*
X66943841Y-86417948D01*
X66942601Y-86412565D01*
X66940357Y-86407310D01*
X66937289Y-86403369D01*
X66932667Y-86400431D01*
X66927813Y-86399336D01*
X66926011Y-86399263D01*
X66918930Y-86399565D01*
X66911972Y-86400470D01*
X66905139Y-86401978D01*
X66898431Y-86404089D01*
X66891847Y-86406803D01*
X66885388Y-86410121D01*
X66881151Y-86412668D01*
X66876969Y-86415483D01*
X66872843Y-86418566D01*
X66868772Y-86421917D01*
X66864756Y-86425537D01*
X66860796Y-86429424D01*
X66856891Y-86433579D01*
X66852769Y-86438338D01*
X66849437Y-86442544D01*
X66845900Y-86447294D01*
X66842156Y-86452590D01*
X66838206Y-86458431D01*
X66835458Y-86462628D01*
X66832619Y-86467067D01*
X66829688Y-86471749D01*
X66826666Y-86476673D01*
X66823551Y-86481839D01*
X66820346Y-86487248D01*
X66817049Y-86492899D01*
X66813660Y-86498792D01*
X66813648Y-86506300D01*
X66813612Y-86513618D01*
X66813553Y-86520747D01*
X66813471Y-86527687D01*
X66813364Y-86534438D01*
X66813235Y-86541000D01*
X66813081Y-86547373D01*
X66812904Y-86553556D01*
X66812703Y-86559550D01*
X66812479Y-86565356D01*
X66812231Y-86570972D01*
X66811959Y-86576398D01*
X66811664Y-86581636D01*
X66811346Y-86586685D01*
X66810637Y-86596215D01*
X66809834Y-86604988D01*
X66808937Y-86613004D01*
X66807945Y-86620264D01*
X66806859Y-86626768D01*
X66805678Y-86632515D01*
X66804403Y-86637505D01*
X66802313Y-86643572D01*
X66801570Y-86645216D01*
X66798912Y-86650148D01*
X66795978Y-86654595D01*
X66792767Y-86658557D01*
X66789279Y-86662034D01*
X66784198Y-86665915D01*
X66778624Y-86668934D01*
X66772558Y-86671090D01*
X66767686Y-86672141D01*
X66762536Y-86672707D01*
X66758949Y-86672815D01*
X66753059Y-86672502D01*
X66747372Y-86671563D01*
X66741887Y-86669998D01*
X66736605Y-86667806D01*
X66731526Y-86664989D01*
X66726649Y-86661545D01*
X66724755Y-86659993D01*
X66720463Y-86655842D01*
X66716898Y-86651406D01*
X66714061Y-86646683D01*
X66711952Y-86641674D01*
X66710569Y-86636379D01*
X66709915Y-86630798D01*
X66709856Y-86628485D01*
X66710304Y-86623429D01*
X66711335Y-86618391D01*
X66712755Y-86613231D01*
X66713642Y-86610411D01*
X66714532Y-86604863D01*
X66715097Y-86598154D01*
X66715506Y-86591542D01*
X66715771Y-86586381D01*
X66716030Y-86580618D01*
X66716284Y-86574254D01*
X66716532Y-86567287D01*
X66716775Y-86559719D01*
X66717011Y-86551548D01*
X66717242Y-86542775D01*
X66717467Y-86533400D01*
X66717578Y-86528487D01*
X66717687Y-86523424D01*
X66717794Y-86518210D01*
X66717596Y-86509275D01*
X66717430Y-86499628D01*
X66717358Y-86494538D01*
X66717295Y-86489270D01*
X66717239Y-86483824D01*
X66717191Y-86478200D01*
X66717151Y-86472398D01*
X66717119Y-86466418D01*
X66717095Y-86460260D01*
X66717079Y-86453924D01*
X66717070Y-86447410D01*
X66717070Y-86440719D01*
X66717077Y-86433849D01*
X66717092Y-86426802D01*
X66717115Y-86419576D01*
X66717146Y-86412173D01*
X66717185Y-86404592D01*
X66717231Y-86396832D01*
X66717286Y-86388895D01*
X66717348Y-86380780D01*
X66717419Y-86372487D01*
X66717497Y-86364016D01*
X66717583Y-86355367D01*
X66717677Y-86346540D01*
X66717778Y-86337535D01*
X66717888Y-86328353D01*
X66718005Y-86318992D01*
X66718131Y-86309453D01*
X66718264Y-86299737D01*
X66718405Y-86289842D01*
X66719138Y-86278607D01*
X66719389Y-86273674D01*
X66719736Y-86266666D01*
X66720046Y-86260129D01*
X66720320Y-86254061D01*
X66720557Y-86248464D01*
X66720758Y-86243337D01*
X66720968Y-86237231D01*
X66721114Y-86231962D01*
X66721206Y-86226551D01*
X66721214Y-86224752D01*
X66721056Y-86219624D01*
X66720670Y-86214467D01*
X66720051Y-86208605D01*
X66719359Y-86203182D01*
X66718506Y-86197270D01*
X66717916Y-86193489D01*
X66717172Y-86188486D01*
X66716382Y-86182672D01*
X66715746Y-86177347D01*
X66715188Y-86171602D01*
X66714853Y-86166562D01*
X66714741Y-86162226D01*
X66715084Y-86156328D01*
X66716113Y-86150770D01*
X66717827Y-86145551D01*
X66720227Y-86140673D01*
X66723313Y-86136135D01*
X66727085Y-86131936D01*
X66728785Y-86130352D01*
X66733352Y-86126763D01*
X66738200Y-86123783D01*
X66743327Y-86121411D01*
X66748735Y-86119647D01*
X66754423Y-86118492D01*
X66760391Y-86117944D01*
X66762857Y-86117896D01*
X66769027Y-86118216D01*
X66774807Y-86119179D01*
X66780196Y-86120784D01*
X66785194Y-86123030D01*
X66789801Y-86125919D01*
X66794018Y-86129449D01*
X66797844Y-86133621D01*
X66801280Y-86138435D01*
X66804324Y-86143891D01*
X66806978Y-86149988D01*
X66808531Y-86154410D01*
X66810048Y-86159943D01*
X66811362Y-86166164D01*
X66812216Y-86171280D01*
X66812955Y-86176783D01*
X66813581Y-86182672D01*
X66814093Y-86188947D01*
X66814491Y-86195609D01*
X66814775Y-86202657D01*
X66814902Y-86207571D01*
X66814978Y-86212656D01*
X66815003Y-86217913D01*
X66814985Y-86224380D01*
X66814930Y-86230866D01*
X66814839Y-86237371D01*
X66814711Y-86243896D01*
X66814547Y-86250440D01*
X66814346Y-86257004D01*
X66814109Y-86263586D01*
X66813835Y-86270189D01*
X66813525Y-86276810D01*
X66813178Y-86283451D01*
X66812927Y-86287889D01*
X66812556Y-86294224D01*
X66812221Y-86300544D01*
X66811923Y-86306849D01*
X66811662Y-86313139D01*
X66811437Y-86319414D01*
X66811248Y-86325674D01*
X66811096Y-86331919D01*
X66810981Y-86338149D01*
X66810902Y-86344364D01*
X66810859Y-86350564D01*
X66810851Y-86354689D01*
G37*
G36*
X67413764Y-86467407D02*
G01*
X67413770Y-86473383D01*
X67413782Y-86478336D01*
X67413800Y-86483693D01*
X67413825Y-86489453D01*
X67413856Y-86495617D01*
X67413893Y-86502184D01*
X67413937Y-86509155D01*
X67413988Y-86516530D01*
X67414025Y-86521670D01*
X67414065Y-86526990D01*
X67414108Y-86532490D01*
X67414131Y-86535307D01*
X67414175Y-86540881D01*
X67414217Y-86546276D01*
X67414255Y-86551494D01*
X67414291Y-86556533D01*
X67414339Y-86563757D01*
X67414381Y-86570579D01*
X67414417Y-86577000D01*
X67414446Y-86583020D01*
X67414468Y-86588638D01*
X67414484Y-86593855D01*
X67414496Y-86600186D01*
X67414497Y-86603084D01*
X67414604Y-86608179D01*
X67414845Y-86613216D01*
X67415168Y-86618325D01*
X67415529Y-86623225D01*
X67415596Y-86624089D01*
X67416011Y-86629069D01*
X67416387Y-86634272D01*
X67416673Y-86639416D01*
X67416816Y-86644644D01*
X67416817Y-86645094D01*
X67416477Y-86650810D01*
X67415458Y-86656204D01*
X67413758Y-86661276D01*
X67411379Y-86666026D01*
X67408320Y-86670454D01*
X67404581Y-86674560D01*
X67402896Y-86676113D01*
X67398390Y-86679666D01*
X67393574Y-86682617D01*
X67388448Y-86684966D01*
X67383013Y-86686712D01*
X67377267Y-86687857D01*
X67371211Y-86688399D01*
X67368702Y-86688447D01*
X67363502Y-86688236D01*
X67358572Y-86687605D01*
X67352420Y-86686109D01*
X67346749Y-86683865D01*
X67341559Y-86680873D01*
X67336850Y-86677133D01*
X67332621Y-86672645D01*
X67328874Y-86667409D01*
X67327180Y-86664511D01*
X67321673Y-86666463D01*
X67316142Y-86668289D01*
X67310587Y-86669989D01*
X67305008Y-86671564D01*
X67299405Y-86673012D01*
X67293778Y-86674334D01*
X67288128Y-86675531D01*
X67282453Y-86676601D01*
X67276755Y-86677546D01*
X67271033Y-86678364D01*
X67265287Y-86679057D01*
X67259517Y-86679624D01*
X67253724Y-86680064D01*
X67247906Y-86680379D01*
X67242065Y-86680568D01*
X67236200Y-86680631D01*
X67230154Y-86680552D01*
X67224230Y-86680316D01*
X67218427Y-86679923D01*
X67212745Y-86679372D01*
X67207184Y-86678663D01*
X67201744Y-86677797D01*
X67196426Y-86676774D01*
X67191229Y-86675594D01*
X67186152Y-86674255D01*
X67181197Y-86672760D01*
X67176364Y-86671107D01*
X67171651Y-86669297D01*
X67167059Y-86667329D01*
X67162589Y-86665204D01*
X67158240Y-86662921D01*
X67154012Y-86660481D01*
X67149459Y-86657513D01*
X67145141Y-86654379D01*
X67141059Y-86651079D01*
X67137213Y-86647612D01*
X67133602Y-86643980D01*
X67130227Y-86640182D01*
X67127088Y-86636218D01*
X67124184Y-86632088D01*
X67121516Y-86627792D01*
X67119083Y-86623329D01*
X67116887Y-86618701D01*
X67114926Y-86613907D01*
X67113200Y-86608947D01*
X67111710Y-86603820D01*
X67110456Y-86598528D01*
X67109438Y-86593070D01*
X67108611Y-86587844D01*
X67107811Y-86582652D01*
X67107037Y-86577496D01*
X67106289Y-86572374D01*
X67105568Y-86567287D01*
X67104872Y-86562235D01*
X67104203Y-86557218D01*
X67103561Y-86552236D01*
X67102944Y-86547288D01*
X67102354Y-86542375D01*
X67101790Y-86537497D01*
X67100740Y-86527846D01*
X67099796Y-86518334D01*
X67098956Y-86508961D01*
X67098221Y-86499727D01*
X67097592Y-86490633D01*
X67097067Y-86481678D01*
X67096647Y-86472863D01*
X67096332Y-86464186D01*
X67096122Y-86455649D01*
X67096018Y-86447252D01*
X67096004Y-86443105D01*
X67096044Y-86437592D01*
X67096165Y-86431984D01*
X67096365Y-86426281D01*
X67096646Y-86420482D01*
X67097006Y-86414588D01*
X67097447Y-86408598D01*
X67097968Y-86402513D01*
X67098569Y-86396332D01*
X67099250Y-86390056D01*
X67100011Y-86383685D01*
X67100853Y-86377218D01*
X67101775Y-86370656D01*
X67102776Y-86363999D01*
X67103858Y-86357246D01*
X67105020Y-86350398D01*
X67106263Y-86343454D01*
X67107833Y-86336666D01*
X67109978Y-86330547D01*
X67112698Y-86325094D01*
X67115994Y-86320310D01*
X67119865Y-86316193D01*
X67124312Y-86312744D01*
X67129334Y-86309962D01*
X67134931Y-86307848D01*
X67141103Y-86306401D01*
X67147851Y-86305622D01*
X67152669Y-86305474D01*
X67157554Y-86305663D01*
X67163402Y-86306430D01*
X67168964Y-86307788D01*
X67174240Y-86309736D01*
X67179230Y-86312275D01*
X67183934Y-86315403D01*
X67186618Y-86317564D01*
X67190700Y-86321462D01*
X67194089Y-86325676D01*
X67196787Y-86330206D01*
X67198792Y-86335052D01*
X67200107Y-86340214D01*
X67200729Y-86345693D01*
X67200785Y-86347972D01*
X67200662Y-86352916D01*
X67200296Y-86358665D01*
X67199826Y-86363844D01*
X67199200Y-86369538D01*
X67198418Y-86375747D01*
X67197729Y-86380742D01*
X67196951Y-86386026D01*
X67196086Y-86391601D01*
X67195778Y-86393524D01*
X67194883Y-86399187D01*
X67194076Y-86404590D01*
X67193357Y-86409734D01*
X67192726Y-86414618D01*
X67192022Y-86420726D01*
X67191475Y-86426372D01*
X67191084Y-86431557D01*
X67190815Y-86437388D01*
X67190771Y-86440540D01*
X67190783Y-86446311D01*
X67190822Y-86451989D01*
X67190887Y-86457576D01*
X67190977Y-86463072D01*
X67191093Y-86468476D01*
X67191234Y-86473788D01*
X67191402Y-86479009D01*
X67191595Y-86484138D01*
X67191814Y-86489175D01*
X67192059Y-86494121D01*
X67192474Y-86501368D01*
X67192947Y-86508409D01*
X67193479Y-86515244D01*
X67194068Y-86521873D01*
X67194714Y-86528271D01*
X67195416Y-86534458D01*
X67196174Y-86540435D01*
X67196987Y-86546202D01*
X67197857Y-86551758D01*
X67198782Y-86557104D01*
X67199763Y-86562240D01*
X67200800Y-86567165D01*
X67202269Y-86573405D01*
X67203838Y-86579270D01*
X67208607Y-86581196D01*
X67213300Y-86582851D01*
X67218423Y-86584373D01*
X67220446Y-86584888D01*
X67225488Y-86585918D01*
X67230388Y-86586567D01*
X67235611Y-86586840D01*
X67236078Y-86586842D01*
X67243310Y-86586748D01*
X67248205Y-86586582D01*
X67253157Y-86586333D01*
X67258168Y-86586001D01*
X67263237Y-86585586D01*
X67268364Y-86585088D01*
X67273549Y-86584507D01*
X67278793Y-86583843D01*
X67284095Y-86583096D01*
X67289455Y-86582266D01*
X67294873Y-86581353D01*
X67300349Y-86580357D01*
X67305884Y-86579278D01*
X67311477Y-86578116D01*
X67317128Y-86576871D01*
X67319975Y-86576217D01*
X67319969Y-86569728D01*
X67319958Y-86564718D01*
X67319939Y-86559585D01*
X67319915Y-86554331D01*
X67319883Y-86548954D01*
X67319846Y-86543454D01*
X67319802Y-86537832D01*
X67319751Y-86532088D01*
X67319695Y-86526222D01*
X67319631Y-86520233D01*
X67319609Y-86518210D01*
X67319478Y-86511120D01*
X67319360Y-86504415D01*
X67319255Y-86498094D01*
X67319162Y-86492158D01*
X67319083Y-86486605D01*
X67319016Y-86481437D01*
X67318948Y-86475144D01*
X67318902Y-86469534D01*
X67318879Y-86464607D01*
X67318876Y-86462400D01*
X67318902Y-86453970D01*
X67318979Y-86445685D01*
X67319108Y-86437545D01*
X67319288Y-86429549D01*
X67319520Y-86421699D01*
X67319803Y-86413994D01*
X67320138Y-86406434D01*
X67320525Y-86399019D01*
X67320963Y-86391749D01*
X67321452Y-86384624D01*
X67321993Y-86377644D01*
X67322585Y-86370809D01*
X67323229Y-86364119D01*
X67323925Y-86357574D01*
X67324672Y-86351174D01*
X67325471Y-86344919D01*
X67326752Y-86337870D01*
X67328673Y-86331514D01*
X67331234Y-86325851D01*
X67334435Y-86320882D01*
X67338275Y-86316607D01*
X67342755Y-86313024D01*
X67347875Y-86310135D01*
X67353635Y-86307939D01*
X67360034Y-86306437D01*
X67367073Y-86305628D01*
X67372121Y-86305474D01*
X67377097Y-86305669D01*
X67383060Y-86306459D01*
X67388737Y-86307858D01*
X67394128Y-86309865D01*
X67399232Y-86312481D01*
X67404050Y-86315704D01*
X67406803Y-86317930D01*
X67410963Y-86321978D01*
X67414360Y-86326336D01*
X67416993Y-86331004D01*
X67418863Y-86335981D01*
X67419970Y-86341269D01*
X67420313Y-86346867D01*
X67420237Y-86349193D01*
X67419839Y-86357058D01*
X67419453Y-86364653D01*
X67419080Y-86371980D01*
X67418720Y-86379037D01*
X67418372Y-86385825D01*
X67418037Y-86392344D01*
X67417715Y-86398594D01*
X67417405Y-86404576D01*
X67417108Y-86410288D01*
X67416824Y-86415731D01*
X67416552Y-86420905D01*
X67416293Y-86425809D01*
X67415812Y-86434812D01*
X67415382Y-86442739D01*
X67415003Y-86449589D01*
X67414675Y-86455363D01*
X67414276Y-86462006D01*
X67413922Y-86467097D01*
X67413764Y-86467407D01*
G37*
G36*
X67674713Y-86305634D02*
G01*
X67681098Y-86306114D01*
X67687662Y-86306913D01*
X67694407Y-86308033D01*
X67701332Y-86309472D01*
X67708438Y-86311231D01*
X67713275Y-86312582D01*
X67718192Y-86314075D01*
X67723189Y-86315709D01*
X67728267Y-86317486D01*
X67733425Y-86319405D01*
X67738663Y-86321467D01*
X67743981Y-86323670D01*
X67750266Y-86326446D01*
X67756145Y-86329276D01*
X67761619Y-86332162D01*
X67766688Y-86335104D01*
X67771351Y-86338100D01*
X67775608Y-86341153D01*
X67779460Y-86344260D01*
X67784478Y-86349025D01*
X67788584Y-86353914D01*
X67791777Y-86358928D01*
X67794058Y-86364067D01*
X67795426Y-86369329D01*
X67795882Y-86374717D01*
X67795502Y-86379914D01*
X67794363Y-86384818D01*
X67792464Y-86389430D01*
X67789805Y-86393751D01*
X67787944Y-86396088D01*
X67786714Y-86401375D01*
X67785586Y-86407159D01*
X67784725Y-86412360D01*
X67783935Y-86417907D01*
X67783217Y-86423799D01*
X67782695Y-86428763D01*
X67782571Y-86430038D01*
X67782142Y-86435245D01*
X67781770Y-86440670D01*
X67781455Y-86446312D01*
X67781197Y-86452172D01*
X67780997Y-86458250D01*
X67780854Y-86464545D01*
X67780768Y-86471057D01*
X67780741Y-86476084D01*
X67780739Y-86477787D01*
X67780775Y-86485721D01*
X67780884Y-86493373D01*
X67781066Y-86500742D01*
X67781319Y-86507829D01*
X67781646Y-86514634D01*
X67782044Y-86521156D01*
X67782516Y-86527395D01*
X67783060Y-86533353D01*
X67783676Y-86539027D01*
X67784365Y-86544420D01*
X67785126Y-86549530D01*
X67785960Y-86554357D01*
X67787347Y-86561069D01*
X67788897Y-86567146D01*
X67790020Y-86570844D01*
X67791979Y-86575526D01*
X67793969Y-86580005D01*
X67796046Y-86584614D01*
X67798554Y-86590135D01*
X67800718Y-86594875D01*
X67803125Y-86600127D01*
X67805774Y-86605893D01*
X67808175Y-86611123D01*
X67810339Y-86615916D01*
X67812858Y-86621625D01*
X67814957Y-86626556D01*
X67816990Y-86631625D01*
X67818735Y-86636677D01*
X67819207Y-86639110D01*
X67818868Y-86644535D01*
X67817848Y-86649669D01*
X67816148Y-86654510D01*
X67813769Y-86659059D01*
X67810710Y-86663316D01*
X67806971Y-86667281D01*
X67805286Y-86668785D01*
X67800831Y-86672198D01*
X67796167Y-86675032D01*
X67791295Y-86677288D01*
X67786214Y-86678965D01*
X67780924Y-86680064D01*
X67775425Y-86680585D01*
X67773168Y-86680631D01*
X67767791Y-86679883D01*
X67762838Y-86678206D01*
X67757304Y-86675572D01*
X67752773Y-86672968D01*
X67747916Y-86669825D01*
X67742733Y-86666143D01*
X67737223Y-86661922D01*
X67733368Y-86658809D01*
X67729369Y-86655456D01*
X67725225Y-86651864D01*
X67723098Y-86649979D01*
X67717234Y-86652752D01*
X67711503Y-86655395D01*
X67705905Y-86657907D01*
X67700441Y-86660288D01*
X67695109Y-86662538D01*
X67689910Y-86664657D01*
X67684845Y-86666646D01*
X67679913Y-86668503D01*
X67675113Y-86670229D01*
X67670447Y-86671824D01*
X67667411Y-86672815D01*
X67661509Y-86674647D01*
X67655832Y-86676235D01*
X67650380Y-86677578D01*
X67645154Y-86678677D01*
X67640153Y-86679532D01*
X67634218Y-86680257D01*
X67628635Y-86680601D01*
X67626500Y-86680631D01*
X67621373Y-86680588D01*
X67616327Y-86680459D01*
X67611361Y-86680245D01*
X67606476Y-86679944D01*
X67596947Y-86679085D01*
X67587742Y-86677883D01*
X67578858Y-86676338D01*
X67570297Y-86674449D01*
X67562059Y-86672216D01*
X67554143Y-86669640D01*
X67546549Y-86666721D01*
X67539278Y-86663458D01*
X67532330Y-86659851D01*
X67525704Y-86655901D01*
X67519400Y-86651608D01*
X67513419Y-86646971D01*
X67507761Y-86641991D01*
X67502424Y-86636667D01*
X67497411Y-86630986D01*
X67492722Y-86624963D01*
X67488355Y-86618598D01*
X67484312Y-86611892D01*
X67480593Y-86604844D01*
X67477197Y-86597455D01*
X67474124Y-86589724D01*
X67471375Y-86581652D01*
X67468949Y-86573238D01*
X67466847Y-86564482D01*
X67465068Y-86555385D01*
X67463613Y-86545946D01*
X67463006Y-86541099D01*
X67462481Y-86536166D01*
X67462036Y-86531148D01*
X67461672Y-86526044D01*
X67461389Y-86520855D01*
X67461187Y-86515581D01*
X67461089Y-86511249D01*
X67556158Y-86511249D01*
X67556222Y-86516839D01*
X67556416Y-86522255D01*
X67556738Y-86527495D01*
X67557188Y-86532559D01*
X67557768Y-86537447D01*
X67558879Y-86544451D01*
X67560280Y-86551060D01*
X67561970Y-86557274D01*
X67563950Y-86563093D01*
X67566220Y-86568517D01*
X67568780Y-86573546D01*
X67571630Y-86578180D01*
X67572644Y-86579637D01*
X67575880Y-86583718D01*
X67579406Y-86587398D01*
X67583222Y-86590676D01*
X67587327Y-86593553D01*
X67591723Y-86596028D01*
X67596408Y-86598102D01*
X67601383Y-86599775D01*
X67606647Y-86601046D01*
X67612202Y-86601916D01*
X67618046Y-86602384D01*
X67622103Y-86602473D01*
X67627381Y-86602365D01*
X67632591Y-86602038D01*
X67637731Y-86601494D01*
X67642803Y-86600733D01*
X67647806Y-86599754D01*
X67652741Y-86598558D01*
X67657606Y-86597144D01*
X67662404Y-86595512D01*
X67667132Y-86593669D01*
X67671792Y-86591620D01*
X67676383Y-86589364D01*
X67680905Y-86586903D01*
X67685359Y-86584235D01*
X67689743Y-86581362D01*
X67694060Y-86578282D01*
X67698307Y-86574996D01*
X67697676Y-86569991D01*
X67697065Y-86565065D01*
X67695903Y-86555451D01*
X67694821Y-86546155D01*
X67693819Y-86537177D01*
X67692898Y-86528516D01*
X67692056Y-86520173D01*
X67691295Y-86512148D01*
X67690614Y-86504440D01*
X67690013Y-86497051D01*
X67689492Y-86489979D01*
X67689051Y-86483224D01*
X67688690Y-86476787D01*
X67688410Y-86470669D01*
X67688209Y-86464867D01*
X67688089Y-86459384D01*
X67688049Y-86454218D01*
X67688119Y-86449311D01*
X67688330Y-86444100D01*
X67688680Y-86438585D01*
X67689092Y-86433616D01*
X67689515Y-86429305D01*
X67690161Y-86423886D01*
X67690911Y-86418251D01*
X67691615Y-86413392D01*
X67692390Y-86408384D01*
X67693237Y-86403226D01*
X67694155Y-86397920D01*
X67689627Y-86395800D01*
X67684721Y-86393890D01*
X67681943Y-86393035D01*
X67677058Y-86391844D01*
X67672906Y-86391448D01*
X67667105Y-86391589D01*
X67661396Y-86392012D01*
X67655778Y-86392718D01*
X67650252Y-86393707D01*
X67644818Y-86394978D01*
X67639475Y-86396531D01*
X67634224Y-86398366D01*
X67629064Y-86400484D01*
X67623996Y-86402885D01*
X67619020Y-86405568D01*
X67614135Y-86408533D01*
X67609342Y-86411781D01*
X67604640Y-86415311D01*
X67600030Y-86419123D01*
X67595512Y-86423218D01*
X67591085Y-86427595D01*
X67586855Y-86432158D01*
X67582899Y-86436810D01*
X67579215Y-86441550D01*
X67575804Y-86446379D01*
X67572666Y-86451297D01*
X67569801Y-86456304D01*
X67567209Y-86461399D01*
X67564890Y-86466583D01*
X67562843Y-86471855D01*
X67561069Y-86477217D01*
X67559569Y-86482667D01*
X67558341Y-86488206D01*
X67557386Y-86493833D01*
X67556704Y-86499550D01*
X67556294Y-86505355D01*
X67556158Y-86511249D01*
X67461089Y-86511249D01*
X67461066Y-86510221D01*
X67461025Y-86504776D01*
X67461085Y-86499663D01*
X67461264Y-86494595D01*
X67461562Y-86489574D01*
X67461979Y-86484599D01*
X67462516Y-86479671D01*
X67463172Y-86474789D01*
X67463947Y-86469953D01*
X67465855Y-86460420D01*
X67468241Y-86451072D01*
X67471103Y-86441909D01*
X67474442Y-86432931D01*
X67478258Y-86424138D01*
X67482552Y-86415530D01*
X67487322Y-86407108D01*
X67492569Y-86398870D01*
X67495372Y-86394821D01*
X67498294Y-86390818D01*
X67501335Y-86386861D01*
X67504495Y-86382951D01*
X67507775Y-86379087D01*
X67511174Y-86375269D01*
X67514692Y-86371497D01*
X67518329Y-86367771D01*
X67522086Y-86364092D01*
X67525933Y-86360486D01*
X67529828Y-86356994D01*
X67533769Y-86353617D01*
X67537758Y-86350354D01*
X67541793Y-86347205D01*
X67545875Y-86344171D01*
X67550005Y-86341252D01*
X67554181Y-86338447D01*
X67558404Y-86335756D01*
X67562675Y-86333180D01*
X67566992Y-86330719D01*
X67571356Y-86328372D01*
X67575768Y-86326139D01*
X67580226Y-86324021D01*
X67584731Y-86322018D01*
X67589283Y-86320129D01*
X67593883Y-86318354D01*
X67598529Y-86316694D01*
X67603222Y-86315148D01*
X67607962Y-86313717D01*
X67612749Y-86312401D01*
X67617584Y-86311198D01*
X67622465Y-86310111D01*
X67627393Y-86309138D01*
X67632368Y-86308279D01*
X67637390Y-86307535D01*
X67642459Y-86306905D01*
X67647575Y-86306390D01*
X67652738Y-86305989D01*
X67657949Y-86305703D01*
X67663206Y-86305531D01*
X67668510Y-86305474D01*
X67674713Y-86305634D01*
G37*
G36*
X68025959Y-86184574D02*
G01*
X68022906Y-86304863D01*
X68022499Y-86309999D01*
X68021508Y-86314872D01*
X68019548Y-86320373D01*
X68016746Y-86325496D01*
X68013768Y-86329477D01*
X68010205Y-86333196D01*
X68006181Y-86336467D01*
X68001817Y-86339185D01*
X67997112Y-86341348D01*
X67992068Y-86342956D01*
X67986684Y-86344009D01*
X67980961Y-86344509D01*
X67978576Y-86344553D01*
X67972813Y-86344276D01*
X67967354Y-86343444D01*
X67962199Y-86342057D01*
X67957348Y-86340116D01*
X67952801Y-86337621D01*
X67948558Y-86334571D01*
X67946946Y-86333196D01*
X67943223Y-86329574D01*
X67940144Y-86325654D01*
X67937299Y-86320556D01*
X67935381Y-86315029D01*
X67934492Y-86310095D01*
X67934246Y-86304863D01*
X67934232Y-86298648D01*
X67934252Y-86292092D01*
X67934305Y-86285196D01*
X67934391Y-86277959D01*
X67934511Y-86270381D01*
X67934664Y-86262462D01*
X67934850Y-86254204D01*
X67935070Y-86245604D01*
X67935323Y-86236664D01*
X67935610Y-86227383D01*
X67935930Y-86217762D01*
X67936103Y-86212823D01*
X67936284Y-86207800D01*
X67936473Y-86202691D01*
X67936671Y-86197497D01*
X67936877Y-86192218D01*
X67937091Y-86186854D01*
X67937314Y-86181405D01*
X67937545Y-86175870D01*
X67937784Y-86170251D01*
X67938032Y-86164546D01*
X67938780Y-86158869D01*
X67939802Y-86153563D01*
X67941100Y-86148626D01*
X67943108Y-86142976D01*
X67945546Y-86137905D01*
X67948413Y-86133412D01*
X67951709Y-86129497D01*
X67955485Y-86126155D01*
X67959714Y-86123379D01*
X67964396Y-86121170D01*
X67969531Y-86119527D01*
X67975120Y-86118451D01*
X67981161Y-86117941D01*
X67983705Y-86117896D01*
X67989468Y-86118176D01*
X67994927Y-86119017D01*
X68000082Y-86120418D01*
X68004933Y-86122380D01*
X68009480Y-86124902D01*
X68013723Y-86127985D01*
X68015334Y-86129375D01*
X68018993Y-86133058D01*
X68022032Y-86137010D01*
X68024860Y-86142106D01*
X68026795Y-86147589D01*
X68027725Y-86152453D01*
X68028035Y-86157585D01*
X68027825Y-86162654D01*
X68027364Y-86167752D01*
X68026936Y-86171507D01*
X68026421Y-86176614D01*
X68026054Y-86181514D01*
X68025959Y-86184574D01*
G37*
G36*
X68410764Y-86422711D02*
G01*
X68404615Y-86422521D01*
X68398944Y-86421951D01*
X68393752Y-86421001D01*
X68389039Y-86419671D01*
X68383500Y-86417307D01*
X68378812Y-86414267D01*
X68374974Y-86410552D01*
X68371988Y-86406161D01*
X68369853Y-86401095D01*
X68364694Y-86400473D01*
X68359475Y-86399979D01*
X68354195Y-86399614D01*
X68348856Y-86399378D01*
X68343456Y-86399270D01*
X68341643Y-86399263D01*
X68336556Y-86399283D01*
X68331631Y-86399343D01*
X68322266Y-86399582D01*
X68313546Y-86399980D01*
X68305472Y-86400538D01*
X68298044Y-86401255D01*
X68291262Y-86402131D01*
X68285126Y-86403167D01*
X68279636Y-86404362D01*
X68274791Y-86405716D01*
X68268736Y-86408046D01*
X68264134Y-86410735D01*
X68260259Y-86414878D01*
X68258967Y-86419658D01*
X68260718Y-86424420D01*
X68264854Y-86428809D01*
X68269915Y-86432595D01*
X68274732Y-86435594D01*
X68280425Y-86438731D01*
X68286994Y-86442006D01*
X68291859Y-86444265D01*
X68297114Y-86446585D01*
X68302759Y-86448967D01*
X68308792Y-86451409D01*
X68317108Y-86454752D01*
X68325082Y-86458002D01*
X68332713Y-86461159D01*
X68340002Y-86464224D01*
X68346948Y-86467197D01*
X68353552Y-86470077D01*
X68359813Y-86472864D01*
X68365731Y-86475559D01*
X68371307Y-86478161D01*
X68376541Y-86480671D01*
X68381432Y-86483088D01*
X68385981Y-86485412D01*
X68392161Y-86488726D01*
X68397571Y-86491831D01*
X68400750Y-86493785D01*
X68406783Y-86497767D01*
X68412428Y-86501866D01*
X68417683Y-86506083D01*
X68422548Y-86510417D01*
X68427025Y-86514868D01*
X68431112Y-86519436D01*
X68434810Y-86524122D01*
X68438119Y-86528926D01*
X68441038Y-86533846D01*
X68443568Y-86538884D01*
X68445709Y-86544040D01*
X68447461Y-86549312D01*
X68448824Y-86554702D01*
X68449797Y-86560210D01*
X68450381Y-86565835D01*
X68450575Y-86571577D01*
X68450361Y-86579034D01*
X68449717Y-86586262D01*
X68448643Y-86593261D01*
X68447141Y-86600031D01*
X68445209Y-86606572D01*
X68442847Y-86612884D01*
X68440057Y-86618967D01*
X68436837Y-86624822D01*
X68433187Y-86630447D01*
X68429109Y-86635843D01*
X68424601Y-86641010D01*
X68419663Y-86645949D01*
X68414297Y-86650658D01*
X68408501Y-86655138D01*
X68402275Y-86659390D01*
X68395621Y-86663412D01*
X68390000Y-86666443D01*
X68384221Y-86669279D01*
X68378284Y-86671920D01*
X68372189Y-86674365D01*
X68365935Y-86676614D01*
X68359522Y-86678668D01*
X68352952Y-86680526D01*
X68346222Y-86682188D01*
X68339335Y-86683655D01*
X68332289Y-86684926D01*
X68325085Y-86686002D01*
X68317722Y-86686882D01*
X68310201Y-86687567D01*
X68302522Y-86688056D01*
X68294684Y-86688349D01*
X68286688Y-86688447D01*
X68281010Y-86688385D01*
X68275394Y-86688201D01*
X68269840Y-86687893D01*
X68264348Y-86687462D01*
X68258918Y-86686908D01*
X68253549Y-86686231D01*
X68248243Y-86685431D01*
X68242999Y-86684508D01*
X68237817Y-86683462D01*
X68232697Y-86682293D01*
X68227639Y-86681001D01*
X68222643Y-86679585D01*
X68217709Y-86678047D01*
X68212837Y-86676385D01*
X68208027Y-86674601D01*
X68203279Y-86672693D01*
X68197039Y-86669942D01*
X68191201Y-86667032D01*
X68185765Y-86663962D01*
X68180733Y-86660733D01*
X68176103Y-86657344D01*
X68171875Y-86653797D01*
X68168050Y-86650090D01*
X68164628Y-86646223D01*
X68161608Y-86642198D01*
X68158991Y-86638013D01*
X68155821Y-86631436D01*
X68153556Y-86624501D01*
X68152549Y-86619679D01*
X68151945Y-86614697D01*
X68151744Y-86609556D01*
X68152104Y-86602704D01*
X68153182Y-86596525D01*
X68154980Y-86591020D01*
X68157497Y-86586189D01*
X68160733Y-86582033D01*
X68164688Y-86578550D01*
X68169363Y-86575741D01*
X68174756Y-86573607D01*
X68180869Y-86572146D01*
X68187701Y-86571360D01*
X68192655Y-86571210D01*
X68197924Y-86571496D01*
X68203884Y-86572355D01*
X68209151Y-86573454D01*
X68214860Y-86574920D01*
X68221012Y-86576752D01*
X68225916Y-86578366D01*
X68231070Y-86580186D01*
X68236472Y-86582213D01*
X68238328Y-86582934D01*
X68243817Y-86585029D01*
X68249063Y-86586918D01*
X68254066Y-86588601D01*
X68258827Y-86590078D01*
X68264798Y-86591727D01*
X68270337Y-86593009D01*
X68275445Y-86593925D01*
X68281224Y-86594555D01*
X68284368Y-86594658D01*
X68292813Y-86594559D01*
X68300717Y-86594263D01*
X68308079Y-86593769D01*
X68314898Y-86593078D01*
X68321176Y-86592189D01*
X68326912Y-86591103D01*
X68332106Y-86589819D01*
X68338881Y-86587523D01*
X68344436Y-86584783D01*
X68348773Y-86581598D01*
X68352658Y-86576661D01*
X68354375Y-86570934D01*
X68354466Y-86569378D01*
X68353282Y-86564393D01*
X68349731Y-86559282D01*
X68345186Y-86555103D01*
X68340783Y-86551916D01*
X68335527Y-86548685D01*
X68329420Y-86545408D01*
X68324874Y-86543198D01*
X68319950Y-86540968D01*
X68314648Y-86538719D01*
X68308966Y-86536449D01*
X68305983Y-86535307D01*
X68297343Y-86532007D01*
X68289100Y-86528825D01*
X68281254Y-86525760D01*
X68273804Y-86522812D01*
X68266752Y-86519982D01*
X68260096Y-86517269D01*
X68253838Y-86514673D01*
X68247976Y-86512195D01*
X68242511Y-86509834D01*
X68237443Y-86507591D01*
X68232772Y-86505465D01*
X68226509Y-86502495D01*
X68221140Y-86499790D01*
X68216663Y-86497349D01*
X68215369Y-86496594D01*
X68209498Y-86492862D01*
X68204006Y-86488961D01*
X68198893Y-86484893D01*
X68194158Y-86480657D01*
X68189803Y-86476253D01*
X68185826Y-86471681D01*
X68182227Y-86466941D01*
X68179008Y-86462034D01*
X68176167Y-86456958D01*
X68173705Y-86451714D01*
X68171622Y-86446303D01*
X68169917Y-86440724D01*
X68168592Y-86434976D01*
X68167645Y-86429061D01*
X68167077Y-86422978D01*
X68166887Y-86416727D01*
X68167173Y-86407949D01*
X68168030Y-86399536D01*
X68169459Y-86391489D01*
X68171459Y-86383807D01*
X68174031Y-86376491D01*
X68177174Y-86369540D01*
X68180889Y-86362955D01*
X68185175Y-86356734D01*
X68190032Y-86350880D01*
X68195462Y-86345391D01*
X68201462Y-86340267D01*
X68208034Y-86335508D01*
X68215178Y-86331115D01*
X68222893Y-86327088D01*
X68231180Y-86323425D01*
X68240038Y-86320129D01*
X68245585Y-86318354D01*
X68251481Y-86316694D01*
X68257725Y-86315148D01*
X68264317Y-86313717D01*
X68271258Y-86312401D01*
X68278546Y-86311198D01*
X68286183Y-86310111D01*
X68294168Y-86309138D01*
X68302502Y-86308279D01*
X68311183Y-86307535D01*
X68320213Y-86306905D01*
X68329591Y-86306390D01*
X68339317Y-86305989D01*
X68344311Y-86305832D01*
X68349392Y-86305703D01*
X68354560Y-86305603D01*
X68359815Y-86305531D01*
X68365157Y-86305488D01*
X68370586Y-86305474D01*
X68376863Y-86305555D01*
X68382827Y-86305796D01*
X68388478Y-86306199D01*
X68393815Y-86306762D01*
X68398839Y-86307487D01*
X68405050Y-86308703D01*
X68410704Y-86310206D01*
X68415801Y-86311995D01*
X68420340Y-86314070D01*
X68421388Y-86314633D01*
X68426712Y-86318009D01*
X68431326Y-86322029D01*
X68435230Y-86326695D01*
X68438424Y-86332005D01*
X68440909Y-86337960D01*
X68442306Y-86342850D01*
X68443304Y-86348103D01*
X68443903Y-86353718D01*
X68444103Y-86359696D01*
X68443973Y-86367327D01*
X68443582Y-86374465D01*
X68442931Y-86381111D01*
X68442019Y-86387265D01*
X68440847Y-86392926D01*
X68439414Y-86398095D01*
X68437721Y-86402772D01*
X68434694Y-86408865D01*
X68431080Y-86413849D01*
X68426880Y-86417726D01*
X68422094Y-86420495D01*
X68416722Y-86422157D01*
X68410764Y-86422711D01*
G37*
G36*
X69156926Y-86297658D02*
G01*
X69151274Y-86297365D01*
X69145906Y-86296486D01*
X69140821Y-86295021D01*
X69136020Y-86292970D01*
X69131502Y-86290333D01*
X69127267Y-86287110D01*
X69123316Y-86283300D01*
X69119648Y-86278905D01*
X69116263Y-86273924D01*
X69113162Y-86268356D01*
X69111252Y-86264319D01*
X69109112Y-86259703D01*
X69106536Y-86254975D01*
X69103520Y-86250576D01*
X69100058Y-86247023D01*
X69097452Y-86245390D01*
X69092601Y-86244102D01*
X69087246Y-86243485D01*
X69081373Y-86243141D01*
X69075574Y-86242986D01*
X69070341Y-86242948D01*
X69064885Y-86243218D01*
X69059324Y-86244030D01*
X69053658Y-86245382D01*
X69047886Y-86247276D01*
X69042010Y-86249710D01*
X69036029Y-86252685D01*
X69029943Y-86256201D01*
X69023752Y-86260259D01*
X69017456Y-86264857D01*
X69011055Y-86269996D01*
X69004549Y-86275676D01*
X68997939Y-86281897D01*
X68991223Y-86288659D01*
X68987826Y-86292243D01*
X68984402Y-86295962D01*
X68980953Y-86299816D01*
X68977477Y-86303806D01*
X68973975Y-86307931D01*
X68970446Y-86312191D01*
X68965562Y-86318224D01*
X68960834Y-86324233D01*
X68956260Y-86330217D01*
X68951842Y-86336178D01*
X68947578Y-86342115D01*
X68943470Y-86348027D01*
X68939516Y-86353916D01*
X68935718Y-86359780D01*
X68932074Y-86365620D01*
X68928586Y-86371436D01*
X68925253Y-86377228D01*
X68922075Y-86382996D01*
X68919051Y-86388740D01*
X68916183Y-86394460D01*
X68913470Y-86400156D01*
X68910912Y-86405827D01*
X68908509Y-86411475D01*
X68906261Y-86417098D01*
X68904168Y-86422698D01*
X68902230Y-86428273D01*
X68900447Y-86433824D01*
X68898819Y-86439351D01*
X68897346Y-86444854D01*
X68896028Y-86450333D01*
X68894866Y-86455788D01*
X68893858Y-86461218D01*
X68893005Y-86466625D01*
X68892307Y-86472008D01*
X68891765Y-86477366D01*
X68891377Y-86482700D01*
X68891145Y-86488011D01*
X68891067Y-86493297D01*
X68891287Y-86500414D01*
X68891947Y-86507340D01*
X68893047Y-86514075D01*
X68894588Y-86520620D01*
X68896568Y-86526973D01*
X68898988Y-86533135D01*
X68901849Y-86539106D01*
X68905149Y-86544885D01*
X68908890Y-86550474D01*
X68913071Y-86555872D01*
X68916102Y-86559364D01*
X68920906Y-86564275D01*
X68925884Y-86568702D01*
X68931035Y-86572647D01*
X68936361Y-86576108D01*
X68941860Y-86579087D01*
X68947534Y-86581582D01*
X68953381Y-86583595D01*
X68959402Y-86585124D01*
X68965597Y-86586171D01*
X68971965Y-86586734D01*
X68976308Y-86586842D01*
X68982683Y-86586683D01*
X68989078Y-86586206D01*
X68995492Y-86585412D01*
X69001925Y-86584300D01*
X69008377Y-86582870D01*
X69014849Y-86581123D01*
X69021340Y-86579058D01*
X69027851Y-86576675D01*
X69034381Y-86573975D01*
X69040930Y-86570956D01*
X69045307Y-86568768D01*
X69049832Y-86566194D01*
X69054418Y-86563397D01*
X69059863Y-86559943D01*
X69064510Y-86556922D01*
X69069640Y-86553532D01*
X69075253Y-86549772D01*
X69081350Y-86545643D01*
X69085682Y-86542686D01*
X69090229Y-86539564D01*
X69094991Y-86536278D01*
X69097452Y-86534574D01*
X69102374Y-86531344D01*
X69107064Y-86528431D01*
X69111522Y-86525837D01*
X69117105Y-86522872D01*
X69122276Y-86520471D01*
X69127035Y-86518636D01*
X69132404Y-86517135D01*
X69137997Y-86516500D01*
X69143059Y-86516738D01*
X69147927Y-86517454D01*
X69153738Y-86519019D01*
X69159244Y-86521330D01*
X69164447Y-86524386D01*
X69168390Y-86527367D01*
X69172139Y-86530826D01*
X69173046Y-86531765D01*
X69176916Y-86536328D01*
X69180130Y-86541089D01*
X69182688Y-86546046D01*
X69184590Y-86551200D01*
X69185836Y-86556550D01*
X69186426Y-86562097D01*
X69186479Y-86564371D01*
X69186200Y-86569418D01*
X69185365Y-86574301D01*
X69183972Y-86579020D01*
X69182021Y-86583575D01*
X69179514Y-86587966D01*
X69176450Y-86592192D01*
X69172828Y-86596255D01*
X69168649Y-86600153D01*
X69162738Y-86605104D01*
X69156821Y-86609898D01*
X69150897Y-86614535D01*
X69144967Y-86619015D01*
X69139031Y-86623338D01*
X69133088Y-86627503D01*
X69127138Y-86631511D01*
X69121182Y-86635362D01*
X69115220Y-86639056D01*
X69109251Y-86642593D01*
X69103276Y-86645972D01*
X69097294Y-86649194D01*
X69091306Y-86652259D01*
X69085311Y-86655167D01*
X69079310Y-86657918D01*
X69073303Y-86660512D01*
X69067289Y-86662948D01*
X69061269Y-86665227D01*
X69055242Y-86667349D01*
X69049209Y-86669314D01*
X69043169Y-86671121D01*
X69037123Y-86672772D01*
X69031070Y-86674265D01*
X69025011Y-86675601D01*
X69018946Y-86676780D01*
X69012874Y-86677802D01*
X69006796Y-86678666D01*
X69000711Y-86679374D01*
X68994620Y-86679924D01*
X68988522Y-86680317D01*
X68982418Y-86680552D01*
X68976308Y-86680631D01*
X68966739Y-86680406D01*
X68957358Y-86679732D01*
X68948165Y-86678609D01*
X68939160Y-86677036D01*
X68930343Y-86675014D01*
X68921714Y-86672542D01*
X68913273Y-86669622D01*
X68905020Y-86666251D01*
X68896954Y-86662432D01*
X68889077Y-86658163D01*
X68881388Y-86653444D01*
X68873886Y-86648276D01*
X68866573Y-86642659D01*
X68859447Y-86636593D01*
X68852510Y-86630077D01*
X68845760Y-86623112D01*
X68839608Y-86616119D01*
X68833853Y-86608972D01*
X68828495Y-86601671D01*
X68823534Y-86594215D01*
X68818970Y-86586604D01*
X68814802Y-86578839D01*
X68811032Y-86570919D01*
X68807658Y-86562845D01*
X68804682Y-86554616D01*
X68802102Y-86546233D01*
X68799919Y-86537695D01*
X68798133Y-86529002D01*
X68796744Y-86520155D01*
X68795751Y-86511153D01*
X68795156Y-86501997D01*
X68794958Y-86492686D01*
X68795056Y-86485346D01*
X68795351Y-86477997D01*
X68795842Y-86470637D01*
X68796530Y-86463268D01*
X68797414Y-86455889D01*
X68798495Y-86448501D01*
X68799773Y-86441102D01*
X68801247Y-86433694D01*
X68802917Y-86426276D01*
X68804785Y-86418848D01*
X68806848Y-86411410D01*
X68809108Y-86403963D01*
X68811565Y-86396506D01*
X68814218Y-86389039D01*
X68817068Y-86381562D01*
X68820115Y-86374076D01*
X68823358Y-86366579D01*
X68826797Y-86359073D01*
X68830433Y-86351558D01*
X68834265Y-86344032D01*
X68838295Y-86336497D01*
X68842520Y-86328951D01*
X68846942Y-86321396D01*
X68851561Y-86313832D01*
X68856376Y-86306257D01*
X68861388Y-86298673D01*
X68866596Y-86291079D01*
X68872001Y-86283475D01*
X68877602Y-86275861D01*
X68883400Y-86268238D01*
X68889395Y-86260605D01*
X68895586Y-86252962D01*
X68900932Y-86246575D01*
X68906286Y-86240392D01*
X68911647Y-86234411D01*
X68917016Y-86228633D01*
X68922392Y-86223058D01*
X68927776Y-86217685D01*
X68933167Y-86212515D01*
X68938565Y-86207548D01*
X68943970Y-86202784D01*
X68949384Y-86198222D01*
X68954804Y-86193863D01*
X68960232Y-86189707D01*
X68965667Y-86185753D01*
X68971110Y-86182003D01*
X68976560Y-86178455D01*
X68982017Y-86175109D01*
X68987482Y-86171967D01*
X68992954Y-86169027D01*
X68998434Y-86166290D01*
X69003921Y-86163756D01*
X69009415Y-86161424D01*
X69014917Y-86159296D01*
X69020426Y-86157370D01*
X69025943Y-86155646D01*
X69031467Y-86154126D01*
X69036998Y-86152808D01*
X69042537Y-86151693D01*
X69048083Y-86150781D01*
X69053636Y-86150071D01*
X69059197Y-86149564D01*
X69064766Y-86149260D01*
X69070341Y-86149159D01*
X69075917Y-86149197D01*
X69081287Y-86149313D01*
X69086450Y-86149506D01*
X69091407Y-86149777D01*
X69096931Y-86150190D01*
X69097697Y-86150258D01*
X69102899Y-86150732D01*
X69107821Y-86151300D01*
X69113103Y-86152063D01*
X69118018Y-86152948D01*
X69119190Y-86153189D01*
X69124039Y-86149776D01*
X69129198Y-86146942D01*
X69134667Y-86144686D01*
X69140447Y-86143009D01*
X69145293Y-86142083D01*
X69150339Y-86141528D01*
X69155582Y-86141343D01*
X69161918Y-86141694D01*
X69167781Y-86142747D01*
X69173172Y-86144502D01*
X69178091Y-86146959D01*
X69182537Y-86150117D01*
X69186511Y-86153978D01*
X69190013Y-86158541D01*
X69193043Y-86163806D01*
X69195600Y-86169772D01*
X69197685Y-86176441D01*
X69198813Y-86181277D01*
X69199861Y-86186741D01*
X69200805Y-86192373D01*
X69201647Y-86198173D01*
X69202385Y-86204140D01*
X69203021Y-86210274D01*
X69203553Y-86216576D01*
X69203982Y-86223046D01*
X69204309Y-86229682D01*
X69204532Y-86236487D01*
X69204652Y-86243458D01*
X69204675Y-86248199D01*
X69204431Y-86253432D01*
X69203697Y-86258522D01*
X69202475Y-86263469D01*
X69200763Y-86268273D01*
X69198563Y-86272933D01*
X69195874Y-86277451D01*
X69194661Y-86279218D01*
X69191240Y-86283540D01*
X69187448Y-86287286D01*
X69183287Y-86290455D01*
X69178755Y-86293048D01*
X69173853Y-86295065D01*
X69168580Y-86296506D01*
X69162938Y-86297370D01*
X69156926Y-86297658D01*
G37*
G36*
X69546493Y-86467407D02*
G01*
X69546499Y-86473383D01*
X69546510Y-86478336D01*
X69546529Y-86483693D01*
X69546553Y-86489453D01*
X69546584Y-86495617D01*
X69546622Y-86502184D01*
X69546666Y-86509155D01*
X69546716Y-86516530D01*
X69546754Y-86521670D01*
X69546794Y-86526990D01*
X69546837Y-86532490D01*
X69546859Y-86535307D01*
X69546904Y-86540881D01*
X69546945Y-86546276D01*
X69546984Y-86551494D01*
X69547020Y-86556533D01*
X69547068Y-86563757D01*
X69547110Y-86570579D01*
X69547145Y-86577000D01*
X69547174Y-86583020D01*
X69547197Y-86588638D01*
X69547213Y-86593855D01*
X69547224Y-86600186D01*
X69547226Y-86603084D01*
X69547333Y-86608179D01*
X69547573Y-86613216D01*
X69547896Y-86618325D01*
X69548257Y-86623225D01*
X69548325Y-86624089D01*
X69548740Y-86629069D01*
X69549115Y-86634272D01*
X69549402Y-86639416D01*
X69549545Y-86644644D01*
X69549546Y-86645094D01*
X69549206Y-86650810D01*
X69548186Y-86656204D01*
X69546487Y-86661276D01*
X69544108Y-86666026D01*
X69541049Y-86670454D01*
X69537310Y-86674560D01*
X69535624Y-86676113D01*
X69531118Y-86679666D01*
X69526303Y-86682617D01*
X69521177Y-86684966D01*
X69515741Y-86686712D01*
X69509995Y-86687857D01*
X69503939Y-86688399D01*
X69501430Y-86688447D01*
X69496230Y-86688236D01*
X69491301Y-86687605D01*
X69485149Y-86686109D01*
X69479478Y-86683865D01*
X69474288Y-86680873D01*
X69469578Y-86677133D01*
X69465350Y-86672645D01*
X69461602Y-86667409D01*
X69459909Y-86664511D01*
X69454401Y-86666463D01*
X69448870Y-86668289D01*
X69443315Y-86669989D01*
X69437736Y-86671564D01*
X69432133Y-86673012D01*
X69426507Y-86674334D01*
X69420856Y-86675531D01*
X69415182Y-86676601D01*
X69409484Y-86677546D01*
X69403762Y-86678364D01*
X69398016Y-86679057D01*
X69392246Y-86679624D01*
X69386452Y-86680064D01*
X69380635Y-86680379D01*
X69374793Y-86680568D01*
X69368928Y-86680631D01*
X69362883Y-86680552D01*
X69356959Y-86680316D01*
X69351155Y-86679923D01*
X69345473Y-86679372D01*
X69339913Y-86678663D01*
X69334473Y-86677797D01*
X69329154Y-86676774D01*
X69323957Y-86675594D01*
X69318881Y-86674255D01*
X69313926Y-86672760D01*
X69309092Y-86671107D01*
X69304380Y-86669297D01*
X69299788Y-86667329D01*
X69295318Y-86665204D01*
X69290969Y-86662921D01*
X69286741Y-86660481D01*
X69282187Y-86657513D01*
X69277870Y-86654379D01*
X69273788Y-86651079D01*
X69269941Y-86647612D01*
X69266331Y-86643980D01*
X69262956Y-86640182D01*
X69259816Y-86636218D01*
X69256912Y-86632088D01*
X69254244Y-86627792D01*
X69251812Y-86623329D01*
X69249615Y-86618701D01*
X69247654Y-86613907D01*
X69245929Y-86608947D01*
X69244439Y-86603820D01*
X69243185Y-86598528D01*
X69242166Y-86593070D01*
X69241340Y-86587844D01*
X69240540Y-86582652D01*
X69239766Y-86577496D01*
X69239018Y-86572374D01*
X69238296Y-86567287D01*
X69237601Y-86562235D01*
X69236932Y-86557218D01*
X69236289Y-86552236D01*
X69235673Y-86547288D01*
X69235082Y-86542375D01*
X69234518Y-86537497D01*
X69233469Y-86527846D01*
X69232524Y-86518334D01*
X69231685Y-86508961D01*
X69230950Y-86499727D01*
X69230320Y-86490633D01*
X69229796Y-86481678D01*
X69229376Y-86472863D01*
X69229061Y-86464186D01*
X69228851Y-86455649D01*
X69228746Y-86447252D01*
X69228733Y-86443105D01*
X69228773Y-86437592D01*
X69228893Y-86431984D01*
X69229094Y-86426281D01*
X69229374Y-86420482D01*
X69229735Y-86414588D01*
X69230175Y-86408598D01*
X69230696Y-86402513D01*
X69231297Y-86396332D01*
X69231979Y-86390056D01*
X69232740Y-86383685D01*
X69233582Y-86377218D01*
X69234503Y-86370656D01*
X69235505Y-86363999D01*
X69236587Y-86357246D01*
X69237749Y-86350398D01*
X69238991Y-86343454D01*
X69240561Y-86336666D01*
X69242706Y-86330547D01*
X69245427Y-86325094D01*
X69248723Y-86320310D01*
X69252594Y-86316193D01*
X69257040Y-86312744D01*
X69262062Y-86309962D01*
X69267659Y-86307848D01*
X69273832Y-86306401D01*
X69280579Y-86305622D01*
X69285397Y-86305474D01*
X69290282Y-86305663D01*
X69296131Y-86306430D01*
X69301693Y-86307788D01*
X69306969Y-86309736D01*
X69311959Y-86312275D01*
X69316662Y-86315403D01*
X69319347Y-86317564D01*
X69323428Y-86321462D01*
X69326817Y-86325676D01*
X69329515Y-86330206D01*
X69331521Y-86335052D01*
X69332835Y-86340214D01*
X69333458Y-86345693D01*
X69333513Y-86347972D01*
X69333391Y-86352916D01*
X69333024Y-86358665D01*
X69332555Y-86363844D01*
X69331929Y-86369538D01*
X69331147Y-86375747D01*
X69330457Y-86380742D01*
X69329680Y-86386026D01*
X69328814Y-86391601D01*
X69328506Y-86393524D01*
X69327611Y-86399187D01*
X69326805Y-86404590D01*
X69326086Y-86409734D01*
X69325455Y-86414618D01*
X69324751Y-86420726D01*
X69324203Y-86426372D01*
X69323812Y-86431557D01*
X69323543Y-86437388D01*
X69323499Y-86440540D01*
X69323512Y-86446311D01*
X69323551Y-86451989D01*
X69323615Y-86457576D01*
X69323705Y-86463072D01*
X69323821Y-86468476D01*
X69323963Y-86473788D01*
X69324130Y-86479009D01*
X69324323Y-86484138D01*
X69324542Y-86489175D01*
X69324787Y-86494121D01*
X69325203Y-86501368D01*
X69325676Y-86508409D01*
X69326207Y-86515244D01*
X69326796Y-86521873D01*
X69327443Y-86528271D01*
X69328145Y-86534458D01*
X69328902Y-86540435D01*
X69329716Y-86546202D01*
X69330585Y-86551758D01*
X69331511Y-86557104D01*
X69332492Y-86562240D01*
X69333528Y-86567165D01*
X69334998Y-86573405D01*
X69336566Y-86579270D01*
X69341336Y-86581196D01*
X69346029Y-86582851D01*
X69351152Y-86584373D01*
X69353175Y-86584888D01*
X69358217Y-86585918D01*
X69363116Y-86586567D01*
X69368340Y-86586840D01*
X69368806Y-86586842D01*
X69376039Y-86586748D01*
X69380933Y-86586582D01*
X69385886Y-86586333D01*
X69390896Y-86586001D01*
X69395965Y-86585586D01*
X69401093Y-86585088D01*
X69406278Y-86584507D01*
X69411522Y-86583843D01*
X69416823Y-86583096D01*
X69422183Y-86582266D01*
X69427602Y-86581353D01*
X69433078Y-86580357D01*
X69438613Y-86579278D01*
X69444205Y-86578116D01*
X69449856Y-86576871D01*
X69452704Y-86576217D01*
X69452698Y-86569728D01*
X69452686Y-86564718D01*
X69452668Y-86559585D01*
X69452643Y-86554331D01*
X69452612Y-86548954D01*
X69452574Y-86543454D01*
X69452530Y-86537832D01*
X69452480Y-86532088D01*
X69452423Y-86526222D01*
X69452360Y-86520233D01*
X69452337Y-86518210D01*
X69452206Y-86511120D01*
X69452088Y-86504415D01*
X69451983Y-86498094D01*
X69451891Y-86492158D01*
X69451811Y-86486605D01*
X69451745Y-86481437D01*
X69451676Y-86475144D01*
X69451630Y-86469534D01*
X69451607Y-86464607D01*
X69451605Y-86462400D01*
X69451630Y-86453970D01*
X69451708Y-86445685D01*
X69451836Y-86437545D01*
X69452017Y-86429549D01*
X69452249Y-86421699D01*
X69452532Y-86413994D01*
X69452867Y-86406434D01*
X69453253Y-86399019D01*
X69453691Y-86391749D01*
X69454181Y-86384624D01*
X69454721Y-86377644D01*
X69455314Y-86370809D01*
X69455958Y-86364119D01*
X69456653Y-86357574D01*
X69457401Y-86351174D01*
X69458199Y-86344919D01*
X69459481Y-86337870D01*
X69461402Y-86331514D01*
X69463963Y-86325851D01*
X69467164Y-86320882D01*
X69471004Y-86316607D01*
X69475484Y-86313024D01*
X69480604Y-86310135D01*
X69486363Y-86307939D01*
X69492763Y-86306437D01*
X69499801Y-86305628D01*
X69504849Y-86305474D01*
X69509826Y-86305669D01*
X69515789Y-86306459D01*
X69521466Y-86307858D01*
X69526856Y-86309865D01*
X69531960Y-86312481D01*
X69536778Y-86315704D01*
X69539532Y-86317930D01*
X69543692Y-86321978D01*
X69547088Y-86326336D01*
X69549721Y-86331004D01*
X69551591Y-86335981D01*
X69552698Y-86341269D01*
X69553042Y-86346867D01*
X69552965Y-86349193D01*
X69552567Y-86357058D01*
X69552182Y-86364653D01*
X69551809Y-86371980D01*
X69551448Y-86379037D01*
X69551101Y-86385825D01*
X69550766Y-86392344D01*
X69550443Y-86398594D01*
X69550134Y-86404576D01*
X69549837Y-86410288D01*
X69549552Y-86415731D01*
X69549280Y-86420905D01*
X69549021Y-86425809D01*
X69548541Y-86434812D01*
X69548111Y-86442739D01*
X69547732Y-86449589D01*
X69547403Y-86455363D01*
X69547005Y-86462006D01*
X69546651Y-86467097D01*
X69546493Y-86467407D01*
G37*
G36*
X69851308Y-86422711D02*
G01*
X69845159Y-86422521D01*
X69839488Y-86421951D01*
X69834297Y-86421001D01*
X69829584Y-86419671D01*
X69824044Y-86417307D01*
X69819356Y-86414267D01*
X69815519Y-86410552D01*
X69812532Y-86406161D01*
X69810397Y-86401095D01*
X69805238Y-86400473D01*
X69800019Y-86399979D01*
X69794739Y-86399614D01*
X69789400Y-86399378D01*
X69784000Y-86399270D01*
X69782187Y-86399263D01*
X69777101Y-86399283D01*
X69772176Y-86399343D01*
X69762810Y-86399582D01*
X69754090Y-86399980D01*
X69746016Y-86400538D01*
X69738588Y-86401255D01*
X69731806Y-86402131D01*
X69725670Y-86403167D01*
X69720180Y-86404362D01*
X69715336Y-86405716D01*
X69709280Y-86408046D01*
X69704678Y-86410735D01*
X69700803Y-86414878D01*
X69699511Y-86419658D01*
X69701263Y-86424420D01*
X69705399Y-86428809D01*
X69710459Y-86432595D01*
X69715276Y-86435594D01*
X69720969Y-86438731D01*
X69727538Y-86442006D01*
X69732404Y-86444265D01*
X69737659Y-86446585D01*
X69743303Y-86448967D01*
X69749337Y-86451409D01*
X69757653Y-86454752D01*
X69765626Y-86458002D01*
X69773258Y-86461159D01*
X69780546Y-86464224D01*
X69787492Y-86467197D01*
X69794096Y-86470077D01*
X69800357Y-86472864D01*
X69806276Y-86475559D01*
X69811852Y-86478161D01*
X69817085Y-86480671D01*
X69821976Y-86483088D01*
X69826525Y-86485412D01*
X69832706Y-86488726D01*
X69838115Y-86491831D01*
X69841294Y-86493785D01*
X69847328Y-86497767D01*
X69852972Y-86501866D01*
X69858227Y-86506083D01*
X69863093Y-86510417D01*
X69867569Y-86514868D01*
X69871656Y-86519436D01*
X69875354Y-86524122D01*
X69878663Y-86528926D01*
X69881583Y-86533846D01*
X69884113Y-86538884D01*
X69886254Y-86544040D01*
X69888005Y-86549312D01*
X69889368Y-86554702D01*
X69890341Y-86560210D01*
X69890925Y-86565835D01*
X69891120Y-86571577D01*
X69890905Y-86579034D01*
X69890261Y-86586262D01*
X69889188Y-86593261D01*
X69887685Y-86600031D01*
X69885753Y-86606572D01*
X69883392Y-86612884D01*
X69880601Y-86618967D01*
X69877381Y-86624822D01*
X69873732Y-86630447D01*
X69869653Y-86635843D01*
X69865145Y-86641010D01*
X69860208Y-86645949D01*
X69854841Y-86650658D01*
X69849045Y-86655138D01*
X69842820Y-86659390D01*
X69836165Y-86663412D01*
X69830544Y-86666443D01*
X69824766Y-86669279D01*
X69818828Y-86671920D01*
X69812733Y-86674365D01*
X69806479Y-86676614D01*
X69800067Y-86678668D01*
X69793496Y-86680526D01*
X69786767Y-86682188D01*
X69779879Y-86683655D01*
X69772833Y-86684926D01*
X69765629Y-86686002D01*
X69758267Y-86686882D01*
X69750746Y-86687567D01*
X69743066Y-86688056D01*
X69735229Y-86688349D01*
X69727233Y-86688447D01*
X69721554Y-86688385D01*
X69715938Y-86688201D01*
X69710384Y-86687893D01*
X69704892Y-86687462D01*
X69699462Y-86686908D01*
X69694094Y-86686231D01*
X69688788Y-86685431D01*
X69683544Y-86684508D01*
X69678362Y-86683462D01*
X69673242Y-86682293D01*
X69668184Y-86681001D01*
X69663188Y-86679585D01*
X69658254Y-86678047D01*
X69653382Y-86676385D01*
X69648572Y-86674601D01*
X69643824Y-86672693D01*
X69637583Y-86669942D01*
X69631745Y-86667032D01*
X69626310Y-86663962D01*
X69621277Y-86660733D01*
X69616647Y-86657344D01*
X69612419Y-86653797D01*
X69608594Y-86650090D01*
X69605172Y-86646223D01*
X69602153Y-86642198D01*
X69599536Y-86638013D01*
X69596365Y-86631436D01*
X69594100Y-86624501D01*
X69593094Y-86619679D01*
X69592490Y-86614697D01*
X69592288Y-86609556D01*
X69592648Y-86602704D01*
X69593727Y-86596525D01*
X69595525Y-86591020D01*
X69598041Y-86586189D01*
X69601278Y-86582033D01*
X69605233Y-86578550D01*
X69609907Y-86575741D01*
X69615301Y-86573607D01*
X69621413Y-86572146D01*
X69628245Y-86571360D01*
X69633199Y-86571210D01*
X69638468Y-86571496D01*
X69644429Y-86572355D01*
X69649695Y-86573454D01*
X69655404Y-86574920D01*
X69661556Y-86576752D01*
X69666460Y-86578366D01*
X69671614Y-86580186D01*
X69677016Y-86582213D01*
X69678872Y-86582934D01*
X69684361Y-86585029D01*
X69689607Y-86586918D01*
X69694611Y-86588601D01*
X69699372Y-86590078D01*
X69705342Y-86591727D01*
X69710882Y-86593009D01*
X69715990Y-86593925D01*
X69721768Y-86594555D01*
X69724912Y-86594658D01*
X69733358Y-86594559D01*
X69741261Y-86594263D01*
X69748623Y-86593769D01*
X69755443Y-86593078D01*
X69761720Y-86592189D01*
X69767456Y-86591103D01*
X69772650Y-86589819D01*
X69779425Y-86587523D01*
X69784981Y-86584783D01*
X69789317Y-86581598D01*
X69793202Y-86576661D01*
X69794919Y-86570934D01*
X69795010Y-86569378D01*
X69793826Y-86564393D01*
X69790275Y-86559282D01*
X69785730Y-86555103D01*
X69781327Y-86551916D01*
X69776072Y-86548685D01*
X69769964Y-86545408D01*
X69765419Y-86543198D01*
X69760495Y-86540968D01*
X69755192Y-86538719D01*
X69749511Y-86536449D01*
X69746528Y-86535307D01*
X69737888Y-86532007D01*
X69729644Y-86528825D01*
X69721798Y-86525760D01*
X69714349Y-86522812D01*
X69707296Y-86519982D01*
X69700641Y-86517269D01*
X69694382Y-86514673D01*
X69688520Y-86512195D01*
X69683055Y-86509834D01*
X69677987Y-86507591D01*
X69673316Y-86505465D01*
X69667053Y-86502495D01*
X69661684Y-86499790D01*
X69657207Y-86497349D01*
X69655914Y-86496594D01*
X69650043Y-86492862D01*
X69644551Y-86488961D01*
X69639437Y-86484893D01*
X69634703Y-86480657D01*
X69630347Y-86476253D01*
X69626370Y-86471681D01*
X69622772Y-86466941D01*
X69619552Y-86462034D01*
X69616711Y-86456958D01*
X69614249Y-86451714D01*
X69612166Y-86446303D01*
X69610462Y-86440724D01*
X69609136Y-86434976D01*
X69608189Y-86429061D01*
X69607621Y-86422978D01*
X69607431Y-86416727D01*
X69607717Y-86407949D01*
X69608574Y-86399536D01*
X69610003Y-86391489D01*
X69612003Y-86383807D01*
X69614575Y-86376491D01*
X69617718Y-86369540D01*
X69621433Y-86362955D01*
X69625719Y-86356734D01*
X69630577Y-86350880D01*
X69636006Y-86345391D01*
X69642007Y-86340267D01*
X69648579Y-86335508D01*
X69655722Y-86331115D01*
X69663437Y-86327088D01*
X69671724Y-86323425D01*
X69680582Y-86320129D01*
X69686130Y-86318354D01*
X69692025Y-86316694D01*
X69698269Y-86315148D01*
X69704861Y-86313717D01*
X69711802Y-86312401D01*
X69719091Y-86311198D01*
X69726727Y-86310111D01*
X69734713Y-86309138D01*
X69743046Y-86308279D01*
X69751727Y-86307535D01*
X69760757Y-86306905D01*
X69770135Y-86306390D01*
X69779862Y-86305989D01*
X69784855Y-86305832D01*
X69789936Y-86305703D01*
X69795104Y-86305603D01*
X69800359Y-86305531D01*
X69805701Y-86305488D01*
X69811130Y-86305474D01*
X69817408Y-86305555D01*
X69823372Y-86305796D01*
X69829022Y-86306199D01*
X69834360Y-86306762D01*
X69839384Y-86307487D01*
X69845595Y-86308703D01*
X69851249Y-86310206D01*
X69856345Y-86311995D01*
X69860885Y-86314070D01*
X69861933Y-86314633D01*
X69867256Y-86318009D01*
X69871870Y-86322029D01*
X69875774Y-86326695D01*
X69878968Y-86332005D01*
X69881453Y-86337960D01*
X69882850Y-86342850D01*
X69883849Y-86348103D01*
X69884447Y-86353718D01*
X69884647Y-86359696D01*
X69884517Y-86367327D01*
X69884126Y-86374465D01*
X69883475Y-86381111D01*
X69882563Y-86387265D01*
X69881391Y-86392926D01*
X69879959Y-86398095D01*
X69878266Y-86402772D01*
X69875238Y-86408865D01*
X69871624Y-86413849D01*
X69867424Y-86417726D01*
X69862638Y-86420495D01*
X69857266Y-86422157D01*
X69851308Y-86422711D01*
G37*
G36*
X70192515Y-86397554D02*
G01*
X70187244Y-86397496D01*
X70181901Y-86397343D01*
X70176644Y-86397124D01*
X70175418Y-86397065D01*
X70170126Y-86396829D01*
X70165239Y-86396670D01*
X70160285Y-86396584D01*
X70158443Y-86396577D01*
X70153018Y-86396671D01*
X70147275Y-86396954D01*
X70142246Y-86397335D01*
X70136997Y-86397846D01*
X70131527Y-86398489D01*
X70125837Y-86399263D01*
X70126213Y-86407621D01*
X70126576Y-86415796D01*
X70126928Y-86423788D01*
X70127268Y-86431597D01*
X70127596Y-86439223D01*
X70127912Y-86446666D01*
X70128216Y-86453926D01*
X70128508Y-86461003D01*
X70128789Y-86467898D01*
X70129057Y-86474609D01*
X70129313Y-86481137D01*
X70129558Y-86487483D01*
X70129790Y-86493645D01*
X70130011Y-86499625D01*
X70130220Y-86505421D01*
X70130416Y-86511035D01*
X70130601Y-86516466D01*
X70130774Y-86521713D01*
X70130935Y-86526778D01*
X70131221Y-86536359D01*
X70131460Y-86545208D01*
X70131651Y-86553325D01*
X70131794Y-86560711D01*
X70131889Y-86567364D01*
X70131937Y-86573286D01*
X70131943Y-86575973D01*
X70132013Y-86581246D01*
X70132132Y-86586141D01*
X70132287Y-86591482D01*
X70132309Y-86592215D01*
X70132452Y-86597187D01*
X70132572Y-86602355D01*
X70132653Y-86607511D01*
X70132676Y-86611510D01*
X70132481Y-86620827D01*
X70131897Y-86629542D01*
X70130924Y-86637657D01*
X70129562Y-86645170D01*
X70127810Y-86652082D01*
X70125669Y-86658393D01*
X70123139Y-86664104D01*
X70120219Y-86669213D01*
X70116911Y-86673721D01*
X70113213Y-86677628D01*
X70109125Y-86680933D01*
X70104649Y-86683638D01*
X70099783Y-86685742D01*
X70094528Y-86687245D01*
X70088884Y-86688146D01*
X70082850Y-86688447D01*
X70077063Y-86688167D01*
X70071532Y-86687326D01*
X70066258Y-86685924D01*
X70061240Y-86683963D01*
X70056479Y-86681440D01*
X70051974Y-86678357D01*
X70050244Y-86676967D01*
X70045881Y-86673040D01*
X70042258Y-86668815D01*
X70039374Y-86664291D01*
X70037230Y-86659470D01*
X70035825Y-86654350D01*
X70035160Y-86648932D01*
X70035101Y-86646681D01*
X70035135Y-86641681D01*
X70035238Y-86635839D01*
X70035376Y-86630328D01*
X70035562Y-86624233D01*
X70035746Y-86618936D01*
X70035959Y-86613265D01*
X70036078Y-86610289D01*
X70036335Y-86604404D01*
X70036559Y-86598901D01*
X70036747Y-86593780D01*
X70036935Y-86587915D01*
X70037069Y-86582646D01*
X70037160Y-86577110D01*
X70037177Y-86573897D01*
X70037153Y-86568435D01*
X70037081Y-86562246D01*
X70036962Y-86555330D01*
X70036795Y-86547687D01*
X70036580Y-86539317D01*
X70036318Y-86530219D01*
X70036008Y-86520395D01*
X70035835Y-86515211D01*
X70035650Y-86509844D01*
X70035453Y-86504296D01*
X70035245Y-86498566D01*
X70035024Y-86492654D01*
X70034792Y-86486561D01*
X70034547Y-86480286D01*
X70034291Y-86473829D01*
X70034022Y-86467190D01*
X70033742Y-86460370D01*
X70033450Y-86453368D01*
X70033146Y-86446184D01*
X70032830Y-86438818D01*
X70032502Y-86431271D01*
X70032162Y-86423541D01*
X70031810Y-86415630D01*
X70031446Y-86407538D01*
X70031071Y-86399263D01*
X70025388Y-86398929D01*
X70019026Y-86398477D01*
X70013809Y-86398060D01*
X70008210Y-86397577D01*
X70002229Y-86397027D01*
X69995865Y-86396411D01*
X69989120Y-86395728D01*
X69981992Y-86394978D01*
X69977028Y-86394441D01*
X69971894Y-86393875D01*
X69966591Y-86393279D01*
X69961370Y-86392523D01*
X69956487Y-86391476D01*
X69949793Y-86389360D01*
X69943857Y-86386589D01*
X69938679Y-86383163D01*
X69934259Y-86379083D01*
X69930596Y-86374348D01*
X69927692Y-86368958D01*
X69925545Y-86362913D01*
X69924155Y-86356214D01*
X69923524Y-86348859D01*
X69923482Y-86346263D01*
X69923686Y-86341290D01*
X69924515Y-86335342D01*
X69925983Y-86329693D01*
X69928088Y-86324342D01*
X69930832Y-86319289D01*
X69934213Y-86314534D01*
X69936549Y-86311824D01*
X69940817Y-86307743D01*
X69945455Y-86304354D01*
X69950463Y-86301656D01*
X69955840Y-86299650D01*
X69961587Y-86298336D01*
X69966451Y-86297783D01*
X69970254Y-86297658D01*
X69976176Y-86297933D01*
X69981412Y-86298422D01*
X69987678Y-86299154D01*
X69993054Y-86299864D01*
X69999010Y-86300711D01*
X70005545Y-86301696D01*
X70012660Y-86302818D01*
X70017725Y-86303642D01*
X70023048Y-86304528D01*
X70028628Y-86305474D01*
X70028421Y-86299857D01*
X70028169Y-86293927D01*
X70027907Y-86288198D01*
X70027663Y-86283099D01*
X70027388Y-86277543D01*
X70027083Y-86271528D01*
X70026919Y-86268349D01*
X70026604Y-86262920D01*
X70026331Y-86257809D01*
X70026049Y-86251864D01*
X70025832Y-86246414D01*
X70025681Y-86241460D01*
X70025587Y-86236168D01*
X70025575Y-86233789D01*
X70025918Y-86227809D01*
X70026947Y-86222156D01*
X70028661Y-86216832D01*
X70031061Y-86211836D01*
X70034147Y-86207167D01*
X70037919Y-86202827D01*
X70039619Y-86201182D01*
X70044186Y-86197453D01*
X70049034Y-86194356D01*
X70054161Y-86191891D01*
X70059569Y-86190058D01*
X70065257Y-86188857D01*
X70071225Y-86188288D01*
X70073691Y-86188237D01*
X70079843Y-86188582D01*
X70085598Y-86189615D01*
X70090956Y-86191337D01*
X70095917Y-86193748D01*
X70100481Y-86196848D01*
X70104649Y-86200637D01*
X70108419Y-86205114D01*
X70111793Y-86210280D01*
X70114770Y-86216136D01*
X70117349Y-86222680D01*
X70119532Y-86229912D01*
X70121318Y-86237834D01*
X70122708Y-86246445D01*
X70123700Y-86255744D01*
X70124047Y-86260652D01*
X70124295Y-86265732D01*
X70124444Y-86270985D01*
X70124494Y-86276409D01*
X70123761Y-86305474D01*
X70128951Y-86305474D01*
X70133897Y-86305474D01*
X70139736Y-86305474D01*
X70145193Y-86305474D01*
X70150269Y-86305474D01*
X70155856Y-86305474D01*
X70158443Y-86305474D01*
X70165641Y-86305519D01*
X70172397Y-86305654D01*
X70178710Y-86305880D01*
X70184581Y-86306195D01*
X70190010Y-86306601D01*
X70194997Y-86307097D01*
X70200958Y-86307898D01*
X70206133Y-86308860D01*
X70211496Y-86310288D01*
X70212421Y-86310603D01*
X70217331Y-86312588D01*
X70221759Y-86314969D01*
X70226911Y-86318763D01*
X70231204Y-86323262D01*
X70234639Y-86328468D01*
X70237215Y-86334379D01*
X70238583Y-86339276D01*
X70239469Y-86344570D01*
X70239871Y-86350261D01*
X70239898Y-86352247D01*
X70239570Y-86358156D01*
X70238586Y-86363750D01*
X70236947Y-86369028D01*
X70234651Y-86373990D01*
X70231699Y-86378636D01*
X70228092Y-86382965D01*
X70226465Y-86384609D01*
X70222126Y-86388338D01*
X70217430Y-86391435D01*
X70212376Y-86393900D01*
X70206964Y-86395733D01*
X70201194Y-86396934D01*
X70196321Y-86397440D01*
X70192515Y-86397554D01*
G37*
G36*
X70454753Y-86305693D02*
G01*
X70463003Y-86306348D01*
X70471033Y-86307440D01*
X70478844Y-86308970D01*
X70486436Y-86310936D01*
X70493808Y-86313339D01*
X70500961Y-86316180D01*
X70507894Y-86319457D01*
X70514608Y-86323171D01*
X70521102Y-86327322D01*
X70527377Y-86331910D01*
X70533432Y-86336936D01*
X70539268Y-86342398D01*
X70544885Y-86348297D01*
X70550282Y-86354633D01*
X70555460Y-86361406D01*
X70559867Y-86367789D01*
X70563989Y-86374360D01*
X70567828Y-86381119D01*
X70571382Y-86388066D01*
X70574651Y-86395201D01*
X70577637Y-86402524D01*
X70580338Y-86410035D01*
X70582754Y-86417734D01*
X70584887Y-86425621D01*
X70586735Y-86433696D01*
X70588298Y-86441959D01*
X70589578Y-86450409D01*
X70590573Y-86459048D01*
X70591284Y-86467875D01*
X70591710Y-86476889D01*
X70591852Y-86486092D01*
X70591811Y-86491136D01*
X70591686Y-86496135D01*
X70591478Y-86501086D01*
X70591186Y-86505992D01*
X70590354Y-86515663D01*
X70589188Y-86525148D01*
X70587690Y-86534446D01*
X70585859Y-86543559D01*
X70583694Y-86552486D01*
X70581197Y-86561227D01*
X70578367Y-86569782D01*
X70575204Y-86578150D01*
X70571707Y-86586333D01*
X70567878Y-86594329D01*
X70563716Y-86602140D01*
X70559221Y-86609764D01*
X70554393Y-86617203D01*
X70549232Y-86624455D01*
X70546216Y-86628392D01*
X70543136Y-86632204D01*
X70536785Y-86639453D01*
X70530180Y-86646202D01*
X70523319Y-86652452D01*
X70516204Y-86658201D01*
X70508834Y-86663450D01*
X70501210Y-86668199D01*
X70493331Y-86672449D01*
X70485197Y-86676198D01*
X70476808Y-86679448D01*
X70468165Y-86682198D01*
X70459267Y-86684447D01*
X70450114Y-86686197D01*
X70440706Y-86687447D01*
X70431044Y-86688197D01*
X70426117Y-86688384D01*
X70421127Y-86688447D01*
X70413258Y-86688274D01*
X70405529Y-86687754D01*
X70397940Y-86686888D01*
X70390489Y-86685676D01*
X70383178Y-86684118D01*
X70376006Y-86682213D01*
X70368974Y-86679962D01*
X70362081Y-86677364D01*
X70355327Y-86674420D01*
X70348712Y-86671130D01*
X70342237Y-86667494D01*
X70335901Y-86663511D01*
X70329704Y-86659182D01*
X70323647Y-86654507D01*
X70317729Y-86649485D01*
X70311950Y-86644117D01*
X70305877Y-86637914D01*
X70300177Y-86631458D01*
X70294848Y-86624748D01*
X70289892Y-86617784D01*
X70285307Y-86610567D01*
X70281095Y-86603095D01*
X70277255Y-86595370D01*
X70273787Y-86587391D01*
X70270691Y-86579159D01*
X70267967Y-86570672D01*
X70265615Y-86561932D01*
X70263636Y-86552938D01*
X70262028Y-86543690D01*
X70260793Y-86534188D01*
X70259929Y-86524433D01*
X70259637Y-86519460D01*
X70259438Y-86514424D01*
X70259432Y-86513935D01*
X70354570Y-86513935D01*
X70354661Y-86519020D01*
X70354935Y-86523953D01*
X70355686Y-86531071D01*
X70356848Y-86537849D01*
X70358420Y-86544288D01*
X70360402Y-86550389D01*
X70362793Y-86556149D01*
X70365595Y-86561571D01*
X70368807Y-86566654D01*
X70372429Y-86571397D01*
X70376460Y-86575801D01*
X70377896Y-86577194D01*
X70382633Y-86581287D01*
X70387566Y-86584834D01*
X70392693Y-86587836D01*
X70398015Y-86590292D01*
X70403531Y-86592202D01*
X70409243Y-86593566D01*
X70415148Y-86594385D01*
X70421249Y-86594658D01*
X70426789Y-86594479D01*
X70432189Y-86593945D01*
X70437451Y-86593054D01*
X70442572Y-86591807D01*
X70447554Y-86590203D01*
X70452397Y-86588243D01*
X70457100Y-86585927D01*
X70461663Y-86583254D01*
X70466087Y-86580226D01*
X70470371Y-86576840D01*
X70473150Y-86574385D01*
X70477639Y-86569795D01*
X70481718Y-86564909D01*
X70485387Y-86559726D01*
X70488646Y-86554247D01*
X70491495Y-86548472D01*
X70493934Y-86542400D01*
X70495963Y-86536032D01*
X70497582Y-86529368D01*
X70498791Y-86522408D01*
X70499590Y-86515152D01*
X70499895Y-86510150D01*
X70500104Y-86503350D01*
X70500183Y-86496765D01*
X70500132Y-86490395D01*
X70499950Y-86484241D01*
X70499638Y-86478301D01*
X70499195Y-86472577D01*
X70498622Y-86467068D01*
X70497918Y-86461774D01*
X70497084Y-86456695D01*
X70496119Y-86451832D01*
X70493798Y-86442750D01*
X70490956Y-86434529D01*
X70487591Y-86427168D01*
X70483705Y-86420668D01*
X70479296Y-86415028D01*
X70474366Y-86410249D01*
X70468914Y-86406331D01*
X70462940Y-86403273D01*
X70456444Y-86401076D01*
X70449427Y-86399739D01*
X70441887Y-86399263D01*
X70436675Y-86399371D01*
X70431602Y-86399784D01*
X70426669Y-86400504D01*
X70421875Y-86401530D01*
X70414944Y-86403644D01*
X70408328Y-86406446D01*
X70402024Y-86409938D01*
X70396034Y-86414118D01*
X70392215Y-86417288D01*
X70388535Y-86420764D01*
X70384995Y-86424547D01*
X70381594Y-86428635D01*
X70378332Y-86433030D01*
X70375209Y-86437732D01*
X70371521Y-86443942D01*
X70368195Y-86450345D01*
X70365232Y-86456942D01*
X70362632Y-86463732D01*
X70360395Y-86470715D01*
X70359105Y-86475478D01*
X70357976Y-86480326D01*
X70357009Y-86485261D01*
X70356203Y-86490281D01*
X70355558Y-86495387D01*
X70355074Y-86500579D01*
X70354752Y-86505857D01*
X70354590Y-86511221D01*
X70354570Y-86513935D01*
X70259432Y-86513935D01*
X70259314Y-86504842D01*
X70259552Y-86495390D01*
X70260153Y-86486069D01*
X70261117Y-86476879D01*
X70262443Y-86467820D01*
X70264132Y-86458891D01*
X70266183Y-86450093D01*
X70268597Y-86441426D01*
X70271373Y-86432889D01*
X70274512Y-86424483D01*
X70278014Y-86416208D01*
X70281878Y-86408064D01*
X70286104Y-86400050D01*
X70290693Y-86392167D01*
X70295645Y-86384415D01*
X70300959Y-86376793D01*
X70304266Y-86372405D01*
X70307652Y-86368157D01*
X70311118Y-86364047D01*
X70314663Y-86360078D01*
X70318289Y-86356247D01*
X70321993Y-86352556D01*
X70325778Y-86349004D01*
X70329642Y-86345591D01*
X70333586Y-86342317D01*
X70337610Y-86339183D01*
X70341713Y-86336189D01*
X70345896Y-86333333D01*
X70350158Y-86330617D01*
X70354501Y-86328040D01*
X70358923Y-86325602D01*
X70363424Y-86323304D01*
X70368005Y-86321145D01*
X70372666Y-86319125D01*
X70377407Y-86317244D01*
X70382227Y-86315503D01*
X70387127Y-86313901D01*
X70392106Y-86312439D01*
X70397166Y-86311115D01*
X70402305Y-86309931D01*
X70407523Y-86308887D01*
X70412821Y-86307981D01*
X70418199Y-86307215D01*
X70423657Y-86306588D01*
X70429194Y-86306101D01*
X70434811Y-86305753D01*
X70440507Y-86305544D01*
X70446284Y-86305474D01*
X70454753Y-86305693D01*
G37*
G36*
X70736444Y-86365558D02*
G01*
X70739682Y-86361861D01*
X70746126Y-86354820D01*
X70752526Y-86348248D01*
X70758882Y-86342146D01*
X70765194Y-86336513D01*
X70771463Y-86331350D01*
X70777687Y-86326656D01*
X70783867Y-86322431D01*
X70790004Y-86318676D01*
X70796097Y-86315390D01*
X70802146Y-86312574D01*
X70808151Y-86310227D01*
X70814112Y-86308349D01*
X70820029Y-86306941D01*
X70825902Y-86306002D01*
X70831731Y-86305533D01*
X70834630Y-86305474D01*
X70841144Y-86305619D01*
X70847437Y-86306054D01*
X70853509Y-86306779D01*
X70859359Y-86307794D01*
X70864988Y-86309100D01*
X70870396Y-86310695D01*
X70875582Y-86312580D01*
X70880547Y-86314755D01*
X70885291Y-86317221D01*
X70889813Y-86319976D01*
X70894114Y-86323021D01*
X70898194Y-86326357D01*
X70902052Y-86329982D01*
X70905689Y-86333898D01*
X70909105Y-86338103D01*
X70912299Y-86342599D01*
X70916276Y-86339200D01*
X70920330Y-86335964D01*
X70924462Y-86332892D01*
X70928671Y-86329982D01*
X70932957Y-86327236D01*
X70937320Y-86324653D01*
X70941761Y-86322233D01*
X70946279Y-86319976D01*
X70950874Y-86317882D01*
X70955547Y-86315952D01*
X70958705Y-86314755D01*
X70963504Y-86313097D01*
X70968376Y-86311601D01*
X70973322Y-86310269D01*
X70978340Y-86309100D01*
X70983431Y-86308093D01*
X70988595Y-86307251D01*
X70993832Y-86306571D01*
X70999142Y-86306054D01*
X71004526Y-86305701D01*
X71009982Y-86305510D01*
X71013660Y-86305474D01*
X71021902Y-86305736D01*
X71029806Y-86306522D01*
X71037373Y-86307831D01*
X71044602Y-86309664D01*
X71051493Y-86312021D01*
X71058047Y-86314902D01*
X71064263Y-86318307D01*
X71070141Y-86322235D01*
X71075681Y-86326687D01*
X71080884Y-86331663D01*
X71085749Y-86337163D01*
X71090276Y-86343187D01*
X71094465Y-86349734D01*
X71098317Y-86356805D01*
X71101830Y-86364400D01*
X71105006Y-86372519D01*
X71106623Y-86378400D01*
X71107716Y-86383471D01*
X71108901Y-86389700D01*
X71110179Y-86397086D01*
X71111082Y-86402652D01*
X71112026Y-86408733D01*
X71113011Y-86415328D01*
X71114037Y-86422437D01*
X71115104Y-86430061D01*
X71116213Y-86438199D01*
X71117362Y-86446851D01*
X71118552Y-86456017D01*
X71119783Y-86465697D01*
X71121011Y-86472934D01*
X71122281Y-86480751D01*
X71123594Y-86489149D01*
X71124950Y-86498128D01*
X71126350Y-86507689D01*
X71127065Y-86512687D01*
X71127792Y-86517830D01*
X71128529Y-86523118D01*
X71129277Y-86528552D01*
X71130035Y-86534131D01*
X71130805Y-86539856D01*
X71131585Y-86545725D01*
X71132376Y-86551740D01*
X71133177Y-86557900D01*
X71133989Y-86564205D01*
X71134812Y-86570656D01*
X71135646Y-86577252D01*
X71136491Y-86583993D01*
X71137346Y-86590879D01*
X71138212Y-86597911D01*
X71139088Y-86605088D01*
X71139976Y-86612410D01*
X71140874Y-86619878D01*
X71141783Y-86627490D01*
X71142702Y-86635248D01*
X71143633Y-86643151D01*
X71144574Y-86651200D01*
X71144600Y-86657174D01*
X71143839Y-86662808D01*
X71142291Y-86668103D01*
X71139956Y-86673058D01*
X71136834Y-86677672D01*
X71132925Y-86681947D01*
X71131140Y-86683562D01*
X71126398Y-86687221D01*
X71121404Y-86690260D01*
X71116160Y-86692678D01*
X71110666Y-86694477D01*
X71104921Y-86695655D01*
X71098926Y-86696213D01*
X71096458Y-86696263D01*
X71089327Y-86695923D01*
X71082771Y-86694906D01*
X71076790Y-86693210D01*
X71071385Y-86690836D01*
X71066555Y-86687783D01*
X71062300Y-86684052D01*
X71058621Y-86679643D01*
X71055517Y-86674556D01*
X71052988Y-86668790D01*
X71051035Y-86662345D01*
X71050052Y-86657672D01*
X71048882Y-86650870D01*
X71047708Y-86643561D01*
X71046922Y-86638408D01*
X71046135Y-86633028D01*
X71045346Y-86627424D01*
X71044555Y-86621595D01*
X71043763Y-86615540D01*
X71042968Y-86609261D01*
X71042171Y-86602756D01*
X71041373Y-86596026D01*
X71040572Y-86589071D01*
X71039770Y-86581890D01*
X71038966Y-86574485D01*
X71038159Y-86566854D01*
X71037351Y-86558998D01*
X71036505Y-86550425D01*
X71035678Y-86542170D01*
X71034868Y-86534233D01*
X71034077Y-86526613D01*
X71033304Y-86519311D01*
X71032548Y-86512327D01*
X71031811Y-86505660D01*
X71031092Y-86499311D01*
X71030392Y-86493280D01*
X71029709Y-86487567D01*
X71029045Y-86482171D01*
X71028398Y-86477093D01*
X71027463Y-86470071D01*
X71026568Y-86463765D01*
X71025994Y-86459958D01*
X71024814Y-86452608D01*
X71023593Y-86445732D01*
X71022333Y-86439331D01*
X71021033Y-86433404D01*
X71019692Y-86427951D01*
X71018312Y-86422972D01*
X71016166Y-86416393D01*
X71013930Y-86410881D01*
X71011603Y-86406435D01*
X71008361Y-86402168D01*
X71004084Y-86399500D01*
X71002302Y-86399263D01*
X70997066Y-86400248D01*
X70991476Y-86402279D01*
X70986958Y-86404248D01*
X70981806Y-86406709D01*
X70976020Y-86409663D01*
X70971266Y-86412202D01*
X70966154Y-86415017D01*
X70961020Y-86417931D01*
X70956150Y-86420766D01*
X70951543Y-86423521D01*
X70947201Y-86426197D01*
X70941822Y-86429641D01*
X70936912Y-86432944D01*
X70932472Y-86436106D01*
X70928501Y-86439126D01*
X70925000Y-86442006D01*
X70925036Y-86447009D01*
X70925145Y-86452281D01*
X70925326Y-86457821D01*
X70925580Y-86463629D01*
X70925906Y-86469705D01*
X70926305Y-86476049D01*
X70926776Y-86482661D01*
X70927320Y-86489542D01*
X70927936Y-86496690D01*
X70928625Y-86504106D01*
X70929386Y-86511791D01*
X70930220Y-86519744D01*
X70931127Y-86527964D01*
X70932105Y-86536453D01*
X70933157Y-86545210D01*
X70934281Y-86554235D01*
X70935449Y-86563446D01*
X70936542Y-86572363D01*
X70937559Y-86580986D01*
X70938502Y-86589315D01*
X70939368Y-86597350D01*
X70940160Y-86605091D01*
X70940876Y-86612539D01*
X70941516Y-86619692D01*
X70942082Y-86626552D01*
X70942572Y-86633118D01*
X70942986Y-86639390D01*
X70943325Y-86645368D01*
X70943589Y-86651053D01*
X70943778Y-86656443D01*
X70943891Y-86661540D01*
X70943928Y-86666343D01*
X70943600Y-86672288D01*
X70942616Y-86677911D01*
X70940977Y-86683212D01*
X70938681Y-86688191D01*
X70935729Y-86692848D01*
X70932122Y-86697183D01*
X70930495Y-86698827D01*
X70926156Y-86702592D01*
X70921460Y-86705718D01*
X70916406Y-86708206D01*
X70910994Y-86710057D01*
X70905224Y-86711269D01*
X70900351Y-86711779D01*
X70896545Y-86711894D01*
X70891498Y-86711688D01*
X70885506Y-86710851D01*
X70879866Y-86709370D01*
X70874577Y-86707244D01*
X70869640Y-86704475D01*
X70865055Y-86701062D01*
X70862473Y-86698705D01*
X70858639Y-86694461D01*
X70855454Y-86689894D01*
X70852919Y-86685006D01*
X70851034Y-86679795D01*
X70849799Y-86674263D01*
X70849214Y-86668408D01*
X70849162Y-86665976D01*
X70849129Y-86660916D01*
X70849030Y-86655566D01*
X70848866Y-86649925D01*
X70848635Y-86643995D01*
X70848339Y-86637774D01*
X70847977Y-86631263D01*
X70847549Y-86624463D01*
X70847056Y-86617372D01*
X70846496Y-86609991D01*
X70845871Y-86602321D01*
X70845179Y-86594360D01*
X70844422Y-86586109D01*
X70843599Y-86577568D01*
X70842711Y-86568737D01*
X70841756Y-86559616D01*
X70840736Y-86550205D01*
X70839715Y-86540794D01*
X70838761Y-86531673D01*
X70837872Y-86522843D01*
X70837049Y-86514302D01*
X70836292Y-86506051D01*
X70835601Y-86498090D01*
X70834975Y-86490419D01*
X70834416Y-86483039D01*
X70833922Y-86475948D01*
X70833494Y-86469147D01*
X70833132Y-86462637D01*
X70832836Y-86456416D01*
X70832606Y-86450486D01*
X70832441Y-86444845D01*
X70832342Y-86439495D01*
X70832309Y-86434434D01*
X70832250Y-86429049D01*
X70832073Y-86423947D01*
X70831685Y-86417966D01*
X70831112Y-86412427D01*
X70830354Y-86407328D01*
X70829200Y-86401793D01*
X70828524Y-86399263D01*
X70823546Y-86402252D01*
X70818565Y-86405480D01*
X70813581Y-86408946D01*
X70808595Y-86412651D01*
X70803606Y-86416594D01*
X70798613Y-86420776D01*
X70793618Y-86425196D01*
X70788620Y-86429855D01*
X70783620Y-86434752D01*
X70778616Y-86439888D01*
X70773609Y-86445262D01*
X70768600Y-86450875D01*
X70763588Y-86456726D01*
X70758573Y-86462816D01*
X70753555Y-86469144D01*
X70748534Y-86475711D01*
X70745443Y-86479613D01*
X70742672Y-86482916D01*
X70742510Y-86491455D01*
X70742357Y-86499760D01*
X70742216Y-86507831D01*
X70742085Y-86515668D01*
X70741964Y-86523271D01*
X70741854Y-86530641D01*
X70741754Y-86537777D01*
X70741665Y-86544679D01*
X70741586Y-86551348D01*
X70741518Y-86557783D01*
X70741460Y-86563984D01*
X70741413Y-86569951D01*
X70741376Y-86575684D01*
X70741350Y-86581184D01*
X70741334Y-86586450D01*
X70741329Y-86591482D01*
X70741283Y-86596726D01*
X70741168Y-86602003D01*
X70741013Y-86607038D01*
X70740807Y-86612544D01*
X70740596Y-86617494D01*
X70740389Y-86623289D01*
X70740224Y-86628491D01*
X70740086Y-86633811D01*
X70740000Y-86638904D01*
X70739986Y-86641552D01*
X70739616Y-86647159D01*
X70738507Y-86652379D01*
X70736658Y-86657210D01*
X70734070Y-86661655D01*
X70730743Y-86665711D01*
X70726676Y-86669380D01*
X70724842Y-86670739D01*
X70720372Y-86673589D01*
X70715586Y-86675956D01*
X70710483Y-86677839D01*
X70705065Y-86679240D01*
X70699330Y-86680158D01*
X70693279Y-86680592D01*
X70690771Y-86680631D01*
X70685464Y-86680410D01*
X70680491Y-86679747D01*
X70674377Y-86678174D01*
X70668855Y-86675816D01*
X70663924Y-86672671D01*
X70659585Y-86668740D01*
X70655838Y-86664023D01*
X70652682Y-86658520D01*
X70651325Y-86655474D01*
X70649250Y-86649677D01*
X70647842Y-86644332D01*
X70646660Y-86638356D01*
X70645922Y-86633462D01*
X70645309Y-86628213D01*
X70644824Y-86622610D01*
X70644465Y-86616652D01*
X70644233Y-86610341D01*
X70644127Y-86603675D01*
X70644120Y-86601374D01*
X70644120Y-86474856D01*
X70644084Y-86469164D01*
X70644004Y-86464052D01*
X70643878Y-86458444D01*
X70643707Y-86452340D01*
X70643548Y-86447436D01*
X70643363Y-86442254D01*
X70643153Y-86436792D01*
X70642917Y-86431051D01*
X70642655Y-86425031D01*
X70642415Y-86419011D01*
X70642198Y-86413270D01*
X70642005Y-86407808D01*
X70641836Y-86402625D01*
X70641691Y-86397722D01*
X70641533Y-86391618D01*
X70641418Y-86386010D01*
X70641344Y-86380898D01*
X70641311Y-86375205D01*
X70641408Y-86369578D01*
X70641698Y-86364054D01*
X70642181Y-86358633D01*
X70642857Y-86353315D01*
X70643726Y-86348100D01*
X70644789Y-86342988D01*
X70646045Y-86337979D01*
X70647494Y-86333073D01*
X70649136Y-86328271D01*
X70650971Y-86323571D01*
X70652302Y-86320495D01*
X70654917Y-86315017D01*
X70657722Y-86310078D01*
X70660718Y-86305678D01*
X70663906Y-86301816D01*
X70668453Y-86297506D01*
X70673340Y-86294153D01*
X70678566Y-86291758D01*
X70684132Y-86290321D01*
X70690038Y-86289842D01*
X70695966Y-86290188D01*
X70701692Y-86291226D01*
X70707215Y-86292955D01*
X70712535Y-86295376D01*
X70717652Y-86298489D01*
X70721600Y-86301477D01*
X70724476Y-86304009D01*
X70728025Y-86307607D01*
X70731796Y-86312267D01*
X70734828Y-86317105D01*
X70737120Y-86322122D01*
X70738673Y-86327318D01*
X70739486Y-86332694D01*
X70739619Y-86336004D01*
X70738615Y-86341809D01*
X70738118Y-86346877D01*
X70737523Y-86353319D01*
X70737011Y-86359052D01*
X70736444Y-86365558D01*
G37*
G36*
X71634844Y-86133692D02*
G01*
X71643159Y-86134185D01*
X71651411Y-86135008D01*
X71659598Y-86136160D01*
X71667721Y-86137642D01*
X71675781Y-86139452D01*
X71683777Y-86141591D01*
X71691708Y-86144060D01*
X71699576Y-86146858D01*
X71707380Y-86149985D01*
X71715120Y-86153441D01*
X71722796Y-86157226D01*
X71730408Y-86161341D01*
X71737956Y-86165784D01*
X71745440Y-86170557D01*
X71752861Y-86175659D01*
X71756895Y-86178625D01*
X71760802Y-86181631D01*
X71768231Y-86187764D01*
X71775147Y-86194057D01*
X71781552Y-86200511D01*
X71787443Y-86207124D01*
X71792823Y-86213898D01*
X71797690Y-86220832D01*
X71802045Y-86227927D01*
X71805888Y-86235182D01*
X71809218Y-86242597D01*
X71812036Y-86250172D01*
X71814341Y-86257908D01*
X71816134Y-86265804D01*
X71817415Y-86273860D01*
X71818184Y-86282076D01*
X71818440Y-86290453D01*
X71818372Y-86295724D01*
X71818167Y-86300927D01*
X71817827Y-86306062D01*
X71817350Y-86311130D01*
X71816737Y-86316130D01*
X71815988Y-86321062D01*
X71815103Y-86325926D01*
X71814082Y-86330723D01*
X71811630Y-86340113D01*
X71808634Y-86349232D01*
X71805093Y-86358080D01*
X71801007Y-86366657D01*
X71796376Y-86374963D01*
X71791201Y-86382998D01*
X71785481Y-86390762D01*
X71779216Y-86398256D01*
X71775879Y-86401901D01*
X71772406Y-86405478D01*
X71768797Y-86408988D01*
X71765052Y-86412429D01*
X71761170Y-86415804D01*
X71757153Y-86419110D01*
X71752999Y-86422349D01*
X71748709Y-86425519D01*
X71740891Y-86430858D01*
X71732888Y-86435852D01*
X71724699Y-86440502D01*
X71716323Y-86444807D01*
X71707762Y-86448768D01*
X71699015Y-86452384D01*
X71690081Y-86455656D01*
X71680962Y-86458584D01*
X71671656Y-86461167D01*
X71662164Y-86463406D01*
X71657349Y-86464396D01*
X71652487Y-86465300D01*
X71647578Y-86466118D01*
X71642623Y-86466850D01*
X71637622Y-86467496D01*
X71632573Y-86468055D01*
X71627479Y-86468529D01*
X71622338Y-86468916D01*
X71617150Y-86469218D01*
X71611916Y-86469433D01*
X71606635Y-86469562D01*
X71601308Y-86469605D01*
X71595975Y-86469367D01*
X71590255Y-86468916D01*
X71585167Y-86468451D01*
X71579245Y-86467866D01*
X71573906Y-86467313D01*
X71572487Y-86467163D01*
X71572236Y-86473753D01*
X71572001Y-86480854D01*
X71571782Y-86488465D01*
X71571579Y-86496586D01*
X71571392Y-86505218D01*
X71571222Y-86514361D01*
X71571068Y-86524014D01*
X71570997Y-86529031D01*
X71570930Y-86534177D01*
X71570867Y-86539450D01*
X71570809Y-86544851D01*
X71570754Y-86550379D01*
X71570703Y-86556035D01*
X71570657Y-86561818D01*
X71570614Y-86567729D01*
X71570575Y-86573768D01*
X71570541Y-86579934D01*
X71570511Y-86586228D01*
X71570484Y-86592650D01*
X71570462Y-86599199D01*
X71570444Y-86605876D01*
X71570429Y-86612680D01*
X71570419Y-86619612D01*
X71570413Y-86626671D01*
X71570411Y-86633859D01*
X71570101Y-86639719D01*
X71569171Y-86645317D01*
X71567621Y-86650653D01*
X71565450Y-86655726D01*
X71562659Y-86660537D01*
X71559249Y-86665085D01*
X71557711Y-86666831D01*
X71553575Y-86670807D01*
X71549105Y-86674109D01*
X71544301Y-86676736D01*
X71539163Y-86678690D01*
X71533692Y-86679971D01*
X71527886Y-86680577D01*
X71525471Y-86680631D01*
X71519525Y-86680312D01*
X71513902Y-86679355D01*
X71508601Y-86677760D01*
X71503622Y-86675527D01*
X71498965Y-86672656D01*
X71494630Y-86669146D01*
X71492986Y-86667564D01*
X71489292Y-86663391D01*
X71486224Y-86658961D01*
X71483782Y-86654274D01*
X71481967Y-86649332D01*
X71480777Y-86644133D01*
X71480214Y-86638677D01*
X71480163Y-86636423D01*
X71480163Y-86540680D01*
X71480190Y-86533840D01*
X71480270Y-86526600D01*
X71480404Y-86518960D01*
X71480591Y-86510920D01*
X71480831Y-86502481D01*
X71481125Y-86493642D01*
X71481472Y-86484403D01*
X71481873Y-86474765D01*
X71482094Y-86469796D01*
X71482327Y-86464727D01*
X71482574Y-86459558D01*
X71482835Y-86454289D01*
X71483109Y-86448920D01*
X71483396Y-86443451D01*
X71483696Y-86437882D01*
X71484010Y-86432213D01*
X71484338Y-86426444D01*
X71484678Y-86420576D01*
X71485032Y-86414607D01*
X71485399Y-86408539D01*
X71485780Y-86402370D01*
X71486174Y-86396102D01*
X71486582Y-86389734D01*
X71487002Y-86383265D01*
X71487401Y-86376693D01*
X71487599Y-86373374D01*
X71577983Y-86373374D01*
X71583157Y-86374077D01*
X71588618Y-86374764D01*
X71593958Y-86375348D01*
X71599193Y-86375756D01*
X71601308Y-86375816D01*
X71607938Y-86375730D01*
X71614426Y-86375471D01*
X71620772Y-86375039D01*
X71626976Y-86374434D01*
X71633038Y-86373657D01*
X71638958Y-86372708D01*
X71644735Y-86371585D01*
X71650370Y-86370290D01*
X71655863Y-86368822D01*
X71661214Y-86367182D01*
X71666423Y-86365368D01*
X71671490Y-86363382D01*
X71676414Y-86361224D01*
X71681196Y-86358893D01*
X71685836Y-86356389D01*
X71690334Y-86353712D01*
X71694904Y-86350707D01*
X71699179Y-86347583D01*
X71703159Y-86344341D01*
X71706844Y-86340981D01*
X71711819Y-86335719D01*
X71716130Y-86330190D01*
X71719778Y-86324396D01*
X71722763Y-86318335D01*
X71725085Y-86312008D01*
X71726743Y-86305415D01*
X71727738Y-86298556D01*
X71728070Y-86291430D01*
X71727519Y-86285169D01*
X71725864Y-86279088D01*
X71723107Y-86273186D01*
X71720315Y-86268878D01*
X71716903Y-86264670D01*
X71712871Y-86260563D01*
X71708218Y-86256557D01*
X71702944Y-86252652D01*
X71697051Y-86248847D01*
X71692777Y-86246367D01*
X71686335Y-86242963D01*
X71679785Y-86239893D01*
X71673128Y-86237158D01*
X71666364Y-86234758D01*
X71659493Y-86232693D01*
X71652514Y-86230963D01*
X71645428Y-86229567D01*
X71638234Y-86228507D01*
X71630934Y-86227781D01*
X71626007Y-86227484D01*
X71621032Y-86227335D01*
X71618527Y-86227316D01*
X71613192Y-86227324D01*
X71608177Y-86227347D01*
X71602919Y-86227391D01*
X71599110Y-86227438D01*
X71594158Y-86227562D01*
X71589262Y-86227809D01*
X71584944Y-86228171D01*
X71584931Y-86233931D01*
X71584900Y-86239486D01*
X71584863Y-86244423D01*
X71584815Y-86249799D01*
X71584754Y-86255614D01*
X71584683Y-86261868D01*
X71584622Y-86266847D01*
X71584577Y-86270303D01*
X71584395Y-86276833D01*
X71584122Y-86284010D01*
X71583890Y-86289156D01*
X71583618Y-86294589D01*
X71583306Y-86300311D01*
X71582954Y-86306320D01*
X71582562Y-86312618D01*
X71582130Y-86319204D01*
X71581658Y-86326078D01*
X71581146Y-86333240D01*
X71580593Y-86340691D01*
X71580001Y-86348429D01*
X71579368Y-86356456D01*
X71578695Y-86364771D01*
X71577983Y-86373374D01*
X71487599Y-86373374D01*
X71487787Y-86370226D01*
X71488162Y-86363863D01*
X71488525Y-86357607D01*
X71488876Y-86351455D01*
X71489215Y-86345408D01*
X71489542Y-86339467D01*
X71489857Y-86333631D01*
X71490160Y-86327900D01*
X71490451Y-86322274D01*
X71490731Y-86316753D01*
X71490998Y-86311338D01*
X71491253Y-86306028D01*
X71491497Y-86300822D01*
X71491729Y-86295723D01*
X71491948Y-86290728D01*
X71492156Y-86285838D01*
X71492536Y-86276375D01*
X71492868Y-86267332D01*
X71493152Y-86258710D01*
X71493389Y-86250509D01*
X71493578Y-86242729D01*
X71493719Y-86235369D01*
X71493812Y-86228430D01*
X71493841Y-86225118D01*
X71493912Y-86219637D01*
X71494080Y-86214338D01*
X71494344Y-86209220D01*
X71494705Y-86204283D01*
X71495717Y-86194955D01*
X71497115Y-86186352D01*
X71498900Y-86178476D01*
X71501071Y-86171326D01*
X71503628Y-86164901D01*
X71506572Y-86159203D01*
X71509902Y-86154231D01*
X71513619Y-86149985D01*
X71517722Y-86146465D01*
X71522211Y-86143671D01*
X71527087Y-86141603D01*
X71532349Y-86140261D01*
X71537998Y-86139645D01*
X71544033Y-86139755D01*
X71549541Y-86138448D01*
X71554951Y-86137458D01*
X71559944Y-86136724D01*
X71565379Y-86136074D01*
X71571255Y-86135508D01*
X71576273Y-86135115D01*
X71581572Y-86134743D01*
X71587149Y-86134420D01*
X71593006Y-86134147D01*
X71599140Y-86133924D01*
X71605554Y-86133750D01*
X71610546Y-86133653D01*
X71615696Y-86133583D01*
X71621002Y-86133541D01*
X71626465Y-86133527D01*
X71634844Y-86133692D01*
G37*
G36*
X72211427Y-86297658D02*
G01*
X72205775Y-86297365D01*
X72200407Y-86296486D01*
X72195322Y-86295021D01*
X72190521Y-86292970D01*
X72186003Y-86290333D01*
X72181768Y-86287110D01*
X72177817Y-86283300D01*
X72174149Y-86278905D01*
X72170764Y-86273924D01*
X72167663Y-86268356D01*
X72165753Y-86264319D01*
X72163613Y-86259703D01*
X72161037Y-86254975D01*
X72158021Y-86250576D01*
X72154559Y-86247023D01*
X72151953Y-86245390D01*
X72147102Y-86244102D01*
X72141747Y-86243485D01*
X72135874Y-86243141D01*
X72130075Y-86242986D01*
X72124842Y-86242948D01*
X72119386Y-86243218D01*
X72113825Y-86244030D01*
X72108159Y-86245382D01*
X72102387Y-86247276D01*
X72096511Y-86249710D01*
X72090530Y-86252685D01*
X72084444Y-86256201D01*
X72078253Y-86260259D01*
X72071957Y-86264857D01*
X72065556Y-86269996D01*
X72059051Y-86275676D01*
X72052440Y-86281897D01*
X72045724Y-86288659D01*
X72042327Y-86292243D01*
X72038903Y-86295962D01*
X72035454Y-86299816D01*
X72031978Y-86303806D01*
X72028476Y-86307931D01*
X72024947Y-86312191D01*
X72020063Y-86318224D01*
X72015335Y-86324233D01*
X72010761Y-86330217D01*
X72006343Y-86336178D01*
X72002079Y-86342115D01*
X71997971Y-86348027D01*
X71994017Y-86353916D01*
X71990219Y-86359780D01*
X71986576Y-86365620D01*
X71983087Y-86371436D01*
X71979754Y-86377228D01*
X71976576Y-86382996D01*
X71973552Y-86388740D01*
X71970684Y-86394460D01*
X71967971Y-86400156D01*
X71965413Y-86405827D01*
X71963010Y-86411475D01*
X71960762Y-86417098D01*
X71958669Y-86422698D01*
X71956731Y-86428273D01*
X71954948Y-86433824D01*
X71953320Y-86439351D01*
X71951847Y-86444854D01*
X71950529Y-86450333D01*
X71949367Y-86455788D01*
X71948359Y-86461218D01*
X71947506Y-86466625D01*
X71946809Y-86472008D01*
X71946266Y-86477366D01*
X71945878Y-86482700D01*
X71945646Y-86488011D01*
X71945568Y-86493297D01*
X71945788Y-86500414D01*
X71946448Y-86507340D01*
X71947549Y-86514075D01*
X71949089Y-86520620D01*
X71951069Y-86526973D01*
X71953489Y-86533135D01*
X71956350Y-86539106D01*
X71959650Y-86544885D01*
X71963391Y-86550474D01*
X71967572Y-86555872D01*
X71970603Y-86559364D01*
X71975407Y-86564275D01*
X71980385Y-86568702D01*
X71985536Y-86572647D01*
X71990862Y-86576108D01*
X71996361Y-86579087D01*
X72002035Y-86581582D01*
X72007882Y-86583595D01*
X72013903Y-86585124D01*
X72020098Y-86586171D01*
X72026467Y-86586734D01*
X72030809Y-86586842D01*
X72037184Y-86586683D01*
X72043579Y-86586206D01*
X72049993Y-86585412D01*
X72056426Y-86584300D01*
X72062878Y-86582870D01*
X72069350Y-86581123D01*
X72075841Y-86579058D01*
X72082352Y-86576675D01*
X72088882Y-86573975D01*
X72095431Y-86570956D01*
X72099808Y-86568768D01*
X72104333Y-86566194D01*
X72108919Y-86563397D01*
X72114364Y-86559943D01*
X72119011Y-86556922D01*
X72124141Y-86553532D01*
X72129755Y-86549772D01*
X72135851Y-86545643D01*
X72140183Y-86542686D01*
X72144730Y-86539564D01*
X72149492Y-86536278D01*
X72151953Y-86534574D01*
X72156875Y-86531344D01*
X72161565Y-86528431D01*
X72166023Y-86525837D01*
X72171606Y-86522872D01*
X72176777Y-86520471D01*
X72181536Y-86518636D01*
X72186905Y-86517135D01*
X72192498Y-86516500D01*
X72197560Y-86516738D01*
X72202428Y-86517454D01*
X72208239Y-86519019D01*
X72213745Y-86521330D01*
X72218948Y-86524386D01*
X72222891Y-86527367D01*
X72226640Y-86530826D01*
X72227547Y-86531765D01*
X72231417Y-86536328D01*
X72234631Y-86541089D01*
X72237189Y-86546046D01*
X72239091Y-86551200D01*
X72240337Y-86556550D01*
X72240927Y-86562097D01*
X72240980Y-86564371D01*
X72240701Y-86569418D01*
X72239866Y-86574301D01*
X72238473Y-86579020D01*
X72236523Y-86583575D01*
X72234015Y-86587966D01*
X72230951Y-86592192D01*
X72227329Y-86596255D01*
X72223150Y-86600153D01*
X72217239Y-86605104D01*
X72211322Y-86609898D01*
X72205398Y-86614535D01*
X72199468Y-86619015D01*
X72193532Y-86623338D01*
X72187589Y-86627503D01*
X72181639Y-86631511D01*
X72175683Y-86635362D01*
X72169721Y-86639056D01*
X72163752Y-86642593D01*
X72157777Y-86645972D01*
X72151795Y-86649194D01*
X72145807Y-86652259D01*
X72139812Y-86655167D01*
X72133811Y-86657918D01*
X72127804Y-86660512D01*
X72121790Y-86662948D01*
X72115770Y-86665227D01*
X72109743Y-86667349D01*
X72103710Y-86669314D01*
X72097670Y-86671121D01*
X72091624Y-86672772D01*
X72085572Y-86674265D01*
X72079513Y-86675601D01*
X72073447Y-86676780D01*
X72067375Y-86677802D01*
X72061297Y-86678666D01*
X72055212Y-86679374D01*
X72049121Y-86679924D01*
X72043024Y-86680317D01*
X72036919Y-86680552D01*
X72030809Y-86680631D01*
X72021240Y-86680406D01*
X72011859Y-86679732D01*
X72002666Y-86678609D01*
X71993661Y-86677036D01*
X71984844Y-86675014D01*
X71976215Y-86672542D01*
X71967774Y-86669622D01*
X71959521Y-86666251D01*
X71951455Y-86662432D01*
X71943578Y-86658163D01*
X71935889Y-86653444D01*
X71928387Y-86648276D01*
X71921074Y-86642659D01*
X71913948Y-86636593D01*
X71907011Y-86630077D01*
X71900261Y-86623112D01*
X71894109Y-86616119D01*
X71888354Y-86608972D01*
X71882996Y-86601671D01*
X71878035Y-86594215D01*
X71873471Y-86586604D01*
X71869303Y-86578839D01*
X71865533Y-86570919D01*
X71862159Y-86562845D01*
X71859183Y-86554616D01*
X71856603Y-86546233D01*
X71854420Y-86537695D01*
X71852634Y-86529002D01*
X71851245Y-86520155D01*
X71850252Y-86511153D01*
X71849657Y-86501997D01*
X71849459Y-86492686D01*
X71849557Y-86485346D01*
X71849852Y-86477997D01*
X71850343Y-86470637D01*
X71851031Y-86463268D01*
X71851915Y-86455889D01*
X71852996Y-86448501D01*
X71854274Y-86441102D01*
X71855748Y-86433694D01*
X71857419Y-86426276D01*
X71859286Y-86418848D01*
X71861349Y-86411410D01*
X71863609Y-86403963D01*
X71866066Y-86396506D01*
X71868720Y-86389039D01*
X71871569Y-86381562D01*
X71874616Y-86374076D01*
X71877859Y-86366579D01*
X71881298Y-86359073D01*
X71884934Y-86351558D01*
X71888767Y-86344032D01*
X71892796Y-86336497D01*
X71897021Y-86328951D01*
X71901443Y-86321396D01*
X71906062Y-86313832D01*
X71910877Y-86306257D01*
X71915889Y-86298673D01*
X71921097Y-86291079D01*
X71926502Y-86283475D01*
X71932103Y-86275861D01*
X71937901Y-86268238D01*
X71943896Y-86260605D01*
X71950087Y-86252962D01*
X71955433Y-86246575D01*
X71960787Y-86240392D01*
X71966148Y-86234411D01*
X71971517Y-86228633D01*
X71976893Y-86223058D01*
X71982277Y-86217685D01*
X71987668Y-86212515D01*
X71993066Y-86207548D01*
X71998471Y-86202784D01*
X72003885Y-86198222D01*
X72009305Y-86193863D01*
X72014733Y-86189707D01*
X72020168Y-86185753D01*
X72025611Y-86182003D01*
X72031061Y-86178455D01*
X72036518Y-86175109D01*
X72041983Y-86171967D01*
X72047455Y-86169027D01*
X72052935Y-86166290D01*
X72058422Y-86163756D01*
X72063916Y-86161424D01*
X72069418Y-86159296D01*
X72074927Y-86157370D01*
X72080444Y-86155646D01*
X72085968Y-86154126D01*
X72091499Y-86152808D01*
X72097038Y-86151693D01*
X72102584Y-86150781D01*
X72108137Y-86150071D01*
X72113698Y-86149564D01*
X72119267Y-86149260D01*
X72124842Y-86149159D01*
X72130418Y-86149197D01*
X72135788Y-86149313D01*
X72140951Y-86149506D01*
X72145908Y-86149777D01*
X72151432Y-86150190D01*
X72152198Y-86150258D01*
X72157400Y-86150732D01*
X72162322Y-86151300D01*
X72167604Y-86152063D01*
X72172519Y-86152948D01*
X72173691Y-86153189D01*
X72178540Y-86149776D01*
X72183699Y-86146942D01*
X72189169Y-86144686D01*
X72194948Y-86143009D01*
X72199795Y-86142083D01*
X72204840Y-86141528D01*
X72210083Y-86141343D01*
X72216419Y-86141694D01*
X72222282Y-86142747D01*
X72227673Y-86144502D01*
X72232592Y-86146959D01*
X72237038Y-86150117D01*
X72241012Y-86153978D01*
X72244514Y-86158541D01*
X72247544Y-86163806D01*
X72250101Y-86169772D01*
X72252187Y-86176441D01*
X72253314Y-86181277D01*
X72254362Y-86186741D01*
X72255306Y-86192373D01*
X72256148Y-86198173D01*
X72256886Y-86204140D01*
X72257522Y-86210274D01*
X72258054Y-86216576D01*
X72258483Y-86223046D01*
X72258810Y-86229682D01*
X72259033Y-86236487D01*
X72259153Y-86243458D01*
X72259176Y-86248199D01*
X72258932Y-86253432D01*
X72258198Y-86258522D01*
X72256976Y-86263469D01*
X72255264Y-86268273D01*
X72253064Y-86272933D01*
X72250375Y-86277451D01*
X72249162Y-86279218D01*
X72245741Y-86283540D01*
X72241949Y-86287286D01*
X72237788Y-86290455D01*
X72233256Y-86293048D01*
X72228354Y-86295065D01*
X72223082Y-86296506D01*
X72217439Y-86297370D01*
X72211427Y-86297658D01*
G37*
G36*
X72467921Y-86133688D02*
G01*
X72475976Y-86134170D01*
X72483987Y-86134974D01*
X72491955Y-86136099D01*
X72499878Y-86137546D01*
X72507758Y-86139314D01*
X72515594Y-86141404D01*
X72523386Y-86143816D01*
X72531134Y-86146549D01*
X72538838Y-86149603D01*
X72546498Y-86152979D01*
X72554115Y-86156677D01*
X72561687Y-86160696D01*
X72569216Y-86165036D01*
X72576700Y-86169698D01*
X72584141Y-86174682D01*
X72588431Y-86177705D01*
X72592585Y-86180775D01*
X72596603Y-86183891D01*
X72600484Y-86187054D01*
X72604230Y-86190264D01*
X72611312Y-86196825D01*
X72617849Y-86203572D01*
X72623842Y-86210506D01*
X72629289Y-86217627D01*
X72634192Y-86224935D01*
X72638551Y-86232431D01*
X72642364Y-86240113D01*
X72645633Y-86247982D01*
X72648357Y-86256038D01*
X72650536Y-86264281D01*
X72652170Y-86272712D01*
X72653260Y-86281329D01*
X72653804Y-86290133D01*
X72653872Y-86294605D01*
X72653746Y-86301779D01*
X72653366Y-86308739D01*
X72652733Y-86315484D01*
X72651846Y-86322014D01*
X72650706Y-86328329D01*
X72649313Y-86334430D01*
X72647666Y-86340316D01*
X72645767Y-86345988D01*
X72643614Y-86351445D01*
X72641207Y-86356687D01*
X72639462Y-86360062D01*
X72636360Y-86365514D01*
X72633687Y-86369665D01*
X72630718Y-86373870D01*
X72627453Y-86378129D01*
X72623892Y-86382441D01*
X72620034Y-86386807D01*
X72615880Y-86391227D01*
X72611430Y-86395700D01*
X72606684Y-86400227D01*
X72601641Y-86404808D01*
X72599895Y-86406346D01*
X72606079Y-86409466D01*
X72612131Y-86412871D01*
X72618049Y-86416561D01*
X72623834Y-86420537D01*
X72629487Y-86424799D01*
X72635006Y-86429346D01*
X72640392Y-86434178D01*
X72645645Y-86439296D01*
X72649073Y-86442867D01*
X72652441Y-86446564D01*
X72655751Y-86450389D01*
X72659002Y-86454340D01*
X72662536Y-86458827D01*
X72665842Y-86463310D01*
X72668921Y-86467791D01*
X72671771Y-86472269D01*
X72674393Y-86476744D01*
X72676787Y-86481216D01*
X72678954Y-86485686D01*
X72681775Y-86492384D01*
X72684084Y-86499077D01*
X72685880Y-86505762D01*
X72687163Y-86512442D01*
X72687932Y-86519115D01*
X72688189Y-86525781D01*
X72687994Y-86531380D01*
X72687410Y-86536942D01*
X72686437Y-86542466D01*
X72685075Y-86547954D01*
X72683323Y-86553404D01*
X72681182Y-86558817D01*
X72678652Y-86564193D01*
X72675732Y-86569531D01*
X72672424Y-86574832D01*
X72668726Y-86580096D01*
X72664638Y-86585323D01*
X72660162Y-86590513D01*
X72655296Y-86595666D01*
X72650041Y-86600781D01*
X72644397Y-86605859D01*
X72638363Y-86610900D01*
X72634184Y-86614191D01*
X72629981Y-86617380D01*
X72625754Y-86620465D01*
X72621503Y-86623448D01*
X72617228Y-86626327D01*
X72612929Y-86629103D01*
X72608607Y-86631777D01*
X72604261Y-86634347D01*
X72599891Y-86636814D01*
X72595497Y-86639178D01*
X72591079Y-86641440D01*
X72586637Y-86643598D01*
X72582171Y-86645653D01*
X72577682Y-86647605D01*
X72570903Y-86650340D01*
X72568632Y-86651200D01*
X72563591Y-86653010D01*
X72558468Y-86654764D01*
X72553262Y-86656459D01*
X72547974Y-86658098D01*
X72542603Y-86659679D01*
X72537150Y-86661202D01*
X72531614Y-86662668D01*
X72525996Y-86664076D01*
X72520295Y-86665427D01*
X72514512Y-86666720D01*
X72508646Y-86667956D01*
X72502698Y-86669134D01*
X72496667Y-86670255D01*
X72490553Y-86671319D01*
X72484357Y-86672325D01*
X72478079Y-86673273D01*
X72471718Y-86674164D01*
X72465274Y-86674998D01*
X72458748Y-86675774D01*
X72452139Y-86676492D01*
X72445448Y-86677153D01*
X72438675Y-86677757D01*
X72431818Y-86678303D01*
X72424880Y-86678792D01*
X72417858Y-86679223D01*
X72410754Y-86679596D01*
X72403568Y-86679913D01*
X72396299Y-86680171D01*
X72388948Y-86680372D01*
X72381514Y-86680516D01*
X72373998Y-86680602D01*
X72366399Y-86680631D01*
X72361306Y-86680368D01*
X72356347Y-86679578D01*
X72351521Y-86678261D01*
X72346829Y-86676418D01*
X72342270Y-86674048D01*
X72337845Y-86671151D01*
X72333554Y-86667728D01*
X72329396Y-86663778D01*
X72325589Y-86659500D01*
X72322290Y-86655153D01*
X72319498Y-86650738D01*
X72317214Y-86646254D01*
X72315438Y-86641701D01*
X72313931Y-86635913D01*
X72313217Y-86630018D01*
X72313154Y-86627630D01*
X72313154Y-86461789D01*
X72406577Y-86461789D01*
X72406577Y-86586842D01*
X72414004Y-86586398D01*
X72421508Y-86585829D01*
X72429089Y-86585134D01*
X72436748Y-86584315D01*
X72444484Y-86583371D01*
X72452298Y-86582302D01*
X72460188Y-86581108D01*
X72468156Y-86579789D01*
X72476202Y-86578345D01*
X72484324Y-86576776D01*
X72492524Y-86575082D01*
X72500801Y-86573263D01*
X72509155Y-86571319D01*
X72517587Y-86569251D01*
X72526096Y-86567057D01*
X72534682Y-86564738D01*
X72541999Y-86562636D01*
X72548839Y-86560515D01*
X72555200Y-86558374D01*
X72561083Y-86556212D01*
X72566488Y-86554031D01*
X72571416Y-86551829D01*
X72575865Y-86549608D01*
X72581643Y-86546238D01*
X72586345Y-86542823D01*
X72589972Y-86539363D01*
X72593135Y-86534679D01*
X72594385Y-86529915D01*
X72594399Y-86528712D01*
X72593579Y-86522358D01*
X72591606Y-86516179D01*
X72589370Y-86511661D01*
X72586485Y-86507241D01*
X72582953Y-86502919D01*
X72578772Y-86498697D01*
X72573942Y-86494573D01*
X72568465Y-86490548D01*
X72562339Y-86486622D01*
X72557895Y-86484059D01*
X72555565Y-86482794D01*
X72550055Y-86479912D01*
X72544607Y-86477263D01*
X72539221Y-86474848D01*
X72533898Y-86472668D01*
X72528637Y-86470721D01*
X72523438Y-86469008D01*
X72518301Y-86467530D01*
X72513227Y-86466285D01*
X72508215Y-86465274D01*
X72503265Y-86464498D01*
X72500000Y-86464110D01*
X72493866Y-86464089D01*
X72487190Y-86464028D01*
X72479970Y-86463926D01*
X72474855Y-86463836D01*
X72469499Y-86463727D01*
X72463902Y-86463600D01*
X72458063Y-86463455D01*
X72451982Y-86463292D01*
X72445661Y-86463110D01*
X72439098Y-86462911D01*
X72432293Y-86462694D01*
X72425247Y-86462458D01*
X72417960Y-86462204D01*
X72410431Y-86461932D01*
X72406577Y-86461789D01*
X72313154Y-86461789D01*
X72313154Y-86368000D01*
X72406577Y-86368000D01*
X72412302Y-86368665D01*
X72417755Y-86369240D01*
X72422935Y-86369724D01*
X72427843Y-86370118D01*
X72433962Y-86370504D01*
X72439597Y-86370729D01*
X72444747Y-86370794D01*
X72450503Y-86370649D01*
X72453593Y-86370443D01*
X72460062Y-86369881D01*
X72466326Y-86369205D01*
X72472384Y-86368413D01*
X72478237Y-86367506D01*
X72483885Y-86366484D01*
X72489327Y-86365346D01*
X72494564Y-86364094D01*
X72499595Y-86362726D01*
X72504421Y-86361243D01*
X72509042Y-86359645D01*
X72517667Y-86356103D01*
X72525471Y-86352100D01*
X72532453Y-86347636D01*
X72538614Y-86342712D01*
X72543954Y-86337327D01*
X72548472Y-86331481D01*
X72552168Y-86325174D01*
X72555043Y-86318406D01*
X72557097Y-86311177D01*
X72558329Y-86303488D01*
X72558740Y-86295338D01*
X72558257Y-86289442D01*
X72556809Y-86283599D01*
X72554395Y-86277810D01*
X72551951Y-86273503D01*
X72548964Y-86269226D01*
X72545434Y-86264979D01*
X72541360Y-86260762D01*
X72536744Y-86256576D01*
X72531585Y-86252419D01*
X72527843Y-86249665D01*
X72521809Y-86245562D01*
X72515703Y-86241862D01*
X72509527Y-86238566D01*
X72503280Y-86235674D01*
X72496962Y-86233185D01*
X72490573Y-86231100D01*
X72484113Y-86229419D01*
X72477583Y-86228141D01*
X72470981Y-86227266D01*
X72464309Y-86226795D01*
X72459822Y-86226706D01*
X72454419Y-86226708D01*
X72449292Y-86226715D01*
X72442122Y-86226735D01*
X72435574Y-86226765D01*
X72429648Y-86226806D01*
X72424345Y-86226858D01*
X72418243Y-86226944D01*
X72413247Y-86227049D01*
X72407829Y-86227242D01*
X72406577Y-86227316D01*
X72406943Y-86298025D01*
X72406577Y-86368000D01*
X72313154Y-86368000D01*
X72313154Y-86269326D01*
X72312887Y-86263586D01*
X72312635Y-86257847D01*
X72312398Y-86252107D01*
X72312177Y-86246367D01*
X72311971Y-86240628D01*
X72311780Y-86234888D01*
X72311604Y-86229148D01*
X72311444Y-86223408D01*
X72311230Y-86217031D01*
X72311139Y-86210906D01*
X72311169Y-86205033D01*
X72311322Y-86199412D01*
X72311597Y-86194042D01*
X72311994Y-86188924D01*
X72312513Y-86184059D01*
X72313154Y-86179445D01*
X72314491Y-86173711D01*
X72316717Y-86168418D01*
X72319832Y-86163565D01*
X72323836Y-86159152D01*
X72328728Y-86155178D01*
X72334509Y-86151645D01*
X72341178Y-86148552D01*
X72346119Y-86146735D01*
X72351454Y-86145113D01*
X72357184Y-86143687D01*
X72363309Y-86142456D01*
X72369829Y-86141421D01*
X72373237Y-86140976D01*
X72378439Y-86139645D01*
X72384244Y-86138445D01*
X72390652Y-86137375D01*
X72397664Y-86136437D01*
X72402673Y-86135884D01*
X72407950Y-86135389D01*
X72413496Y-86134953D01*
X72419310Y-86134575D01*
X72425391Y-86134255D01*
X72431741Y-86133993D01*
X72438359Y-86133789D01*
X72445245Y-86133643D01*
X72452399Y-86133556D01*
X72459822Y-86133527D01*
X72467921Y-86133688D01*
G37*
D12*
%TO.P,U1,1,VBAT*%
%TO.N,+3.3V*%
X82010000Y-77362500D03*
%TO.P,U1,2,PC13*%
%TO.N,unconnected-(U1-PC13-Pad2)*%
X82010000Y-77862500D03*
%TO.P,U1,3,PC14*%
%TO.N,unconnected-(U1-PC14-Pad3)*%
X82010000Y-78362500D03*
%TO.P,U1,4,PC15*%
%TO.N,unconnected-(U1-PC15-Pad4)*%
X82010000Y-78862500D03*
%TO.P,U1,5,PD0*%
%TO.N,/HSE_IN*%
X82010000Y-79362500D03*
%TO.P,U1,6,PD1*%
%TO.N,/HSE_OUT*%
X82010000Y-79862500D03*
%TO.P,U1,7,NRST*%
%TO.N,/NRST*%
X82010000Y-80362500D03*
%TO.P,U1,8,VSSA*%
%TO.N,GND*%
X82010000Y-80862500D03*
%TO.P,U1,9,VDDA*%
%TO.N,+3.3VA*%
X82010000Y-81362500D03*
%TO.P,U1,10,PA0*%
%TO.N,unconnected-(U1-PA0-Pad10)*%
X82010000Y-81862500D03*
%TO.P,U1,11,PA1*%
%TO.N,unconnected-(U1-PA1-Pad11)*%
X82010000Y-82362500D03*
%TO.P,U1,12,PA2*%
%TO.N,unconnected-(U1-PA2-Pad12)*%
X82010000Y-82862500D03*
D13*
%TO.P,U1,13,PA3*%
%TO.N,unconnected-(U1-PA3-Pad13)*%
X83422500Y-84275000D03*
%TO.P,U1,14,PA4*%
%TO.N,unconnected-(U1-PA4-Pad14)*%
X83922500Y-84275000D03*
%TO.P,U1,15,PA5*%
%TO.N,unconnected-(U1-PA5-Pad15)*%
X84422500Y-84275000D03*
%TO.P,U1,16,PA6*%
%TO.N,unconnected-(U1-PA6-Pad16)*%
X84922500Y-84275000D03*
%TO.P,U1,17,PA7*%
%TO.N,unconnected-(U1-PA7-Pad17)*%
X85422500Y-84275000D03*
%TO.P,U1,18,PB0*%
%TO.N,unconnected-(U1-PB0-Pad18)*%
X85922500Y-84275000D03*
%TO.P,U1,19,PB1*%
%TO.N,unconnected-(U1-PB1-Pad19)*%
X86422500Y-84275000D03*
%TO.P,U1,20,PB2*%
%TO.N,unconnected-(U1-PB2-Pad20)*%
X86922500Y-84275000D03*
%TO.P,U1,21,PB10*%
%TO.N,/I2C2_SCL*%
X87422500Y-84275000D03*
%TO.P,U1,22,PB11*%
%TO.N,/I2C2_SDA*%
X87922500Y-84275000D03*
%TO.P,U1,23,VSS*%
%TO.N,GND*%
X88422500Y-84275000D03*
%TO.P,U1,24,VDD*%
%TO.N,+3.3V*%
X88922500Y-84275000D03*
D12*
%TO.P,U1,25,PB12*%
%TO.N,unconnected-(U1-PB12-Pad25)*%
X90335000Y-82862500D03*
%TO.P,U1,26,PB13*%
%TO.N,unconnected-(U1-PB13-Pad26)*%
X90335000Y-82362500D03*
%TO.P,U1,27,PB14*%
%TO.N,unconnected-(U1-PB14-Pad27)*%
X90335000Y-81862500D03*
%TO.P,U1,28,PB15*%
%TO.N,unconnected-(U1-PB15-Pad28)*%
X90335000Y-81362500D03*
%TO.P,U1,29,PA8*%
%TO.N,unconnected-(U1-PA8-Pad29)*%
X90335000Y-80862500D03*
%TO.P,U1,30,PA9*%
%TO.N,unconnected-(U1-PA9-Pad30)*%
X90335000Y-80362500D03*
%TO.P,U1,31,PA10*%
%TO.N,unconnected-(U1-PA10-Pad31)*%
X90335000Y-79862500D03*
%TO.P,U1,32,PA11*%
%TO.N,/USB_D-*%
X90335000Y-79362500D03*
%TO.P,U1,33,PA12*%
%TO.N,/USB_D+*%
X90335000Y-78862500D03*
%TO.P,U1,34,PA13*%
%TO.N,/SWDIO*%
X90335000Y-78362500D03*
%TO.P,U1,35,VSS*%
%TO.N,GND*%
X90335000Y-77862500D03*
%TO.P,U1,36,VDD*%
%TO.N,+3.3V*%
X90335000Y-77362500D03*
D13*
%TO.P,U1,37,PA14*%
%TO.N,/SWCLK*%
X88922500Y-75950000D03*
%TO.P,U1,38,PA15*%
%TO.N,unconnected-(U1-PA15-Pad38)*%
X88422500Y-75950000D03*
%TO.P,U1,39,PB3*%
%TO.N,unconnected-(U1-PB3-Pad39)*%
X87922500Y-75950000D03*
%TO.P,U1,40,PB4*%
%TO.N,unconnected-(U1-PB4-Pad40)*%
X87422500Y-75950000D03*
%TO.P,U1,41,PB5*%
%TO.N,unconnected-(U1-PB5-Pad41)*%
X86922500Y-75950000D03*
%TO.P,U1,42,PB6*%
%TO.N,/USART1_TX*%
X86422500Y-75950000D03*
%TO.P,U1,43,PB7*%
%TO.N,/USART1_RX*%
X85922500Y-75950000D03*
%TO.P,U1,44,BOOT0*%
%TO.N,/BOOT0*%
X85422500Y-75950000D03*
%TO.P,U1,45,PB8*%
%TO.N,unconnected-(U1-PB8-Pad45)*%
X84922500Y-75950000D03*
%TO.P,U1,46,PB9*%
%TO.N,unconnected-(U1-PB9-Pad46)*%
X84422500Y-75950000D03*
%TO.P,U1,47,VSS*%
%TO.N,GND*%
X83922500Y-75950000D03*
%TO.P,U1,48,VDD*%
%TO.N,+3.3V*%
X83422500Y-75950000D03*
%TD*%
D14*
%TO.P,C9,1*%
%TO.N,+3.3VA*%
X79480000Y-84500000D03*
%TO.P,C9,2*%
%TO.N,GND*%
X78520000Y-84500000D03*
%TD*%
D15*
%TO.P,J3,1,Pin_1*%
%TO.N,+3.3V*%
X85750000Y-61000000D03*
D16*
%TO.P,J3,2,Pin_2*%
%TO.N,/USART1_TX*%
X83210000Y-61000000D03*
%TO.P,J3,3,Pin_3*%
%TO.N,/USART1_RX*%
X80670000Y-61000000D03*
%TO.P,J3,4,Pin_4*%
%TO.N,GND*%
X78130000Y-61000000D03*
%TD*%
D17*
%TO.P,C2,1*%
%TO.N,+3.3V*%
X101500000Y-89400000D03*
%TO.P,C2,2*%
%TO.N,GND*%
X101500000Y-87500000D03*
%TD*%
D18*
%TO.P,C6,1*%
%TO.N,+3.3V*%
X92480000Y-77020000D03*
%TO.P,C6,2*%
%TO.N,GND*%
X92480000Y-77980000D03*
%TD*%
D19*
%TO.P,J1,1,VBUS*%
%TO.N,VBUS*%
X108845000Y-79305000D03*
%TO.P,J1,2,D-*%
%TO.N,/USB_D-*%
X108845000Y-78655000D03*
%TO.P,J1,3,D+*%
%TO.N,/USB_D+*%
X108845000Y-78005000D03*
%TO.P,J1,4,ID*%
%TO.N,unconnected-(J1-ID-Pad4)*%
X108845000Y-77355000D03*
%TO.P,J1,5,GND*%
%TO.N,GND*%
X108845000Y-76705000D03*
D20*
%TO.P,J1,6,Shield*%
%TO.N,unconnected-(J1-Shield-Pad6)*%
X112695000Y-81880000D03*
D21*
X108895000Y-81730000D03*
X108895000Y-74280000D03*
D20*
X112695000Y-74130000D03*
%TD*%
D22*
%TO.P,R2,1*%
%TO.N,/SW_BOOT0*%
X73500000Y-70510000D03*
%TO.P,R2,2*%
%TO.N,/BOOT0*%
X73500000Y-69490000D03*
%TD*%
D23*
%TO.P,C4,1*%
%TO.N,+3.3V*%
X79750000Y-77230000D03*
%TO.P,C4,2*%
%TO.N,GND*%
X79750000Y-76270000D03*
%TD*%
D24*
%TO.P,R3,1*%
%TO.N,+3.3V*%
X99250000Y-77750000D03*
%TO.P,R3,2*%
%TO.N,/USB_D+*%
X99250000Y-78770000D03*
%TD*%
D25*
%TO.P,D1,1,K*%
%TO.N,/PWR_LED_Kathode*%
X105500000Y-88500000D03*
%TO.P,D1,2,A*%
%TO.N,+3.3V*%
X105500000Y-90075000D03*
%TD*%
D26*
%TO.P,U2,1,GND*%
%TO.N,GND*%
X99100000Y-86000000D03*
%TO.P,U2,2,VO*%
%TO.N,+3.3V*%
X96800000Y-86000000D03*
D27*
X96800000Y-92300000D03*
D26*
%TO.P,U2,3,VI*%
%TO.N,VBUS*%
X94500000Y-86000000D03*
%TD*%
D28*
%TO.P,C3,1*%
%TO.N,+3.3V*%
X80000000Y-68500000D03*
%TO.P,C3,2*%
%TO.N,GND*%
X81550000Y-68500000D03*
%TD*%
D15*
%TO.P,J4,1,Pin_1*%
%TO.N,+3.3V*%
X81000000Y-95000000D03*
D16*
%TO.P,J4,2,Pin_2*%
%TO.N,/I2C2_SCL*%
X83540000Y-95000000D03*
%TO.P,J4,3,Pin_3*%
%TO.N,/I2C2_SDA*%
X86080000Y-95000000D03*
%TO.P,J4,4,Pin_4*%
%TO.N,GND*%
X88620000Y-95000000D03*
%TD*%
D29*
%TO.P,Y1,1,1*%
%TO.N,/HSE_IN*%
X74250000Y-78000000D03*
%TO.P,Y1,2,2*%
%TO.N,GND*%
X74250000Y-80200000D03*
%TO.P,Y1,3,3*%
%TO.N,/HSE_OUT*%
X75950000Y-80200000D03*
%TO.P,Y1,4,4*%
%TO.N,GND*%
X75950000Y-78000000D03*
%TD*%
D30*
%TO.P,C10,1*%
%TO.N,+3.3V*%
X78520000Y-86500000D03*
%TO.P,C10,2*%
%TO.N,GND*%
X79480000Y-86500000D03*
%TD*%
D14*
%TO.P,C5,1*%
%TO.N,+3.3V*%
X90250000Y-86750000D03*
%TO.P,C5,2*%
%TO.N,GND*%
X89290000Y-86750000D03*
%TD*%
D15*
%TO.P,J2,1,Pin_1*%
%TO.N,+3.3V*%
X101370000Y-61250000D03*
D16*
%TO.P,J2,2,Pin_2*%
%TO.N,/SWDIO*%
X98830000Y-61250000D03*
%TO.P,J2,3,Pin_3*%
%TO.N,/SWCLK*%
X96290000Y-61250000D03*
%TO.P,J2,4,Pin_4*%
%TO.N,GND*%
X93750000Y-61250000D03*
%TD*%
D31*
%TO.P,R1,1*%
%TO.N,/PWR_LED_Kathode*%
X105490000Y-86750000D03*
%TO.P,R1,2*%
%TO.N,GND*%
X106510000Y-86750000D03*
%TD*%
D23*
%TO.P,C8,1*%
%TO.N,+3.3VA*%
X79750000Y-82210000D03*
%TO.P,C8,2*%
%TO.N,GND*%
X79750000Y-81250000D03*
%TD*%
%TO.P,C13,1*%
%TO.N,/HSE_OUT*%
X77600000Y-80710000D03*
%TO.P,C13,2*%
%TO.N,GND*%
X77600000Y-79750000D03*
%TD*%
D32*
%TO.P,FB1,1*%
%TO.N,+3.3V*%
X81212500Y-86287500D03*
%TO.P,FB1,2*%
%TO.N,+3.3VA*%
X81212500Y-84712500D03*
%TD*%
D33*
%TO.P,C1,1*%
%TO.N,VBUS*%
X95800000Y-83500000D03*
%TO.P,C1,2*%
%TO.N,GND*%
X97700000Y-83500000D03*
%TD*%
D31*
%TO.P,R5,1*%
%TO.N,+3.3V*%
X86500000Y-89000000D03*
%TO.P,R5,2*%
%TO.N,/I2C2_SDA*%
X87520000Y-89000000D03*
%TD*%
D34*
%TO.P,SW1,*%
%TO.N,*%
X68280000Y-66350000D03*
X66070000Y-66350000D03*
X68280000Y-73650000D03*
X66070000Y-73650000D03*
D35*
%TO.P,SW1,1,A*%
%TO.N,GND*%
X68930000Y-67750000D03*
%TO.P,SW1,2,B*%
%TO.N,/SW_BOOT0*%
X68930000Y-70750000D03*
%TO.P,SW1,3,C*%
%TO.N,+3.3V*%
X68930000Y-72250000D03*
%TD*%
D23*
%TO.P,C12,1*%
%TO.N,/HSE_IN*%
X78500000Y-78710000D03*
%TO.P,C12,2*%
%TO.N,GND*%
X78500000Y-77750000D03*
%TD*%
D30*
%TO.P,C11,1*%
%TO.N,/NRST*%
X83040000Y-86500000D03*
%TO.P,C11,2*%
%TO.N,GND*%
X84000000Y-86500000D03*
%TD*%
D31*
%TO.P,R4,1*%
%TO.N,+3.3V*%
X83490000Y-89000000D03*
%TO.P,R4,2*%
%TO.N,/I2C2_SCL*%
X84510000Y-89000000D03*
%TD*%
D36*
%TO.N,+3.3V*%
X83500000Y-90250000D03*
X85250000Y-90250000D03*
X88250000Y-88000000D03*
X86820500Y-88000000D03*
%TO.N,GND*%
X78500000Y-79750000D03*
X78250000Y-63250000D03*
X77750000Y-77750000D03*
X98500000Y-87500000D03*
X79500000Y-87500000D03*
X99000000Y-84000000D03*
X93500000Y-64000000D03*
X78500000Y-85250000D03*
X88500000Y-82750000D03*
X99500000Y-87500000D03*
X107750000Y-86750000D03*
X81500000Y-70000000D03*
X83750000Y-81000000D03*
X80750000Y-76250000D03*
X83500000Y-74250000D03*
X84000000Y-87250000D03*
X106750000Y-76750000D03*
X99000000Y-83000000D03*
X88750000Y-92750000D03*
X70750000Y-67750000D03*
X79000000Y-81409500D03*
X102750000Y-87500000D03*
%TD*%
D37*
%TO.N,+3.3V*%
X91137500Y-77362500D02*
X91750000Y-76750000D01*
X93750000Y-95250000D02*
X105250000Y-95250000D01*
X83490000Y-88565000D02*
X81212500Y-86287500D01*
X79902500Y-77362500D02*
X79750000Y-77210000D01*
X85750000Y-61000000D02*
X87750000Y-59000000D01*
X78520000Y-86500000D02*
X78520000Y-88230000D01*
X93000000Y-94500000D02*
X93750000Y-95250000D01*
X81000000Y-88250000D02*
X81000000Y-95000000D01*
X86820500Y-88679500D02*
X86500000Y-89000000D01*
X87750000Y-59000000D02*
X99500000Y-59000000D01*
X93000000Y-90750000D02*
X93000000Y-94500000D01*
X90250000Y-86750000D02*
X90250000Y-88000000D01*
X90335000Y-77362500D02*
X91137500Y-77362500D01*
X86500000Y-89000000D02*
X85250000Y-90250000D01*
X76250000Y-72250000D02*
X68930000Y-72250000D01*
X89000000Y-85500000D02*
X89042965Y-85500000D01*
X76250000Y-73772965D02*
X76250000Y-72250000D01*
X79750000Y-77230000D02*
X79707035Y-77230000D01*
X79707035Y-77230000D02*
X76250000Y-73772965D01*
X81212500Y-86287500D02*
X81000000Y-86500000D01*
X83500000Y-90250000D02*
X83500000Y-89010000D01*
D38*
X104825000Y-89400000D02*
X105500000Y-90075000D01*
D37*
X89042965Y-85500000D02*
X90250000Y-86707035D01*
X99250000Y-77750000D02*
X98520000Y-77020000D01*
X88922500Y-85422500D02*
X89000000Y-85500000D01*
X99500000Y-59000000D02*
X101370000Y-60870000D01*
D38*
X103250000Y-89400000D02*
X103500000Y-89400000D01*
D37*
X78625000Y-71152500D02*
X78625000Y-69875000D01*
X86820500Y-88000000D02*
X86820500Y-88679500D01*
X81000000Y-86500000D02*
X81000000Y-88250000D01*
D38*
X103500000Y-89400000D02*
X104825000Y-89400000D01*
D37*
X105250000Y-95250000D02*
X105250000Y-90325000D01*
X90250000Y-86707035D02*
X90250000Y-86750000D01*
X90250000Y-88000000D02*
X93000000Y-90750000D01*
X101370000Y-60870000D02*
X101370000Y-61250000D01*
X83490000Y-89000000D02*
X83490000Y-88565000D01*
X90250000Y-88000000D02*
X88250000Y-88000000D01*
X78500000Y-88250000D02*
X81000000Y-88250000D01*
X82010000Y-77362500D02*
X79902500Y-77362500D01*
X105250000Y-90325000D02*
X105500000Y-90075000D01*
X78520000Y-88230000D02*
X78500000Y-88250000D01*
X83422500Y-75950000D02*
X78625000Y-71152500D01*
D38*
X101500000Y-89400000D02*
X103250000Y-89400000D01*
D37*
X78625000Y-69875000D02*
X76250000Y-72250000D01*
X98520000Y-77020000D02*
X92480000Y-77020000D01*
X92020000Y-77020000D02*
X92480000Y-77020000D01*
X91750000Y-76750000D02*
X92020000Y-77020000D01*
X80000000Y-68500000D02*
X78625000Y-69875000D01*
X88922500Y-84275000D02*
X88922500Y-85422500D01*
X83500000Y-89010000D02*
X83490000Y-89000000D01*
%TO.N,GND*%
X88422500Y-82827500D02*
X88500000Y-82750000D01*
X80137500Y-80862500D02*
X79750000Y-81250000D01*
D38*
X79480000Y-87480000D02*
X79500000Y-87500000D01*
X78520000Y-84500000D02*
X78520000Y-85230000D01*
D37*
X88422500Y-84275000D02*
X88422500Y-82827500D01*
X78500000Y-77750000D02*
X77750000Y-77750000D01*
X79750000Y-76270000D02*
X80730000Y-76270000D01*
X83922500Y-75950000D02*
X83922500Y-74672500D01*
X83612500Y-80862500D02*
X83750000Y-81000000D01*
X88422500Y-84275000D02*
X88422500Y-85882500D01*
X80730000Y-76270000D02*
X80750000Y-76250000D01*
X91500000Y-78000000D02*
X91520000Y-77980000D01*
D38*
X106500000Y-86750000D02*
X107750000Y-86750000D01*
X78520000Y-85230000D02*
X78500000Y-85250000D01*
X79480000Y-86500000D02*
X79480000Y-87480000D01*
X84000000Y-86500000D02*
X84000000Y-87250000D01*
D37*
X82010000Y-80862500D02*
X83612500Y-80862500D01*
X77600000Y-79750000D02*
X78500000Y-79750000D01*
X82010000Y-80862500D02*
X80137500Y-80862500D01*
D38*
X68930000Y-67750000D02*
X70750000Y-67750000D01*
D37*
X83922500Y-74672500D02*
X83500000Y-74250000D01*
D38*
X81550000Y-68500000D02*
X81550000Y-69950000D01*
D37*
X79750000Y-81250000D02*
X79159500Y-81250000D01*
X108845000Y-76705000D02*
X106795000Y-76705000D01*
X90335000Y-77862500D02*
X91362500Y-77862500D01*
D38*
X81550000Y-69950000D02*
X81500000Y-70000000D01*
D37*
X91362500Y-77862500D02*
X91500000Y-78000000D01*
X88620000Y-92880000D02*
X88750000Y-92750000D01*
X88620000Y-95000000D02*
X88620000Y-92880000D01*
X88422500Y-85882500D02*
X89290000Y-86750000D01*
X106795000Y-76705000D02*
X106750000Y-76750000D01*
X91520000Y-77980000D02*
X92480000Y-77980000D01*
X79159500Y-81250000D02*
X79000000Y-81409500D01*
%TO.N,+3.3VA*%
X79480000Y-82480000D02*
X79750000Y-82210000D01*
X81171459Y-81362500D02*
X80323959Y-82210000D01*
X79480000Y-84500000D02*
X79480000Y-82480000D01*
X82010000Y-81362500D02*
X81171459Y-81362500D01*
X79692500Y-84712500D02*
X79480000Y-84500000D01*
X80323959Y-82210000D02*
X79750000Y-82210000D01*
X81212500Y-84712500D02*
X79692500Y-84712500D01*
%TO.N,/NRST*%
X83397550Y-80362500D02*
X83510050Y-80250000D01*
X82010000Y-80362500D02*
X83397550Y-80362500D01*
X82870000Y-83380000D02*
X82870000Y-86330000D01*
X84500000Y-80250000D02*
X84500000Y-81750000D01*
X83510050Y-80250000D02*
X84500000Y-80250000D01*
X82870000Y-86330000D02*
X83040000Y-86500000D01*
X84500000Y-81750000D02*
X82870000Y-83380000D01*
%TO.N,/HSE_IN*%
X76900000Y-79150000D02*
X74250000Y-79150000D01*
X74250000Y-79150000D02*
X74250000Y-78000000D01*
X77340000Y-78710000D02*
X76900000Y-79150000D01*
X79152500Y-79362500D02*
X78500000Y-78710000D01*
X82010000Y-79362500D02*
X79152500Y-79362500D01*
X78500000Y-78710000D02*
X77340000Y-78710000D01*
%TO.N,/HSE_OUT*%
X82010000Y-79862500D02*
X79884535Y-79862500D01*
X79884535Y-79862500D02*
X79037035Y-80710000D01*
X79037035Y-80710000D02*
X77600000Y-80710000D01*
X76460000Y-80710000D02*
X75950000Y-80200000D01*
X77600000Y-80710000D02*
X76460000Y-80710000D01*
D38*
%TO.N,/PWR_LED_Kathode*%
X105500000Y-86760000D02*
X105490000Y-86750000D01*
X105500000Y-88500000D02*
X105500000Y-86760000D01*
D39*
%TO.N,/USB_D-*%
X90335000Y-79362500D02*
X91441251Y-79362500D01*
X103843200Y-78225000D02*
X107603632Y-78225000D01*
X91463751Y-79340000D02*
X99615183Y-79340000D01*
X108831397Y-78655000D02*
X108845000Y-78655000D01*
X99615183Y-79340000D02*
X99617683Y-79337500D01*
X99617683Y-79337500D02*
X102730700Y-79337500D01*
X108706397Y-78780000D02*
X108831397Y-78655000D01*
X102730700Y-79337500D02*
X103843200Y-78225000D01*
X107908632Y-78530000D02*
X108720000Y-78530000D01*
X108720000Y-78530000D02*
X108845000Y-78655000D01*
X91441251Y-79362500D02*
X91463751Y-79340000D01*
X107603632Y-78225000D02*
X107908632Y-78530000D01*
%TO.N,/USB_D+*%
X108831397Y-78005000D02*
X108845000Y-78005000D01*
X107895000Y-77775000D02*
X107895000Y-77880000D01*
X90335000Y-78862500D02*
X91441251Y-78862500D01*
X91441251Y-78862500D02*
X91466251Y-78887500D01*
X108720000Y-78130000D02*
X108845000Y-78005000D01*
X102544300Y-78887500D02*
X103656800Y-77775000D01*
X103656800Y-77775000D02*
X107895000Y-77775000D01*
X107895000Y-77880000D02*
X108706397Y-77880000D01*
X108706397Y-77880000D02*
X108831397Y-78005000D01*
X91466251Y-78887500D02*
X102544300Y-78887500D01*
D37*
%TO.N,/SWDIO*%
X89000000Y-78000000D02*
X89000000Y-77358959D01*
X89000000Y-77358959D02*
X98830000Y-67528959D01*
X89362500Y-78362500D02*
X89000000Y-78000000D01*
X98830000Y-67528959D02*
X98830000Y-61250000D01*
X90335000Y-78362500D02*
X89362500Y-78362500D01*
%TO.N,/SWCLK*%
X88922500Y-75950000D02*
X88922500Y-70577500D01*
X96290000Y-63210000D02*
X96290000Y-61250000D01*
X88922500Y-70577500D02*
X96290000Y-63210000D01*
%TO.N,/USART1_TX*%
X86750000Y-74000000D02*
X85750000Y-73000000D01*
X85750000Y-66750000D02*
X83210000Y-64210000D01*
X85750000Y-73000000D02*
X85750000Y-66750000D01*
X83210000Y-64210000D02*
X83210000Y-61000000D01*
X86422500Y-75950000D02*
X86422500Y-74327500D01*
X86422500Y-74327500D02*
X86750000Y-74000000D01*
%TO.N,/USART1_RX*%
X85000000Y-67750000D02*
X80670000Y-63420000D01*
X80670000Y-63420000D02*
X80670000Y-61000000D01*
X85000000Y-73250000D02*
X85000000Y-67750000D01*
X85922500Y-74172500D02*
X85000000Y-73250000D01*
X85922500Y-75950000D02*
X85922500Y-74172500D01*
%TO.N,/I2C2_SCL*%
X87422500Y-84275000D02*
X87422500Y-85113541D01*
X84510000Y-88026041D02*
X84510000Y-89000000D01*
X87422500Y-85113541D02*
X84510000Y-88026041D01*
X84510000Y-89000000D02*
X84510000Y-94030000D01*
X84510000Y-94030000D02*
X83540000Y-95000000D01*
%TO.N,/I2C2_SDA*%
X86080000Y-90440000D02*
X86080000Y-95000000D01*
X87520000Y-86477035D02*
X87520000Y-89000000D01*
X87922500Y-84275000D02*
X87922500Y-86074535D01*
X87520000Y-89000000D02*
X86080000Y-90440000D01*
X87922500Y-86074535D02*
X87520000Y-86477035D01*
%TO.N,/SW_BOOT0*%
X73260000Y-70750000D02*
X73500000Y-70510000D01*
X68930000Y-70750000D02*
X73260000Y-70750000D01*
%TO.N,/BOOT0*%
X85422500Y-75950000D02*
X85422500Y-75111459D01*
X73500000Y-69250000D02*
X73500000Y-69490000D01*
X82500000Y-66750000D02*
X76000000Y-66750000D01*
X83750000Y-73438959D02*
X83750000Y-68000000D01*
X83750000Y-68000000D02*
X82500000Y-66750000D01*
X76000000Y-66750000D02*
X73500000Y-69250000D01*
X85422500Y-75111459D02*
X83750000Y-73438959D01*
%TD*%
%TA.AperFunction,Conductor*%
%TO.N,GND*%
G36*
X99443039Y-82519685D02*
G01*
X99488794Y-82572489D01*
X99500000Y-82624000D01*
X99500000Y-84500000D01*
X100376000Y-84500000D01*
X100443039Y-84519685D01*
X100488794Y-84572489D01*
X100500000Y-84624000D01*
X100500000Y-86500000D01*
X102448638Y-86500000D01*
X102515677Y-86519685D01*
X102536319Y-86536319D01*
X103213681Y-87213681D01*
X103247166Y-87275004D01*
X103250000Y-87301362D01*
X103250000Y-88126000D01*
X103230315Y-88193039D01*
X103177511Y-88238794D01*
X103126000Y-88250000D01*
X103115413Y-88250000D01*
X103048374Y-88230315D01*
X103008375Y-88188600D01*
X102969679Y-88122436D01*
X102969674Y-88122428D01*
X102932740Y-88079804D01*
X102923920Y-88069625D01*
X102923918Y-88069623D01*
X102923908Y-88069612D01*
X102879192Y-88027451D01*
X102879189Y-88027449D01*
X102879187Y-88027447D01*
X102779111Y-87976561D01*
X102779110Y-87976560D01*
X102779109Y-87976560D01*
X102712078Y-87956877D01*
X102712072Y-87956876D01*
X102626000Y-87944500D01*
X102381749Y-87944500D01*
X102381747Y-87944500D01*
X102335480Y-87948024D01*
X102332253Y-87948518D01*
X102298343Y-87953715D01*
X102287744Y-87955710D01*
X102277912Y-87957561D01*
X102174731Y-88001783D01*
X102174724Y-88001787D01*
X102116650Y-88040646D01*
X102116645Y-88040650D01*
X102069259Y-88079800D01*
X102069255Y-88079805D01*
X102006359Y-88172794D01*
X102006352Y-88172806D01*
X102005218Y-88175417D01*
X102004342Y-88176466D01*
X102003597Y-88177823D01*
X102003331Y-88177677D01*
X101960448Y-88229058D01*
X101893784Y-88249979D01*
X101891491Y-88250000D01*
X101107664Y-88250000D01*
X101040625Y-88230315D01*
X101000626Y-88188600D01*
X100961930Y-88122436D01*
X100961925Y-88122428D01*
X100924991Y-88079804D01*
X100916171Y-88069625D01*
X100916169Y-88069623D01*
X100916159Y-88069612D01*
X100871443Y-88027451D01*
X100871440Y-88027449D01*
X100871438Y-88027447D01*
X100771362Y-87976561D01*
X100771361Y-87976560D01*
X100771360Y-87976560D01*
X100704329Y-87956877D01*
X100704323Y-87956876D01*
X100618251Y-87944500D01*
X100618248Y-87944500D01*
X98298886Y-87944500D01*
X98231847Y-87924815D01*
X98187978Y-87875956D01*
X98062754Y-87625508D01*
X98050776Y-87586617D01*
X98044614Y-87540859D01*
X98027255Y-87477585D01*
X98007932Y-87426194D01*
X98000000Y-87382555D01*
X98000000Y-84500000D01*
X97301362Y-84500000D01*
X97234323Y-84480315D01*
X97213681Y-84463681D01*
X97036319Y-84286319D01*
X97002834Y-84224996D01*
X97000000Y-84198638D01*
X97000000Y-82624000D01*
X97019685Y-82556961D01*
X97072489Y-82511206D01*
X97124000Y-82500000D01*
X99376000Y-82500000D01*
X99443039Y-82519685D01*
G37*
%TD.AperFunction*%
%TD*%
%TA.AperFunction,Conductor*%
%TO.N,+3.3V*%
G36*
X96993039Y-85769685D02*
G01*
X97038794Y-85822489D01*
X97050000Y-85874000D01*
X97049999Y-87500000D01*
X97597828Y-87500000D01*
X97597841Y-87499999D01*
X97612743Y-87498397D01*
X97681503Y-87510801D01*
X97732641Y-87558411D01*
X97750000Y-87621685D01*
X97750000Y-88250000D01*
X100618251Y-88250000D01*
X100685290Y-88269685D01*
X100731045Y-88322489D01*
X100740989Y-88391647D01*
X100711964Y-88455203D01*
X100683348Y-88479539D01*
X100556654Y-88557684D01*
X100432684Y-88681654D01*
X100340643Y-88830875D01*
X100340641Y-88830880D01*
X100285494Y-88997302D01*
X100285493Y-88997309D01*
X100275000Y-89100013D01*
X100275000Y-89150000D01*
X101626000Y-89150000D01*
X101693039Y-89169685D01*
X101738794Y-89222489D01*
X101750000Y-89274000D01*
X101750000Y-90399999D01*
X102024972Y-90399999D01*
X102024986Y-90399998D01*
X102127697Y-90389505D01*
X102294119Y-90334358D01*
X102294124Y-90334356D01*
X102443342Y-90242317D01*
X102538317Y-90147342D01*
X102599640Y-90113857D01*
X102669332Y-90118841D01*
X102725266Y-90160712D01*
X102749683Y-90226176D01*
X102749999Y-90235023D01*
X102750000Y-93626000D01*
X102730315Y-93693039D01*
X102677511Y-93738794D01*
X102626000Y-93750000D01*
X99235433Y-93750000D01*
X99168394Y-93730315D01*
X99122639Y-93677511D01*
X99112695Y-93608353D01*
X99136167Y-93551688D01*
X99143352Y-93542089D01*
X99143354Y-93542086D01*
X99193596Y-93407379D01*
X99193598Y-93407372D01*
X99199999Y-93347844D01*
X99200000Y-93347827D01*
X99200000Y-92550000D01*
X94400000Y-92550000D01*
X94400000Y-93347844D01*
X94406401Y-93407372D01*
X94406403Y-93407379D01*
X94456645Y-93542086D01*
X94456647Y-93542089D01*
X94463833Y-93551688D01*
X94488251Y-93617151D01*
X94473400Y-93685425D01*
X94423996Y-93734831D01*
X94364567Y-93750000D01*
X94124000Y-93750000D01*
X94056961Y-93730315D01*
X94011206Y-93677511D01*
X94000000Y-93626000D01*
X94000000Y-92050000D01*
X94400000Y-92050000D01*
X96550000Y-92050000D01*
X96550000Y-90800000D01*
X97050000Y-90800000D01*
X97050000Y-92050000D01*
X99200000Y-92050000D01*
X99200000Y-91252172D01*
X99199999Y-91252155D01*
X99193598Y-91192627D01*
X99193596Y-91192620D01*
X99143354Y-91057913D01*
X99143350Y-91057906D01*
X99057190Y-90942812D01*
X99057187Y-90942809D01*
X98942093Y-90856649D01*
X98942086Y-90856645D01*
X98807379Y-90806403D01*
X98807372Y-90806401D01*
X98747844Y-90800000D01*
X97050000Y-90800000D01*
X96550000Y-90800000D01*
X94852155Y-90800000D01*
X94792627Y-90806401D01*
X94792620Y-90806403D01*
X94657913Y-90856645D01*
X94657906Y-90856649D01*
X94542812Y-90942809D01*
X94542809Y-90942812D01*
X94456649Y-91057906D01*
X94456645Y-91057913D01*
X94406403Y-91192620D01*
X94406401Y-91192627D01*
X94400000Y-91252155D01*
X94400000Y-92050000D01*
X94000000Y-92050000D01*
X94000000Y-90624000D01*
X94019685Y-90556961D01*
X94072489Y-90511206D01*
X94124000Y-90500000D01*
X95750000Y-90500000D01*
X95750000Y-89650000D01*
X100275001Y-89650000D01*
X100275001Y-89699986D01*
X100285494Y-89802697D01*
X100340641Y-89969119D01*
X100340643Y-89969124D01*
X100432684Y-90118345D01*
X100556654Y-90242315D01*
X100705875Y-90334356D01*
X100705880Y-90334358D01*
X100872302Y-90389505D01*
X100872309Y-90389506D01*
X100975019Y-90399999D01*
X101249999Y-90399999D01*
X101250000Y-90399998D01*
X101250000Y-89650000D01*
X100275001Y-89650000D01*
X95750000Y-89650000D01*
X95750000Y-87600347D01*
X95769685Y-87533308D01*
X95822489Y-87487553D01*
X95891647Y-87477609D01*
X95917334Y-87484165D01*
X95942623Y-87493597D01*
X95942627Y-87493598D01*
X96002155Y-87499999D01*
X96002172Y-87500000D01*
X96550000Y-87500000D01*
X96550000Y-85874000D01*
X96569685Y-85806961D01*
X96622489Y-85761206D01*
X96674000Y-85750000D01*
X96926000Y-85750000D01*
X96993039Y-85769685D01*
G37*
%TD.AperFunction*%
%TD*%
%TA.AperFunction,Conductor*%
%TO.N,VBUS*%
G36*
X110193039Y-79019685D02*
G01*
X110238794Y-79072489D01*
X110250000Y-79124000D01*
X110250000Y-79626000D01*
X110230315Y-79693039D01*
X110177511Y-79738794D01*
X110126000Y-79750000D01*
X110114536Y-79750000D01*
X110047497Y-79730315D01*
X110001742Y-79677511D01*
X109991246Y-79612745D01*
X109994999Y-79577828D01*
X109995000Y-79577827D01*
X109995000Y-79530000D01*
X107695000Y-79530000D01*
X107695000Y-79577844D01*
X107701401Y-79637372D01*
X107701403Y-79637380D01*
X107735906Y-79729888D01*
X107740890Y-79799580D01*
X107707404Y-79860903D01*
X107648563Y-79893821D01*
X98041763Y-82191100D01*
X98012924Y-82194500D01*
X97124000Y-82194500D01*
X97123991Y-82194500D01*
X97123990Y-82194501D01*
X97059064Y-82201481D01*
X97059052Y-82201483D01*
X97022682Y-82209395D01*
X97007549Y-82212687D01*
X97007550Y-82212687D01*
X96969345Y-82223644D01*
X96969341Y-82223646D01*
X96872431Y-82280323D01*
X96872428Y-82280325D01*
X96819623Y-82326081D01*
X96819612Y-82326091D01*
X96777451Y-82370807D01*
X96777446Y-82370814D01*
X96746678Y-82431326D01*
X96698746Y-82482162D01*
X96630939Y-82499014D01*
X96564785Y-82476531D01*
X96548465Y-82462804D01*
X96518345Y-82432684D01*
X96369124Y-82340643D01*
X96369119Y-82340641D01*
X96202697Y-82285494D01*
X96202690Y-82285493D01*
X96099986Y-82275000D01*
X96050000Y-82275000D01*
X96050000Y-83626000D01*
X96030315Y-83693039D01*
X95977511Y-83738794D01*
X95926000Y-83750000D01*
X95674000Y-83750000D01*
X95606961Y-83730315D01*
X95561206Y-83677511D01*
X95550000Y-83626000D01*
X95550000Y-82275000D01*
X95549999Y-82274999D01*
X95500029Y-82275000D01*
X95500011Y-82275001D01*
X95397302Y-82285494D01*
X95230880Y-82340641D01*
X95230871Y-82340645D01*
X95189096Y-82366413D01*
X95121704Y-82384853D01*
X95055040Y-82363930D01*
X95010271Y-82310288D01*
X95000000Y-82260874D01*
X95000000Y-81602791D01*
X95019685Y-81535752D01*
X95072489Y-81489997D01*
X95101003Y-81480942D01*
X107826000Y-79080000D01*
X107918667Y-79080000D01*
X107985706Y-79099685D01*
X108006348Y-79116319D01*
X108022235Y-79132206D01*
X108125009Y-79177585D01*
X108150135Y-79180500D01*
X108628521Y-79180499D01*
X108628531Y-79180500D01*
X108642964Y-79180500D01*
X108794493Y-79180500D01*
X108794497Y-79180499D01*
X109539856Y-79180499D01*
X109539864Y-79180499D01*
X109539879Y-79180497D01*
X109539882Y-79180497D01*
X109564987Y-79177586D01*
X109564988Y-79177585D01*
X109564991Y-79177585D01*
X109667765Y-79132206D01*
X109683652Y-79116318D01*
X109744975Y-79082834D01*
X109771333Y-79080000D01*
X109995000Y-79080000D01*
X110013290Y-79061709D01*
X110014685Y-79056961D01*
X110067489Y-79011206D01*
X110119000Y-79000000D01*
X110126000Y-79000000D01*
X110193039Y-79019685D01*
G37*
%TD.AperFunction*%
%TD*%
M02*
